<?xml version="1.0" encoding="UTF-8" standalone="no"?>
<!-- Created with Inkscape (http://www.inkscape.org/) -->

<svg
   xmlns:dc="http://purl.org/dc/elements/1.1/"
   xmlns:cc="http://creativecommons.org/ns#"
   xmlns:rdf="http://www.w3.org/1999/02/22-rdf-syntax-ns#"
   xmlns:svg="http://www.w3.org/2000/svg"
   xmlns="http://www.w3.org/2000/svg"
   xmlns:sodipodi="http://sodipodi.sourceforge.net/DTD/sodipodi-0.dtd"
   xmlns:inkscape="http://www.inkscape.org/namespaces/inkscape"
   width="101.67678mm"
   height="138.72887mm"
   viewBox="0 0 360.2721 491.55898"
   id="svg4723"
   version="1.1"
   inkscape:version="0.91 r13725"
   sodipodi:docname="body.svg">
  <defs
     id="defs4725" />
  <sodipodi:namedview
     id="base"
     pagecolor="#ffffff"
     bordercolor="#666666"
     borderopacity="1.0"
     inkscape:pageopacity="0.0"
     inkscape:pageshadow="2"
     inkscape:zoom="0.98994949"
     inkscape:cx="45.648028"
     inkscape:cy="192.23732"
     inkscape:document-units="px"
     inkscape:current-layer="layer1"
     showgrid="false"
     fit-margin-top="0"
     fit-margin-left="0"
     fit-margin-right="0"
     fit-margin-bottom="0"
     inkscape:window-width="1920"
     inkscape:window-height="1003"
     inkscape:window-x="-9"
     inkscape:window-y="-9"
     inkscape:window-maximized="1" />
  <metadata
     id="metadata4728">
    <rdf:RDF>
      <cc:Work
         rdf:about="">
        <dc:format>image/svg+xml</dc:format>
        <dc:type
           rdf:resource="http://purl.org/dc/dcmitype/StillImage" />
        <dc:title></dc:title>
      </cc:Work>
    </rdf:RDF>
  </metadata>
  <g
     inkscape:label="Ebene 1"
     inkscape:groupmode="layer"
     id="layer1"
     transform="translate(317.81708,-11.848687)">
    <path
       style="fill:#000000"
       d="m -23.584156,503.2766 c -0.3478,-0.3478 -6.81187,-0.7607 -14.36462,-0.91755 -40.67241,-0.84468 -38.92128,-0.41525 -39.47894,-9.68131 -0.06254,-3.87987 -1.803201,-7.61335 -2.30489,-10.50216 -0.687398,-2.29565 -1.39572,-7.64566 -2.763156,-10.51853 -1.467494,-3.68907 -4.565934,-15.05454 -5.239434,-21.144 -1.0329,-9.3389 -2.8724,-16.36119 -6.37727,-24.34525 -6.214124,-14.15568 -6.375824,-14.86824 -9.511144,-41.9125 -0.84536,-7.29177 -2.22392,-14.90175 -3.06347,-16.91107 -0.83954,-2.00932 -1.28072,-4.42754 -0.98038,-5.37383 0.33412,-1.05272 -0.10053,-1.96864 -1.11985,-2.35978 -1.55112,-0.59523 -1.54967,-0.76773 0.021,-2.50333 2.39764,-2.64937 1.39433,-10.01331 -3.89585,-28.59425 -1.40932,-4.95 -3.01333,-11.925 -3.56446,-15.5 -1.03126,-6.68932 -2.63545,-13.93455 -5.97817,-27.00001 -2.12027,-8.28733 -4.88527,-26.13465 -4.63579,-29.92267 0.27735,-4.21107 -15.67424,-7.37247 -19.94914,-3.95366 -0.60978,0.48767 -1.64734,5.04684 -2.3057,10.1315 -0.65836,5.08466 -2.31828,13.96983 -3.68871,19.74483 -1.37044,5.775 -3.13465,13.2 -3.92047,16.5 -0.78581,3.30001 -1.87969,8.92501 -2.43083,12.50001 -0.55113,3.575 -2.15514,10.55 -3.56446,15.5 -3.43935,11.34129 -2.96485,25.10603 -4.9947,33.45736 0.30034,0.94629 -0.14084,3.36451 -0.98038,5.37383 -0.83955,2.00932 -2.21811,9.6193 -3.06347,16.91106 -3.13532,27.04427 -3.29702,27.75683 -9.51114,41.91251 -3.50487,7.98406 -5.34437,15.00635 -6.37727,24.34525 -0.6735,6.08946 -3.77194,17.3918 -5.74451,20.9546 -0.78819,1.42359 -0.7735,2.05748 0.0541,2.33333 1.75518,0.58506 1.34907,2.58537 -0.91919,4.52751 -1.42449,1.21969 -1.85209,2.4006 -1.39299,3.84709 0.39983,1.25976 0.15582,2.40028 -0.61554,2.87701 -0.76041,0.46996 -1.44458,3.55808 -1.68935,7.62515 -0.55787,9.26958 1.65125,8.72199 -39.24669,9.72829 -7.425,0.18269 -13.95,0.48961 -14.5,0.68205 -0.55,0.19244 -1.95334,-0.17989 -3.11852,-0.82738 -1.16519,-0.6475 -2.39986,-0.89593 -2.74373,-0.55206 -0.89446,0.89444 -6.63778,1.12371 -6.63778,0.26498 0,-0.9012 -4.41,-2.62376 -9,-3.51544 -1.925,-0.37396 -5.27202,-1.5271 -7.43783,-2.56252 -2.1658,-1.03543 -4.78166,-1.8826 -5.81301,-1.8826 -4.44289,0 -14.61727,-6.06632 -15.64786,-9.3298 -3.40301,-10.77604 -2.00171,-18.35801 4.57001,-24.72684 2.38078,-2.30727 4.32869,-4.58841 4.32869,-5.0692 0,-0.4808 0.87344,-0.87417 1.94099,-0.87417 1.06754,0 2.21909,-0.45 2.55901,-1 0.33992,-0.55 1.62648,-1 2.85902,-1 1.23254,0 2.67564,-0.43466 3.20689,-0.9659 0.53124,-0.53125 7.93375,-1.16924 16.45,-1.41777 20.86692,-0.60894 19.11927,0.90439 23.80856,-20.61633 1.23073,-5.6482 3.8426,-15.20113 5.66673,-20.72606 0.90443,-2.73934 1.04287,-4.44387 0.39351,-4.8452 -1.00944,-0.62387 -0.28923,-6.03301 1.05569,-7.92874 1.78703,-2.51892 3.06261,-9.9852 3.09504,-18.11603 0.0232,-5.80954 0.53001,-9.74914 1.46457,-11.38398 0.78602,-1.375 1.44507,-3.97702 1.46456,-5.78226 0.0195,-1.80524 1.34445,-6.75524 2.94436,-11 1.5999,-4.24476 3.21932,-9.96774 3.59869,-12.71774 0.37938,-2.75 1.11894,-5.80196 1.64346,-6.78213 0.52453,-0.98017 1.56483,-5.25517 2.31179,-9.5 0.74696,-4.24483 2.25902,-11.76787 3.36015,-16.71787 3.36902,-15.14506 5.02232,-24.65752 5.64865,-32.50001 0.32943,-4.125 1.24449,-10.425 2.03345,-14 5.07163,-22.98095 5.47087,-26.30953 5.51059,-45.9436 0.0216,-10.69397 0.52016,-23.74397 1.10781,-29 0.58765,-5.25602 1.17667,-11.13141 1.30892,-13.05641 0.13225,-1.925 0.5056,-4.4 0.82966,-5.5 0.32406,-1.1 0.8553,-11.9 1.18052,-24 0.32523,-12.10001 0.86673,-25.93751 1.20334,-30.75001 0.43182,-6.17366 0.2796,-8.774535 -0.51697,-8.833331 -5.24926,-0.387462 -8.11793,-0.03936 -9.61447,1.166666 -5.85442,4.717955 -8.07562,7.999705 -13.48023,19.916665 -1.12247,2.475 -3.17733,6.04827 -4.56636,7.9406 -1.38902,1.89233 -2.76387,4.59233 -3.05522,6 -0.66571,3.2164 -6.58893,16.05941 -7.40663,16.05941 -0.96471,0 -5.00607,8.85417 -5.00607,10.96773 0,1.05283 -0.45,2.19235 -1,2.53227 -0.55,0.33992 -1,1.29862 -1,2.13045 0,0.83182 -0.6615,2.1739 -1.46999,2.9824 -2.33583,2.33583 -8.76547,25.90786 -10.47068,38.38715 -0.63881,4.675 -1.56463,11.2 -2.05738,14.50001 -1.87911,12.58468 -3.23835,24.25202 -3.59461,30.85513 -0.20342,3.77031 -1.039,10.09464 -1.85684,14.05406 -0.81784,3.95941 -1.75941,9.8746 -2.09237,13.14487 -2.25716,22.16878 -7.64151,31.61119 -19.67133,34.49709 -10.04413,2.40955 -25.74232,-4.18959 -25.80212,-10.84659 -0.0142,-1.57704 -1.83951,-5.32834 -2.04589,-4.20456 -0.65047,3.54194 -0.92917,4.39038 -1.69313,5.15434 -5.27345,5.27345 -6.64363,-25.18748 -2.27851,-50.65434 3.40602,-19.87125 4.15535,-25.69797 5.01549,-39.00001 0.87689,-13.56108 3.16615,-26.33782 7.07736,-39.5 0.57202,-1.925 1.65976,-7.325 2.4172,-12 1.83669,-11.33635 2.61389,-14.30923 4.05214,-15.5 1.22039,-1.0104 2.9011,-5.79413 6.07736,-17.29778 0.95638,-3.46378 2.11112,-6.52784 2.56608,-6.80902 0.45497,-0.28118 0.82721,-1.20683 0.82721,-2.057 0,-0.85017 1.05274,-3.64171 2.33942,-6.20343 1.28668,-2.56173 3.36727,-7.80207 4.62354,-11.64523 1.25627,-3.84315 3.27156,-8.112548 4.47844,-9.487548 1.97895,-2.254634 4.14941,-5.278621 7.09298,-9.882271 6.4916,-10.152684 13.48852,-20.054707 16.19356,-22.917097 0.67537,-0.71465 1.57537,-1.845142 2,-2.512203 1.18211,-1.856976 13.50261,-12.688435 14.43276,-12.688435 1.34818,0 14.10818,-9.009688 17.33931,-12.243084 3.21329,-3.215538 18.27631,-9.716609 22.57186,-9.741823 2.41429,-0.01417 9.94588,-2.116199 14.42814,-4.026821 1.1,-0.468889 4.7,-1.526333 8,-2.349875 3.3,-0.823541 8.60608,-2.203206 11.79129,-3.065921 5.5699,-1.508609 22.64356,-2.348813 24.49373,-1.205348 0.49307,0.304733 4.90566,0.841427 9.80574,1.192652 4.90009,0.351225 11.38425,1.300694 14.40925,2.10993 3.025,0.809236 8.2,2.145146 11.5,2.968688 3.300004,0.823542 6.900004,1.880985 8.000004,2.349874 4.48226,1.910622 12.01385,4.01265 14.42814,4.026821 4.29555,0.02521 19.35857,6.526285 22.57186,9.741824 3.23113,3.233395 15.99113,12.243083 17.3393,12.243083 0.93016,0 13.25066,10.831459 14.43276,12.688436 0.42464,0.667061 1.32464,1.797552 2,2.512202 2.70504,2.86239 9.70197,12.764413 16.1935803,22.917098 2.94356,4.603649 5.11402,7.627637 7.09296998,9.88227 1.20688002,1.375 3.22218002,5.644398 4.47844002,9.487548 1.25627,3.84315 3.33686,9.0835 4.62354,11.64523 1.2866797,2.56172 2.3394197,5.35326 2.3394197,6.20343 0,0.85017 0.37224,1.77582 0.82721,2.057 0.45496,0.28118 1.6097,3.34524 2.56608,6.80902 3.17626,11.50365 4.85697,16.28738 6.07736,17.29778 1.43825,1.19077 2.21545,4.16365 4.05214,15.5 0.75744,4.675 1.84518,10.075 2.4172,12 3.91121,13.16218 6.20047,25.93892 7.07736,39.5 0.86014,13.30204 1.60947,19.12876 5.01549,39.00001 4.36512,25.46686 2.99494,55.92779 -2.27851,50.65434 -0.76396,-0.76396 -1.04266,-1.6124 -1.69313,-5.15434 -0.20638,-1.12378 -2.03172,2.62753 -2.04589,4.20456 -0.0598,6.657 -15.75798,13.25614 -25.8021197,10.84659 -12.02981,-2.8859 -17.41416,-12.3283 -19.6713203,-34.49709 -0.33297,-3.27027 -1.27454,-9.18546 -2.09238,-13.14487 -0.81784,-3.95942 -1.65342,-10.28375 -1.85684,-14.05406 -0.35626,-6.60311 -1.7155,-18.27045 -3.59462,-30.85513 -0.49274,-3.3 -1.41856,-9.82501 -2.05737,-14.50001 -1.70522,-12.47929 -8.13485,-36.05132 -10.47068,-38.38715 -0.80849,-0.8085 -1.46999,-2.15058 -1.46999,-2.9824 0,-0.83183 -0.45,-1.79053 -1,-2.13045 -0.55,-0.33992 -1,-1.47944 -1,-2.53227 0,-2.11356 -4.04137,-10.96773 -5.00607,-10.96773 -0.8177,0 -6.74092,-12.843 -7.40663,-16.05941 -0.29135,-1.40767 -1.6662,-4.10767 -3.05523,-6 -1.38902,-1.89233 -3.44388,-5.4656 -4.56635,-7.9406 -5.40461,-11.91696 -7.62581,-15.19871 -13.48023,-19.91666 -1.49654,-1.206033 -4.36521,-1.554133 -9.61447,-1.16667 -0.79657,0.0588 -0.94879,2.65967 -0.51697,8.83333 0.33661,4.8125 0.87811,18.65 1.20334,30.75001 0.32522,12.1 0.85646,22.9 1.18052,24 0.32406,1.1 0.69741,3.575 0.82966,5.5 0.13225,1.925 0.72127,7.80039 1.30892,13.05641 0.58765,5.25603 1.08617,18.30603 1.10781,29 0.0397,19.63407 0.43896,22.96265 5.51059,45.9436 0.78896,3.575 1.70402,9.875 2.03345,14 0.62633,7.84249 2.27963,17.35495 5.64865,32.50001 1.10113,4.95 2.61319,12.47304 3.36015,16.71787 0.74695,4.24483 1.78726,8.51983 2.31178,9.5 0.52453,0.98017 1.26409,4.03213 1.64346,6.78213 0.37938,2.75 1.99879,8.47298 3.5987,12.71774 1.59991,4.24476 2.92487,9.19476 2.94436,11 0.0195,1.80524 0.67854,4.40726 1.46456,5.78226 0.93456,1.63484 1.44139,5.57444 1.46456,11.38398 0.0324,8.13083 1.30802,15.59711 3.09505,18.11603 1.34492,1.89573 2.06513,7.30487 1.05569,7.92874 -0.64936,0.40133 -0.51093,2.10586 0.3935,4.8452 1.82413,5.52493 4.43601,15.07786 5.66673,20.72606 4.6893,21.52072 2.94165,20.00739 23.8085803,20.61633 8.51624998,0.24853 15.91875,0.88652 16.45,1.41777 0.53124,0.53124 1.97434,0.9659 3.2068797,0.9659 1.23254,0 2.5191,0.45 2.85902,1 0.33992,0.55 1.49148,1 2.55902,1 1.06754,0 1.94098,0.39337 1.94098,0.87417 0,0.48079 1.94791,2.76193 4.32869,5.0692 6.57172,6.36884 7.97302,13.9508 4.57001,24.72684 -1.03059,3.26348 -11.20496,9.3298 -15.64786,9.3298 -1.03135,0 -3.6471997,0.84717 -5.8130097,1.8826 -2.16581,1.03542 -5.51283002,2.18856 -7.43783,2.56252 -4.58999,0.89168 -9.0000003,2.61424 -9.0000003,3.51544 0,0.88029 -5.75421,0.61857 -6.67646,-0.30368 -0.36514,-0.36514 -1.66074,-0.0107 -2.87911,0.78756 -1.21836,0.79831 -2.49977,1.1669 -2.84757,0.8191 z m 3.81742,-7.14 c 0.59714,-0.46677 3.46585,-1.1164 6.3749,-1.44363 3.22253,-0.36249 8.4449603,-2.17448 13.36579028,-4.63744 4.44214002,-2.22336 9.32307002,-4.04247 10.84651972,-4.04247 11.82116,0 12.86854,-17.56676 1.27755,-21.42724 -1.77153,-0.59003 -4.1119797,-1.83699 -5.2010097,-2.77103 -3.00161,-2.57445 -8.69803,-3.64684 -17.8630703,-3.36284 -4.55677,0.1412 -8.52186,-0.12644 -8.81129,-0.59476 -0.28944,-0.46831 -1.58468,-0.58583 -2.87831,-0.26115 -1.62032,0.40667 -3.00123,-0.0589 -4.43871,-1.49633 -1.16241,-1.16241 -3.37958,-2.08666 -5.00568,-2.08666 -3.21404,0 -3.1808,0.0832 -6.79265,-17 -1.53499,-7.26014 -6.04468,-21.35028 -8.80388,-27.50693 -0.84406,-1.88337 -1.22684,-5.61994 -1.02442,-10 0.18044,-3.90429 -0.13998,-7.56357 -0.72542,-8.2847 -0.57673,-0.7104 -1.38324,-6.1104 -1.79223,-12.00001 -0.40899,-5.88961 -1.46334,-12.91739 -2.343,-15.6173 -0.87966,-2.69991 -1.59938,-6.41241 -1.59938,-8.25 0,-1.83759 -0.41254,-3.34107 -0.91677,-3.34107 -1.11234,0 -4.80208,-11.77059 -5.64248,-18 -0.54126,-4.01206 -2.97788,-14.10156 -5.43376,-22.5 -0.4825,-1.65 -1.61322,-7.05 -2.51272,-12.00001 -0.89949,-4.95 -2.03312,-9.74848 -2.51917,-10.66328 -0.48605,-0.9148 -1.37984,-7.42428 -1.98619,-14.46551 -0.60635,-7.04123 -1.53431,-14.84275 -2.06213,-17.33672 -0.52781,-2.49397 -1.13161,-6.55949 -1.34177,-9.03449 -1.61528,-19.02254 -2.51624,-34.55649 -2.69698,-46.50001 -0.11652,-7.7 -0.79951,-18.5 -1.51775,-24 -0.71825,-5.5 -1.57461,-17.62776 -1.90304,-26.95058 -0.32842,-9.32282 -0.77051,-17.23111 -0.98241,-17.57397 -0.2119,-0.34286 -0.49948,-8.47553 -0.63906,-18.0726 l -0.25379,-17.449209 3.71344,-5.594546 c 4.10974,-6.191587 8.53268,-7.061519 14.64203,-2.879891 1.4039,0.960923 4.91505,3.205616 7.80255,4.988206 2.8875,1.78259 5.25,3.849931 5.25,4.594091 0,1.940959 8.04606,19.559639 10.01882,21.938489 0.91222,1.1 3.13857,5.6 4.94745,10 1.80888,4.4 4.16024,9.57501 5.22525,11.50001 9.05739,16.37118 16.55033,36.91664 18.7821,51.5 0.42084,2.75 1.69478,10.625 2.83096,17.5 1.13619,6.875 2.7900103,18.80001 3.6751703,26.50001 0.88515,7.7 2.28969,18.5 3.1212,24 0.83151,5.5 2.16347,14.33605 2.95991,19.63567 3.25684998,21.67144 13.9093797,30.62232 27.8586297,23.40845 2.70571,-1.39926 5.51821,-2.54411 6.25,-2.54411 0.73179,0 1.33052,-0.9 1.33052,-2.00001 0,-1.1 0.62776,-2 1.39501,-2 1.06033,0 1.31166,-1.25957 1.04759,-5.25 -0.19108,-2.8875 -0.58946,-10.42616 -0.88529,-16.75257 -0.29582,-6.32641 -1.21403,-14.09854 -2.04045,-17.2714 -0.82643,-3.17286 -1.40729,-6.0967 -1.2908,-6.49743 0.11648,-0.40073 -0.3192,-3.4286 -0.96818,-6.7286 -2.41356,-12.27271 -3.27124,-19.27214 -3.61483,-29.50001 -0.27724,-8.25298 -1.32746,-14.45904 -4.90753,-29 -4.23339,-17.19448 -5.40357,-23.27302 -6.1726,-32.0639 -0.29207,-3.33866 -4.90065,-14.82793 -6.3786597,-15.90212 -0.64588,-0.46941 -3.82086,-9.89302 -5.73906,-17.03399 -0.59692,-2.22217 -1.77797,-4.79672 -7.03295,-15.33104 -0.77674,-1.55707 -1.41225,-3.27599 -1.41225,-3.81982 0,-1.16827 -5.5718903,-9.421024 -8.0000003,-11.849139 -2.23984,-2.239841 -7.0082,-9.51687 -9.50001,-14.498041 -2.84673,-5.690664 -18.03359,-20.740359 -24,-23.783233 -2.75,-1.402501 -7.475,-4.831025 -10.5,-7.61894 -3.025,-2.787914 -6.00026,-5.075879 -6.61168,-5.084364 -0.61143,-0.0085 -4.16913,-1.401738 -7.906,-3.096116 -3.73687,-1.694379 -9.53661,-3.505545 -12.88832,-4.024813 -3.3517,-0.519269 -7.219,-1.353901 -8.594,-1.854738 -12.399574,-4.516483 -25.906834,-7.925592 -35.500004,-8.959875 -3.85,-0.415086 -8.15833,-1.236631 -9.57408,-1.825655 -3.12165,-1.298778 -15.85548,-0.890525 -18.51288,0.593532 -1.05218,0.587598 -6.63805,2.46629 -12.41305,4.174872 -5.775,1.708583 -11.625,3.516289 -13,4.017126 -1.375,0.500837 -5.2423,1.335469 -8.594,1.854738 -3.35171,0.519268 -9.15145,2.330433 -12.88832,4.024813 -3.73687,1.694378 -7.29457,3.08763 -7.906,3.096116 -0.61142,0.0085 -3.58668,2.296449 -6.61168,5.084364 -3.025,2.787915 -7.75,6.216438 -10.5,7.61894 -5.96641,3.042874 -21.15328,18.092569 -24,23.783232 -2.49181,4.981172 -7.26016,12.258201 -9.50001,14.498042 -2.42811,2.428114 -8,10.680869 -8,11.849139 0,0.54383 -0.63551,2.26275 -1.41224,3.81982 -5.25499,10.53432 -6.43604,13.10887 -7.03295,15.33104 -1.9182,7.14097 -5.09319,16.56457 -5.73907,17.03399 -1.47801,1.07419 -6.08659,12.56346 -6.37866,15.90212 -0.76903,8.79088 -1.93921,14.86942 -6.17259,32.0639 -3.58008,14.54096 -4.6303,20.74702 -4.90754,29 -0.34358,10.22787 -1.20127,17.2273 -3.61483,29.50001 -0.64898,3.3 -1.08466,6.32787 -0.96818,6.7286 0.11649,0.40073 -0.46437,3.32457 -1.2908,6.49743 -0.82642,3.17286 -1.74463,10.94499 -2.04045,17.2714 -0.29583,6.32641 -0.69421,13.86507 -0.88529,16.75257 -0.26407,3.99043 -0.0127,5.25 1.04759,5.25 0.76725,0 1.39501,0.9 1.39501,2 0,1.1 0.59874,2 1.33052,2 0.73179,0 3.54429,1.14486 6.25,2.54412 13.94926,7.21387 24.60178,-1.73702 27.85863,-23.40845 0.79644,-5.29962 2.1284,-14.13567 2.95991,-19.63567 0.83152,-5.5 2.23606,-16.3 3.12121,-24 0.88515,-7.7 2.53897,-19.62501 3.67516,-26.50001 1.13619,-6.875 2.41012,-14.75 2.83097,-17.5 2.23175,-14.58336 9.7247,-35.12882 18.78209,-51.5 1.06501,-1.925 3.41637,-7.10001 5.22525,-11.50001 1.80888,-4.4 4.03523,-8.9 4.94745,-10 1.97276,-2.37885 10.01882,-19.997529 10.01882,-21.938489 0,-0.74416 2.3625,-2.811501 5.25,-4.594091 2.8875,-1.782591 6.39865,-4.027283 7.80255,-4.988206 6.10935,-4.181629 10.53229,-3.311696 14.64203,2.87989 l 3.71344,5.594547 -0.25379,17.449209 c -0.13958,9.59707 -0.42716,17.72974 -0.63906,18.0726 -0.2119,0.34286 -0.65399,8.25115 -0.98241,17.57397 -0.32843,9.32282 -1.18479,21.45058 -1.90304,26.95058 -0.71824,5.5 -1.40123,16.3 -1.51775,24 -0.18074,11.94352 -1.0817,27.47747 -2.69698,46.50001 -0.21016,2.475 -0.81396,6.54052 -1.34177,9.03449 -0.52782,2.49397 -1.45578,10.29549 -2.06213,17.33672 -0.60635,7.04123 -1.50014,13.55071 -1.98619,14.46551 -0.48605,0.9148 -1.61968,5.71328 -2.51917,10.66328 -0.8995,4.95001 -2.03022,10.35001 -2.51272,12.00001 -2.45588,8.39844 -4.8925,18.48794 -5.43376,22.5 -0.8404,6.22941 -4.53014,18 -5.64249,18 -0.50422,0 -0.91676,1.50348 -0.91676,3.34107 0,1.83759 -0.71972,5.55009 -1.59938,8.25 -0.87966,2.69991 -1.93401,9.72769 -2.343,15.6173 -0.409,5.8896 -1.2155,11.28961 -1.79223,12.00001 -0.58545,0.72113 -0.90586,4.38041 -0.72543,8.2847 0.20243,4.38006 -0.18035,8.11663 -1.02442,10 -2.75919,6.15665 -7.26889,20.24679 -8.80387,27.50693 -3.61185,17.08317 -3.57862,17 -6.79266,17 -1.62609,0 -3.84326,0.92425 -5.00567,2.08666 -1.43749,1.43748 -2.8184,1.903 -4.43872,1.49633 -1.29363,-0.32468 -2.58886,-0.20716 -2.8783,0.26115 -0.28943,0.46832 -4.25451,0.73596 -8.81129,0.59476 -9.16503,-0.284 -14.86146,0.78839 -17.86307,3.36284 -1.08902,0.93404 -3.42948,2.181 -5.20101,2.77103 -11.59099,3.86048 -10.54361,21.42724 1.27755,21.42724 1.52345,0 6.40438,1.81911 10.84652,4.04247 4.92083,2.46296 10.14326,4.27495 13.3658,4.63744 2.90904,0.32723 5.77775,0.97686 6.37489,1.44363 1.35337,1.05788 15.41429,1.83565 15.41429,0.85264 0,-0.3952 4.6125,-1.01453 10.25,-1.3763 17.31522,-1.11114 20.28023,-1.63255 23.10982,-4.06394 3.12863,-2.68835 3.70615,-9.32711 1.04305,-11.99021 -1.7975,-1.7975 -1.2129,-4.54573 0.96697,-4.54573 3.52271,0 9.19119,-15.91695 10.14967,-28.50001 0.16757,-2.2 1.00399,-6.475 1.8587,-9.5 0.85471,-3.025 2.4592,-9.1 3.56553,-13.5 1.10634,-4.4 2.96302,-10.69426 4.12597,-13.98724 1.16295,-3.29298 2.31523,-8.79112 2.56061,-12.2181 0.24538,-3.42697 1.09907,-8.38271 1.89709,-11.01276 0.79802,-2.63005 1.45581,-6.27014 1.46177,-8.08909 0.006,-1.81895 0.51779,-5.32056 1.13743,-7.78136 0.65876,-6.77836 0.7262,-10.05101 1.24748,-15.93732 0.35603,-3.02926 1.31096,-7.41268 2.12207,-9.74094 0.8111,-2.32826 1.48128,-5.84638 1.48929,-7.81804 0.008,-1.97167 0.85119,-6.24667 1.87376,-9.5 1.02256,-3.25334 2.34781,-8.39016 2.945,-11.41516 3.64347,-18.45572 6.66783,-30.04819 8.07084,-30.93585 0.49043,-0.31029 0.77077,-2.36416 0.62299,-4.56416 -0.14779,-2.2 0.54992,-6.475 1.55048,-9.5 1.00055,-3.025 1.84895,-7.21219 1.88533,-9.30486 0.19196,-11.0414 6.6311,-17.20011 17.63704,-16.86893 14.2583,0.42903 17.94778,3.6362 19.40083,16.8646 0.53219,4.84506 1.61453,10.60919 2.40519,12.80919 0.79066,2.2 1.30679,5.8 1.14696,8 -0.15983,2.2 0.11066,4.25387 0.60109,4.56416 1.40301,0.88766 4.42737,12.48013 8.07084,30.93585 0.59719,3.025 1.92244,8.16182 2.945,11.41516 1.02257,3.25333 1.86576,7.52833 1.87376,9.5 0.008,1.97166 0.67819,5.48978 1.48929,7.81804 0.811114,2.32826 1.766044,6.71168 2.122074,9.74094 0.35603,3.02925 1.2722,6.02633 2.03593,6.66018 1.17548,0.97556 1.13508,1.4326 -0.26322,2.97771 -1.40691,1.55461 -1.48479,2.48868 -0.52523,6.29943 0.61964,2.4608 1.13148,5.96241 1.13743,7.78136 0.006,1.81895 0.66375,5.45905 1.46177,8.08909 0.79802,2.63005 1.65171,7.58579 1.89709,11.01276 0.24538,3.42698 1.39766,8.92512 2.56061,12.2181 1.16295,3.29298 3.01963,9.58724 4.12597,13.98724 1.10633,4.4 2.71082,10.475 3.56553,13.5 0.85471,3.025 1.69113,7.3 1.8587,9.5 4.184764,11.94976 6.775197,37.78648 12.15969,45.03595 2.82959,2.43139 5.7946,2.9528 23.10982,4.06394 5.6375,0.36177 10.25,0.9811 10.25,1.3763 0,0.98301 14.06092,0.20524 15.41429,-0.85264 z"
       id="path5530"
       inkscape:connector-curvature="0"
       sodipodi:nodetypes="sscccssssscssssssssssccssssscsssssssssssssssssscssssssssssssssssssssssssssssssssssssscsssssssssssssssssssssssssssssssssssssssssssssssssssssssssssssssssssssssssssssssssssssssssssssssscsssssssscscssssssssssssssssssssscssssssssssssssssssscsssssssssssscsssssssssscsssssssssssscssssssssssssssssssscssssssssssssssssssssssscsssssssssssssssssscccssssssssssssssssssssscsssssccsss" />
  </g>
</svg>
