<?xml version="1.0" encoding="UTF-8" standalone="no"?>
<!-- Created with Inkscape (http://www.inkscape.org/) -->

<svg
   xmlns:dc="http://purl.org/dc/elements/1.1/"
   xmlns:cc="http://creativecommons.org/ns#"
   xmlns:rdf="http://www.w3.org/1999/02/22-rdf-syntax-ns#"
   xmlns:svg="http://www.w3.org/2000/svg"
   xmlns="http://www.w3.org/2000/svg"
   xmlns:sodipodi="http://sodipodi.sourceforge.net/DTD/sodipodi-0.dtd"
   xmlns:inkscape="http://www.inkscape.org/namespaces/inkscape"
   width="69.567421mm"
   height="76.762276mm"
   viewBox="0 0 246.49876 271.99232"
   id="svg4723"
   version="1.1"
   inkscape:version="0.91 r13725"
   sodipodi:docname="0.svg">
  <defs
     id="defs4725" />
  <sodipodi:namedview
     id="base"
     pagecolor="#ffffff"
     bordercolor="#666666"
     borderopacity="1.0"
     inkscape:pageopacity="0.0"
     inkscape:pageshadow="2"
     inkscape:zoom="1.979899"
     inkscape:cx="-22.575951"
     inkscape:cy="97.213263"
     inkscape:document-units="px"
     inkscape:current-layer="layer1"
     showgrid="false"
     fit-margin-top="0"
     fit-margin-left="0"
     fit-margin-right="0"
     fit-margin-bottom="0"
     inkscape:window-width="1920"
     inkscape:window-height="1003"
     inkscape:window-x="-9"
     inkscape:window-y="-9"
     inkscape:window-maximized="1" />
  <metadata
     id="metadata4728">
    <rdf:RDF>
      <cc:Work
         rdf:about="">
        <dc:format>image/svg+xml</dc:format>
        <dc:type
           rdf:resource="http://purl.org/dc/dcmitype/StillImage" />
        <dc:title></dc:title>
      </cc:Work>
    </rdf:RDF>
  </metadata>
  <g
     inkscape:label="Ebene 1"
     inkscape:groupmode="layer"
     id="layer1"
     transform="translate(329.34496,-192.23434)">
    <path
       style="fill:#000000"
       d="m -260.91953,463.91727 c -0.96218,-0.29282 -2.65939,-0.5638 -3.77156,-0.60217 -2.22883,-0.0769 -3.86923,-1.73823 -3.9036,-3.95344 -0.0337,-2.17491 1.30448,-3.20215 2.99378,-2.29807 2.31206,1.23738 10.33368,0.81769 14.30729,-0.74856 3.2814,-1.29341 9.01248,-2.58263 19.06444,-4.28862 4.23656,-0.719 19.16432,-2.25495 21.275,-2.18902 0.73244,0.0228 2.62181,-0.60129 4.1986,-1.38704 3.91894,-1.95292 10.16481,-2.6635 26.95384,-3.06652 21.88719,-0.52541 23.09352,-0.98758 26.28055,-10.06865 0.59616,-1.69869 1.35783,-3.4306 1.69259,-3.84871 0.71304,-0.89053 2.17399,-7.10399 2.729,-11.60654 1.59094,-12.90641 -4.52215,-31.89359 -7.82901,-24.31681 -1.08,2.4745 -5.08857,6.85109 -8.81271,9.62176 -1.2933,0.96217 -3.16297,2.54796 -4.15482,3.52396 -3.01432,2.96616 -12.90616,8.37204 -15.31938,8.37204 -1.20822,0 -4.32949,0.80803 -6.93614,1.79562 -3.58754,1.35923 -5.50471,1.69998 -7.88833,1.40207 -4.53934,-0.56733 -4.76013,-0.56184 -10.1466,0.25271 -11.31469,1.71101 -13.29736,2.11063 -15.34359,3.09253 -1.18279,0.56757 -3.49333,1.42629 -5.13454,1.90829 -1.64121,0.48198 -3.33778,1.3026 -3.77017,1.82359 -0.9197,1.10817 -4.32528,2.70744 -7.06617,3.31828 -1.0584,0.23588 -1.92435,0.73777 -1.92435,1.11531 0,0.37754 -1.21259,0.68643 -2.69464,0.68643 -5.74431,0 -12.66795,4.48114 -15.55535,10.0678 -0.81806,1.58282 -2.23599,4.13742 -3.15094,5.6769 -2.04321,3.43785 -2.74095,4.84568 -4.10063,8.27388 -1.02919,2.59492 -2.89506,3.10195 -4.67073,1.26924 -0.81646,-0.84268 -1.27104,-4.94054 -0.59445,-5.35869 0.37227,-0.23008 0.67684,-1.32583 0.67684,-2.43501 0,-1.10918 0.33637,-2.22458 0.74748,-2.47867 0.4111,-0.25407 0.58193,-0.89333 0.37961,-1.42057 -0.20231,-0.52723 0.10422,-1.43069 0.68119,-2.00767 0.57699,-0.57697 1.40549,-2.08183 1.84112,-3.34412 0.96828,-2.80569 4.07923,-6.84351 5.27261,-6.84354 0.48109,-10e-6 0.87515,-0.23619 0.87567,-0.52485 0.002,-1.18016 5.40526,-6.31433 7.5215,-7.14714 1.25084,-0.49225 2.27424,-1.09503 2.27424,-1.3395 0,-0.24446 1.32377,-0.85764 2.94171,-1.3626 1.61794,-0.50495 3.36772,-1.52629 3.88839,-2.26967 0.52066,-0.74335 1.37809,-1.35157 1.90539,-1.35157 0.99031,0 3.16052,-3.68411 3.16052,-5.36523 0,-0.5234 0.27815,-1.49842 0.61812,-2.16672 0.33996,-0.66832 1.03999,-2.15978 1.55561,-3.31439 2.89577,-6.48436 10.09462,-14.8468 15.43088,-17.92504 3.02026,-1.74224 3.19255,-2.01197 3.57601,-5.59812 0.48911,-4.57422 2.82846,-10.11627 5.31937,-12.60188 1.01226,-1.01012 2.84453,-2.94935 4.07169,-4.30941 3.90403,-4.32678 11.63384,-10.0534 14.22602,-10.53932 1.35405,-0.25384 3.55832,-1.0424 4.89835,-1.75237 1.34003,-0.70997 3.22366,-1.48427 4.18583,-1.72068 4.5686,-1.12248 16.78322,-11.07251 17.841,-14.53325 0.65851,-2.15448 2.39241,-4.14535 3.61029,-4.14535 3.48783,0 -0.7712,-2.16413 -4.89301,-2.48626 -4.60118,-0.35961 -5.2778,-5.63338 -0.69722,-5.43436 10.38591,0.45124 24.04188,21.28355 17.50697,26.70704 -0.83968,0.69688 -0.945,1.33094 -0.44115,2.65616 0.92138,2.42338 0.8697,2.68822 -0.95966,4.91985 -0.89182,1.08792 -2.06101,3.08017 -2.59819,4.42723 -1.12498,2.82096 -2.40687,4.25867 -4.87726,5.47002 -0.96217,0.4718 -2.8145,1.63502 -4.11627,2.58493 -1.30177,0.94991 -3.40808,2.0146 -4.68067,2.36599 -1.27261,0.35138 -3.35647,1.39969 -4.6308,2.32956 -1.27433,0.92989 -3.57655,2.18967 -5.11603,2.79952 -1.53948,0.60986 -4.37352,1.74191 -6.29788,2.51565 -1.92436,0.77374 -4.7584,1.63614 -6.29788,1.91644 -1.53948,0.28029 -3.42019,0.93729 -4.17936,1.45999 -0.75914,0.5227 -1.95521,0.95036 -2.65791,0.95036 -0.70269,0 -2.58114,0.62979 -4.17433,1.39953 -1.59317,0.76974 -3.28373,1.39953 -3.75678,1.39953 -1.57888,0 -12.64879,6.25386 -16.41216,9.27193 -0.59986,0.48106 -2.17433,2.29168 -3.49882,4.0236 -1.3245,1.73192 -2.65548,3.25761 -2.95772,3.39044 -0.52475,0.23059 -5.39846,9.47296 -5.39846,10.23751 0,0.74276 2.92674,0.33726 4.88877,-0.67735 1.11112,-0.57458 2.48409,-0.86669 3.05104,-0.64913 0.56696,0.21755 2.01807,-0.11497 3.22472,-0.73895 2.40417,-1.24325 11.42727,-2.62202 23.12395,-3.53344 2.11679,-0.16494 4.79339,-0.39921 5.948,-0.52058 3.3069,-0.34764 8.15971,-1.83635 11.01835,-3.38013 1.44164,-0.77856 2.92568,-1.22736 3.29785,-0.99733 0.9656,0.59676 5.40828,-2.36891 11.47526,-7.66019 2.88057,-2.51229 5.56001,-4.56779 5.95432,-4.56779 0.39431,0 1.12771,-0.7338 1.6298,-1.63067 0.5021,-0.89686 2.40865,-3.86477 4.23678,-6.59535 1.82814,-2.73058 3.32388,-5.15198 3.32388,-5.38089 0,-1.75416 3.76227,-6.08084 5.00502,-5.75585 1.66469,0.43532 1.30473,-7.74539 -0.59034,-13.41639 -1.34764,-4.03284 0.98106,-7.46647 2.92766,-4.31679 3.04136,4.92104 3.98924,22.38549 1.21645,22.41283 -0.79357,0.008 -1.78105,1.32827 -2.86362,3.82926 l -1.65235,3.81732 1.86597,3.18405 c 1.02629,1.75123 3.10816,4.00608 4.62637,5.01078 2.53729,1.6791 3.52326,3.02471 2.23555,3.051 -2.14555,0.0439 -2.3182,1.24787 -0.90842,6.33523 2.14964,7.75724 1.33049,15.96596 -2.8246,28.30541 -1.99795,5.93336 -2.06073,6.4349 -1.04949,8.3841 1.03636,1.99754 1.00597,2.13027 -0.83218,3.63603 -3.62084,2.96612 -19.87563,6.26839 -25.59525,5.19985 -1.7676,-0.33022 -4.08869,-0.43823 -5.158,-0.24003 -1.0693,0.19821 -4.09746,0.2978 -6.72925,0.22132 -2.63178,-0.0765 -5.15093,0.1475 -5.59812,0.49776 -0.74651,0.58471 -4.07933,0.99552 -7.98564,0.98431 -0.86595,-0.003 -1.57447,0.22666 -1.57447,0.50922 0,1.19718 -8.06771,2.73172 -16.79436,3.19442 -5.37169,0.28482 -11.15795,1.05172 -13.67946,1.81306 -1.17333,0.35428 -3.37759,0.75921 -4.89835,0.89985 -4.04034,0.37366 -7.77731,1.11033 -12.9116,2.54531 -6.04595,1.68976 -8.39717,1.9931 -10.49647,1.35419 z m 8.72989,-37.45423 c 1.14517,-0.59713 2.6772,-0.93008 3.40452,-0.73989 0.72731,0.1902 1.83716,0.0739 2.46634,-0.25844 0.62917,-0.33234 1.69502,-0.77481 2.36854,-0.98326 2.32448,-0.7194 1.25039,-1.73846 -1.39953,-1.32784 -2.4786,0.38409 -11.1158,4.30311 -9.62176,4.36577 0.38487,0.0162 1.63672,-0.45921 2.78189,-1.05634 z m 40.87853,-41.96993 c 2.02722,-0.97797 4.68404,-1.96102 5.90402,-2.18456 1.21998,-0.22354 2.8773,-0.81533 3.68292,-1.31507 0.80563,-0.49976 3.32479,-1.24807 5.59813,-1.66293 8.27688,-1.51042 31.77406,-14.55179 31.77406,-17.63519 0,-0.63371 0.62978,-1.31689 1.39952,-1.51818 0.76974,-0.2013 1.39953,-0.86781 1.39953,-1.48114 0,-0.61334 0.29367,-1.11517 0.65261,-1.11517 0.35893,0 0.85667,-0.64295 1.10608,-1.42877 0.3244,-1.02208 0.83598,-1.30737 1.79726,-1.00227 1.19875,0.38047 1.26818,0.22765 0.64333,-1.41584 -0.38525,-1.01329 -0.70045,-3.17722 -0.70045,-4.80873 0,-2.07165 -0.61257,-3.93229 -2.03089,-6.16875 -2.3277,-3.67039 -3.9839,-5.08493 -3.25137,-2.77693 0.7249,2.28397 -7.20675,14.10247 -9.46446,14.10247 -0.34787,0 -2.44665,1.37094 -4.66395,3.04652 -5.68278,4.29442 -5.96302,4.42218 -17.15205,7.8194 -2.21301,0.67192 -4.02364,1.47224 -4.02364,1.77849 0,0.30625 -0.55107,0.74092 -1.22459,0.96591 -0.67353,0.22501 -2.37302,1.42709 -3.77665,2.67128 -1.40362,1.24419 -3.13555,2.76209 -3.8487,3.37309 -3.37431,2.89099 -7.94443,9.35267 -7.94443,11.23262 0,1.61387 -0.27464,1.64558 4.12372,-0.47625 z m 15.4697,26.26989 c 0,-0.38487 0.33349,-0.69976 0.74107,-0.69976 0.40758,0 0.54644,0.31489 0.30858,0.69976 -0.23786,0.38486 -0.57134,0.69976 -0.74106,0.69976 -0.16973,0 -0.30859,-0.3149 -0.30859,-0.69976 z m 14.69506,-5.51764 c 0,-0.64046 3.0684,-2.87954 3.94606,-2.87954 0.27307,0 -0.24308,0.78724 -1.147,1.74941 -1.67783,1.78597 -2.79906,2.23867 -2.79906,1.13013 z m 9.1044,-9.66095 c 0.004,-0.31136 1.10622,-1.63375 2.44918,-2.93863 1.53305,-1.4896 2.44172,-1.99071 2.44172,-1.34657 0,0.56427 -0.70851,1.66378 -1.57447,2.44336 -2.04277,1.83898 -3.32577,2.55152 -3.31643,1.84184 z m -45.09231,-46.80058 c -1.2076,-1.20761 -1.46015,-3.83869 -0.46873,-4.88336 0.6943,-0.73158 2.75102,-9.93367 2.96382,-13.26054 0.16427,-2.56825 -1.48067,-6.64776 -2.68051,-6.64776 -0.48304,0 -1.34112,-0.86596 -1.90683,-1.92435 -0.56572,-1.0584 -2.06955,-3.0386 -3.34185,-4.40046 -4.16074,-4.45356 -4.61991,-8.62677 -2.69178,-24.46484 0.30456,-2.50167 0.3134,-4.86337 0.0197,-5.24824 -2.30327,-3.01773 0.0727,-16.45053 3.00968,-17.01616 1.5187,-0.29248 1.5745,1.85657 0.18653,7.18531 -0.84885,3.25897 -0.86571,4.47314 -0.10492,7.55661 0.49855,2.02058 0.84086,4.93334 0.76071,6.47283 -0.24145,4.63715 -0.54224,18.08984 -0.43985,19.67213 0.0976,1.50888 2.1822,4.52566 6.8965,9.98059 4.562,5.27868 4.72007,5.83899 3.8741,13.73269 -1.3692,12.77605 -2.99723,16.32483 -6.0765,13.24555 z m 74.00626,-9.80406 c -0.23363,-0.60884 0.0284,-6.00895 0.58236,-12.00025 1.02242,-11.05847 0.28893,-16.28288 -2.28606,-16.28288 -0.34466,0 -0.62664,-0.43865 -0.62664,-0.97478 0,-0.53613 -0.47235,-1.15604 -1.04965,-1.37757 -1.48233,-0.56883 -1.44892,-16.18054 0.0504,-23.58038 0.80103,-3.95321 0.91503,-6.09969 0.41933,-7.895 -0.98248,-3.55821 -0.0359,-4.23945 2.5472,-1.83301 1.74599,1.62664 1.98888,5.18019 0.83514,12.21861 -1.60256,9.7764 -1.06395,18.16253 1.38556,21.57342 3.65582,5.09063 4.62347,15.03858 2.45743,25.26344 -1.1638,5.49366 -3.1984,7.79858 -4.31514,4.8884 z m -37.18924,-21.8103 c -0.43694,-1.44328 -0.894,-5.14328 -1.01568,-8.22224 -0.21282,-5.3852 -0.34431,-5.77161 -3.45699,-10.15951 -6.74918,-9.51419 -7.38432,-15.37745 -3.17915,-29.34816 1.44327,-4.79491 2.62413,-9.75449 2.62413,-11.0213 0,-2.5854 1.23905,-3.03769 2.95506,-1.07869 1.39772,1.59564 -0.46637,14.8304 -2.81713,20.00131 -2.83847,6.24368 -0.67523,18.66071 3.25099,18.66071 2.77622,0 6.3282,15.40289 5.12344,22.21751 -0.45587,2.57871 -2.57992,1.93891 -3.48467,-1.04963 z"
       id="path5413"
       inkscape:connector-curvature="0"
       sodipodi:nodetypes="cscssscssscssssssssscsssssssscscscsscsssssscssssscssssssssscsscsssscssssscsscsssscsscssssscscsscsscsscsscssssscscssscssscsscsssssssssssscssssssssssssscsssccsssssscsssscsscccsssscscsssccssssssssss" />
  </g>
</svg>
