<?xml version="1.0" encoding="UTF-8" standalone="no"?>
<!-- Created with Inkscape (http://www.inkscape.org/) -->

<svg
   xmlns:dc="http://purl.org/dc/elements/1.1/"
   xmlns:cc="http://creativecommons.org/ns#"
   xmlns:rdf="http://www.w3.org/1999/02/22-rdf-syntax-ns#"
   xmlns:svg="http://www.w3.org/2000/svg"
   xmlns="http://www.w3.org/2000/svg"
   xmlns:sodipodi="http://sodipodi.sourceforge.net/DTD/sodipodi-0.dtd"
   xmlns:inkscape="http://www.inkscape.org/namespaces/inkscape"
   width="69.567421mm"
   height="76.762276mm"
   viewBox="0 0 246.49876 271.99232"
   id="svg4723"
   version="1.1"
   inkscape:version="0.91 r13725"
   sodipodi:docname="1.svg">
  <defs
     id="defs4725" />
  <sodipodi:namedview
     id="base"
     pagecolor="#ffffff"
     bordercolor="#666666"
     borderopacity="1.0"
     inkscape:pageopacity="0.0"
     inkscape:pageshadow="2"
     inkscape:zoom="1.979899"
     inkscape:cx="-22.575951"
     inkscape:cy="97.213263"
     inkscape:document-units="px"
     inkscape:current-layer="layer1"
     showgrid="false"
     fit-margin-top="0"
     fit-margin-left="0"
     fit-margin-right="0"
     fit-margin-bottom="0"
     inkscape:window-width="1920"
     inkscape:window-height="1003"
     inkscape:window-x="-9"
     inkscape:window-y="-9"
     inkscape:window-maximized="1" />
  <metadata
     id="metadata4728">
    <rdf:RDF>
      <cc:Work
         rdf:about="">
        <dc:format>image/svg+xml</dc:format>
        <dc:type
           rdf:resource="http://purl.org/dc/dcmitype/StillImage" />
        <dc:title></dc:title>
      </cc:Work>
    </rdf:RDF>
  </metadata>
  <g
     inkscape:label="Ebene 1"
     inkscape:groupmode="layer"
     id="layer1"
     transform="translate(329.34496,-192.23434)">
    <path
       style="fill:#000000"
       d="m -227.43464,460.72651 c -2.75,-1.46059 -5.45,-3.1983 -6,-3.86159 -0.55,-0.66329 -3.11977,-2.92293 -5.7106,-5.02142 -5.1654,-4.18381 -6.59959,-6.95795 -4.74958,-9.18707 2.2483,-2.70904 3.76927,-1.94774 12.81709,6.41539 9.57783,8.85302 35.14309,8.89957 35.14309,0.064 0,-0.43813 0.9,-1.08226 2,-1.43138 1.1,-0.34913 2,-1.19818 2,-1.88679 0,-0.6886 1.8,-3.66455 4,-6.61321 2.2,-2.94867 4,-6.40494 4,-7.68061 0,-3.97285 5.10032,-2.83854 6.43261,1.43061 0.38619,1.2375 1.12185,2.25 1.63478,2.25 1.92555,0 0.83891,3.08557 -1.45467,4.13059 -1.313,0.59825 -4.54706,4.0761 -7.18679,7.72856 -11.61688,16.07369 -28.35571,21.4015 -42.92593,13.66294 z m -24.25254,-14.27209 c -3.4563,-3.06394 -8.12444,-21.4884 -6.07125,-23.96234 2.39745,-2.88875 6.81339,2.62758 6.82005,8.51952 0.005,4.10582 2.02636,12.49221 3.19969,13.27277 0.99146,0.65956 -1.2e-4,3.92005 -1.19216,3.92005 -0.43023,0 -1.67057,-0.7875 -2.75633,-1.75 z m 79.04465,-10 c -1.14192,-2.0625 -2.62059,-7.04307 -3.28596,-11.06793 -0.99458,-6.01629 -1.49322,-7.20915 -2.80339,-6.70639 -23.13443,8.87752 -61.69081,11.86501 -69.6326,5.3954 -0.58859,-0.47948 -2.15194,-1.69687 -3.47412,-2.70531 -4.98852,-3.8048 -3.47701,-18.16578 1.91197,-18.16578 2.42188,0 3.14382,2.37467 2.40809,7.92086 -0.73541,5.54386 -0.13559,6.22044 7.5154,8.47711 10.15673,2.99575 35.50991,0.27927 46.0685,-4.93604 1.375,-0.67917 5.0875,-1.98394 8.25,-2.89949 6.55154,-1.89668 6.66367,-2.09753 3.23514,-5.79505 -2.80251,-3.02237 -14.13424,-6.88721 -26.2058,-8.93783 -7.30508,-1.24093 -11.82821,-0.51609 -36.52935,5.85392 -0.9625,0.24821 -1.75,-0.029 -1.75,-0.61609 0,-0.58706 0.3375,-1.10083 0.75,-1.1417 2.99999,-0.29724 5.85781,-1.1335 6.67862,-1.9543 0.53426,-0.53426 1.53383,-0.97139 2.22125,-0.97139 0.68743,0 3.18493,-1.28984 5.55,-2.86631 19.94108,-13.29198 58.15029,-1.20427 60.67888,19.19612 0.57394,4.63053 0.87475,5.13752 2.88185,4.8572 4.30579,-0.60137 5.05296,4.98578 2.1481,16.063 -1.54347,5.88573 -3.72874,6.216 -6.61658,1 z m 12.24437,-27.1351 c -1.58883,-5.00598 4.14624,-9.29373 12.14794,-9.08226 1.54857,0.0409 4.0088,-0.21867 5.46717,-0.57688 8.5275,-2.09456 3.34829,6.22965 -5.34966,8.59817 -2.71076,0.73817 -5.1517,1.70301 -5.42431,2.14409 -1.02778,1.66298 -6.23102,0.83918 -6.84114,-1.08312 z m -105.23245,-3.8623 c -7.51067,-8.81881 -9.40228,-12.96898 -7.37274,-16.17568 1.69631,-2.6802 15.27896,12.03117 14.88581,16.12282 -0.45895,4.7765 -3.47206,4.7977 -7.51307,0.0529 z m 101.1506,-10.45924 c -0.78504,-3.57423 3.59008,-8.36769 10.29538,-11.27983 1.7875,-0.77632 3.25,-1.88445 3.25,-2.46251 0,-0.57807 1.125,-1.05103 2.5,-1.05103 3.10595,0 3.73981,5.45104 0.75,6.44985 -0.9625,0.32155 -3.48719,2.15188 -5.61042,4.06739 -2.12323,1.91552 -4.2304,3.48276 -4.68261,3.48276 -0.45221,0 -1.10784,0.9 -1.45697,2 -1.03272,3.25383 -4.23385,2.48826 -5.04538,-1.20663 z m -95.25241,-8.43514 c -5.01405,-3.51004 -5.93857,-5.27578 -4.59524,-8.77644 0.66897,-1.7433 3.39301,-2.18925 3.39301,-0.55547 0,0.56447 2.05651,3.08282 4.57002,5.59633 7.25252,7.25252 5.08715,9.65438 -3.36779,3.73558 z"
       id="path5426"
       inkscape:connector-curvature="0" />
  </g>
</svg>
