<?xml version="1.0" encoding="UTF-8" standalone="no"?>
<!-- Created with Inkscape (http://www.inkscape.org/) -->

<svg
   xmlns:dc="http://purl.org/dc/elements/1.1/"
   xmlns:cc="http://creativecommons.org/ns#"
   xmlns:rdf="http://www.w3.org/1999/02/22-rdf-syntax-ns#"
   xmlns:svg="http://www.w3.org/2000/svg"
   xmlns="http://www.w3.org/2000/svg"
   xmlns:sodipodi="http://sodipodi.sourceforge.net/DTD/sodipodi-0.dtd"
   xmlns:inkscape="http://www.inkscape.org/namespaces/inkscape"
   width="69.567421mm"
   height="76.762276mm"
   viewBox="0 0 246.49876 271.99232"
   id="svg4723"
   version="1.1"
   inkscape:version="0.91 r13725"
   sodipodi:docname="2.svg">
  <defs
     id="defs4725" />
  <sodipodi:namedview
     id="base"
     pagecolor="#ffffff"
     bordercolor="#666666"
     borderopacity="1.0"
     inkscape:pageopacity="0.0"
     inkscape:pageshadow="2"
     inkscape:zoom="1.979899"
     inkscape:cx="-22.575951"
     inkscape:cy="97.213263"
     inkscape:document-units="px"
     inkscape:current-layer="layer1"
     showgrid="false"
     fit-margin-top="0"
     fit-margin-left="0"
     fit-margin-right="0"
     fit-margin-bottom="0"
     inkscape:window-width="1920"
     inkscape:window-height="1003"
     inkscape:window-x="-9"
     inkscape:window-y="-9"
     inkscape:window-maximized="1" />
  <metadata
     id="metadata4728">
    <rdf:RDF>
      <cc:Work
         rdf:about="">
        <dc:format>image/svg+xml</dc:format>
        <dc:type
           rdf:resource="http://purl.org/dc/dcmitype/StillImage" />
        <dc:title></dc:title>
      </cc:Work>
    </rdf:RDF>
  </metadata>
  <g
     inkscape:label="Ebene 1"
     inkscape:groupmode="layer"
     id="layer1"
     transform="translate(329.34496,-192.23434)">
    <path
       style="fill:#000000"
       d="m -232.3692,463.11232 c -2.76569,-0.98434 -7.75343,-5.10792 -13.0584,-10.79593 -1.72284,-1.84724 -4.25614,-1.38941 -4.25614,0.76918 0,3.52174 -4.66492,-0.18736 -5.56771,-4.42692 -0.31389,-1.47404 -0.92287,-3.58007 -1.35329,-4.68007 -1.4529,-3.7131 -1.2597,-15.92311 0.29951,-18.92848 1.03768,-2.00012 1.17645,-3.31494 0.47017,-4.45461 -1.59141,-2.56795 0.59196,-7.18973 3.20791,-6.79051 1.15933,0.17693 2.47168,0.91032 2.91632,1.62977 0.60695,0.98207 0.96771,0.80626 1.44749,-0.7054 0.5819,-1.83339 11.59428,-10.25078 13.41099,-10.25078 0.42273,0 1.27802,-0.50941 1.90064,-1.13203 2.13819,-2.13819 8.09369,-1.99244 8.79437,0.21523 0.52783,1.66302 1.19175,1.8727 4.16405,1.3151 5.59103,-1.04889 13.97676,1.4175 16.98834,4.99655 4.40647,5.2368 8.32121,16.53316 8.32121,24.01167 0,3.67228 0.29231,4.41855 1.54277,3.9387 1.66019,-0.63708 1.15903,-8.83888 -0.65962,-10.79522 -1.61826,-1.74076 -0.983,-5.71112 0.99661,-6.2288 1.31997,-0.34518 2.04222,-1.70282 2.42531,-4.55897 0.70234,-5.23633 3.74415,-8.22796 10.93621,-10.75576 17.24628,-6.06158 29.19831,2.64693 29.96562,21.83358 0.17218,4.30548 0.80882,7.75747 1.54311,8.36708 7.16417,5.94776 -10.82289,21.44316 -25.77755,22.2067 -6.95985,0.35534 -20.89452,-9.47209 -21.02228,-14.82598 -0.0483,-2.02258 -4.75691,6.63088 -6.8589,12.60516 -1.05336,2.99386 -7.49116,6.807 -11.49243,6.807 -1.36445,0 -2.72768,0.39943 -3.0294,0.88762 -0.78605,1.27186 -12.4813,1.0892 -16.25491,-0.25388 z m 20.86145,-10.22475 c 1.55321,-0.8032 2.82401,-1.8538 2.82401,-2.33467 0,-0.48088 1.61748,-2.49181 3.59441,-4.46873 2.63963,-2.63963 3.73876,-4.72481 4.13786,-7.85 l 0.54345,-4.25559 -2.85917,2.5 c -1.57253,1.375 -3.3992,3.175 -4.05926,4 -1.60821,2.0101 -15.31698,2.10887 -17.7039,0.12755 -0.90936,-0.75484 -1.65339,-1.10203 -1.65339,-0.77153 0,0.96901 -14.43619,-8.07554 -16.46144,-10.31341 -3.01443,-3.33091 -3.53856,-2.45445 -3.53856,5.91724 l 0,7.95986 4,1.19843 c 2.2,0.65914 4,1.739 4,2.3997 0,7.45133 17.0229,11.14151 27.17599,5.89115 z m 48.86957,-7.52393 c 6.04239,-2.59937 9.65239,-6.07262 5.87633,-5.65373 -2.06336,0.22889 -2.43895,-0.17543 -2.53717,-2.73133 -0.0634,-1.65 -0.17591,-3.27843 -0.25,-3.61872 -0.0741,-0.3403 -2.54156,-0.0592 -5.48327,0.62459 -5.08861,1.18289 -8.77239,0.96978 -18.3755,-1.06302 -3.18531,-0.67427 -4.97461,5.38928 -2.11234,7.15826 0.46002,0.28431 0.83639,1.34617 0.83639,2.3597 0,5.81579 11.7125,7.3694 22.04556,2.92425 z m -49.11416,-13.50073 c 13.47808,-6.72375 7.82314,-19.40871 -8.63174,-19.36237 -15.25833,0.043 -23.99876,6.82979 -16.01171,12.43289 11.42813,8.0171 18.48539,10.00153 24.64345,6.92948 z m 45.70281,-6.85174 c 2.54265,-1.26844 7.3658,-6.4752 7.3658,-7.95164 0,-7.33941 -22.45655,-6.45866 -25.86145,1.01429 -2.66467,5.8483 -1.71439,6.67777 8.86144,7.73485 1.925,0.19241 4.21836,0.42185 5.09636,0.50987 0.878,0.088 2.92003,-0.5003 4.53785,-1.30737 z m -128.47148,10.16349 c -4.15428,-5.00559 1.17197,-7.83863 10.63382,-5.65614 2.36311,0.54508 6.98897,1.2004 10.2797,1.45627 6.70774,0.52155 13.50058,3.72243 9.67374,4.5584 -5.23778,1.14419 -29.57689,0.8589 -30.58726,-0.35853 z m 149.50395,-22.36275 c -1.73374,-1.73374 -0.63617,-7.20803 1.58333,-7.89715 1.2375,-0.38422 3.44054,-1.53675 4.89565,-2.56117 6.38495,-4.49515 16.20347,-5.26439 13.97189,-1.09464 -2.24478,4.19442 -18.58092,13.42291 -20.45087,11.55296 z m -114.2014,-12.26333 c -3.51363,-1.46139 -7.41162,-9.11013 -7.45073,-14.62001 -0.008,-1.1275 -0.4222,-2.4775 -0.92042,-3 -1.17336,-1.23052 0.0715,-8.67188 1.53215,-9.15876 1.23562,-0.41187 2.41382,2.543 2.91509,7.31086 0.62251,5.92109 5.75913,13.83701 9.34276,14.3979 3.11863,0.48812 3.61672,1.29148 2.27565,3.67038 -0.91729,1.62717 -5.25178,2.41562 -7.6945,1.39963 z"
       id="path5439"
       inkscape:connector-curvature="0" />
  </g>
</svg>
