<?xml version="1.0" encoding="UTF-8" standalone="no"?>
<!-- Created with Inkscape (http://www.inkscape.org/) -->

<svg
   xmlns:dc="http://purl.org/dc/elements/1.1/"
   xmlns:cc="http://creativecommons.org/ns#"
   xmlns:rdf="http://www.w3.org/1999/02/22-rdf-syntax-ns#"
   xmlns:svg="http://www.w3.org/2000/svg"
   xmlns="http://www.w3.org/2000/svg"
   xmlns:sodipodi="http://sodipodi.sourceforge.net/DTD/sodipodi-0.dtd"
   xmlns:inkscape="http://www.inkscape.org/namespaces/inkscape"
   width="69.567421mm"
   height="76.762276mm"
   viewBox="0 0 246.49876 271.99232"
   id="svg4723"
   version="1.1"
   inkscape:version="0.91 r13725"
   sodipodi:docname="3.svg">
  <defs
     id="defs4725" />
  <sodipodi:namedview
     id="base"
     pagecolor="#ffffff"
     bordercolor="#666666"
     borderopacity="1.0"
     inkscape:pageopacity="0.0"
     inkscape:pageshadow="2"
     inkscape:zoom="1.979899"
     inkscape:cx="-22.575951"
     inkscape:cy="97.213263"
     inkscape:document-units="px"
     inkscape:current-layer="layer1"
     showgrid="false"
     fit-margin-top="0"
     fit-margin-left="0"
     fit-margin-right="0"
     fit-margin-bottom="0"
     inkscape:window-width="1920"
     inkscape:window-height="1003"
     inkscape:window-x="-9"
     inkscape:window-y="-9"
     inkscape:window-maximized="1" />
  <metadata
     id="metadata4728">
    <rdf:RDF>
      <cc:Work
         rdf:about="">
        <dc:format>image/svg+xml</dc:format>
        <dc:type
           rdf:resource="http://purl.org/dc/dcmitype/StillImage" />
        <dc:title></dc:title>
      </cc:Work>
    </rdf:RDF>
  </metadata>
  <g
     inkscape:label="Ebene 1"
     inkscape:groupmode="layer"
     id="layer1"
     transform="translate(329.34496,-192.23434)">
    <path
       style="fill:#000000"
       d="m -214.09216,462.42925 c -8.10168,-5.1527 -18.51631,-20.57519 -15.96782,-23.64592 1.79844,-2.16699 3.58654,-1.89566 5.76587,0.87491 2.25482,2.86654 2.34193,-7.18582 0.20713,-23.90147 -0.63218,-4.95 -1.24111,-10.125 -1.35319,-11.5 -0.11207,-1.375 -0.47906,-3.175 -0.81552,-4 -0.33646,-0.825 -0.87207,-3.075 -1.19024,-5 -0.31817,-1.925 -0.85058,-4.69346 -1.18312,-6.15214 -0.43784,-1.92051 -0.0259,-3.23084 1.49324,-4.75 1.15383,-1.15382 2.09787,-2.89774 2.09787,-3.87536 0,-8.85739 28.5204,-18.8412 37.76423,-13.21969 4.23612,2.57613 7.21465,14.38912 7.26758,28.82348 0.0288,7.8448 0.17211,8.4882 1.5,6.73258 2.71375,-3.5879 6.97296,6.44505 4.70838,11.09103 -0.49598,1.01756 -1.55867,3.2001 -2.36153,4.8501 -1.02387,2.10422 -1.18879,3.75645 -0.55233,5.53339 0.72876,2.03464 0.37799,3.31351 -1.78173,6.49604 l -2.68913,3.96265 2.07227,1.37593 c 13.60851,9.03572 -21.09919,35.13396 -34.98196,26.30447 z m 16.97438,-8.13174 c 3.94699,-2.01361 13.07984,-10.47603 13.07984,-12.11968 0,-1.54759 -1.34308,-0.9739 -4.96222,2.11959 -1.90423,1.62764 -4.46517,2.95936 -5.69099,2.95936 -1.22581,0 -2.52037,0.47185 -2.8768,1.04855 -0.36927,0.59751 -1.14746,0.68723 -1.80902,0.20858 -0.63853,-0.46199 -2.96097,-1.436 -5.16097,-2.16445 -2.43964,-0.8078 -5.89286,-3.32723 -8.85236,-6.45857 l -4.85235,-5.13412 0.68881,5.00001 c 1.95655,14.20228 9.95042,19.89011 20.43606,14.54073 z m 1.07984,-16.54073 c 0.68469,-0.82501 1.86137,-1.50001 2.61484,-1.50001 1.62548,0 6.38516,-3.95284 6.38516,-5.30278 0,-0.51816 -0.59241,-0.45045 -1.31647,0.15047 -2.45049,2.03373 -7.45774,1.71306 -9.96018,-0.63786 -1.29374,-1.2154 -2.70849,-2.20983 -3.1439,-2.20983 -0.4354,0 -2.49615,-1.35 -4.57945,-3 -2.0833,-1.65 -4.10207,-3 -4.48618,-3 -0.3841,0 -1.84253,-0.9 -3.24095,-2 -3.18917,-2.5086 -4.27287,-2.52569 -4.27287,-0.0674 0,1.06294 0.87698,2.21096 1.94885,2.55116 1.07186,0.34019 2.24814,1.56153 2.61394,2.71409 2.67904,8.44089 14.00826,16.43378 17.43721,12.30215 z m 8.75,-17.75665 c 1.36104,-1.07603 1.75718,-17.76396 0.61884,-26.06906 l -0.63116,-4.60484 -5.11884,4.29314 c -10.29558,8.63482 -22.48051,11.71533 -25.7047,6.49847 -1.24692,-2.01756 -2.20846,-0.27953 -1.0465,1.89161 0.56632,1.05818 0.79188,2.8333 0.50125,3.94469 -0.41818,1.59911 0.062,2.1402 2.30134,2.59335 1.55637,0.31495 7.21313,3.46677 12.57058,7.00404 9.85911,6.50952 12.87463,7.32208 16.50919,4.4486 z m -11.61082,-30.98504 c 13.13882,-6.01262 14.19594,-15.07859 1.6534,-14.17967 -9.62057,0.6895 -23.79258,7.49261 -23.79258,11.42135 0,6.44083 11.07651,7.82085 22.13918,2.75832 z m -65.47252,22.57501 c -2.27783,-2.27782 0.0577,-5.0482 7.04303,-8.35422 2.31533,-1.09581 6.14033,-3.29364 8.5,-4.88407 6.73405,-4.5388 11.7903,-4.40629 11.7903,0.30899 0,2.59221 -2.84399,5.59597 -5.29832,5.59597 -0.90246,0 -3.11703,0.82857 -4.92126,1.84127 -1.80423,1.0127 -5.6443,2.40792 -8.5335,3.10048 -2.8892,0.69257 -5.50326,1.664 -5.80902,2.15873 -0.65743,1.06374 -1.8409,1.16318 -2.77123,0.23285 z m 97.58335,-21.81195 c -2.75695,-1.20867 -3.25,-1.94457 -3.25,-4.85067 0,-4.25865 2.04713,-6.25104 4.87033,-4.74011 2.77913,1.48734 6.24908,1.33527 10.55156,-0.46242 4.34503,-1.81546 5.58783,-1.29132 5.55033,2.34083 -0.0654,6.33592 -10.50209,10.87777 -17.72222,7.71237 z m -9.1392,-10.63337 c -0.59666,-1.71159 -0.75319,-3.64154 -0.34782,-4.28877 2.05363,-3.27901 21.72845,-19.77449 22.5755,-18.92744 0.35709,0.3571 1.49084,-0.11236 2.51944,-1.04323 3.49207,-3.16028 5.9825,2.44009 2.59256,5.83003 -1.39776,1.39777 -2.9086,2.54139 -3.35742,2.54139 -0.44881,0 -3.91585,3.19645 -7.70454,7.10323 -5.78814,5.96854 -13.14853,11.89678 -14.77083,11.89678 -0.23212,0 -0.91022,-1.4004 -1.50689,-3.11199 z m -62.66433,-9.38802 c -2.02807,-2.475 -4.2182,-4.5 -4.86695,-4.5 -0.64874,0 -1.7341,-0.55456 -2.41189,-1.23235 -0.6778,-0.6778 -3.1303,-1.69491 -5.45,-2.26024 -3.66927,-0.89424 -4.18141,-1.34884 -3.93891,-3.49639 0.893,-7.90835 19.0951,-1.84532 21.90031,7.29489 2.59203,8.4456 -0.0279,10.54563 -5.23256,4.19409 z"
       id="path5452"
       inkscape:connector-curvature="0" />
  </g>
</svg>
