<?xml version="1.0" encoding="UTF-8" standalone="no"?>
<!-- Created with Inkscape (http://www.inkscape.org/) -->

<svg
   xmlns:dc="http://purl.org/dc/elements/1.1/"
   xmlns:cc="http://creativecommons.org/ns#"
   xmlns:rdf="http://www.w3.org/1999/02/22-rdf-syntax-ns#"
   xmlns:svg="http://www.w3.org/2000/svg"
   xmlns="http://www.w3.org/2000/svg"
   xmlns:sodipodi="http://sodipodi.sourceforge.net/DTD/sodipodi-0.dtd"
   xmlns:inkscape="http://www.inkscape.org/namespaces/inkscape"
   width="69.567421mm"
   height="76.762276mm"
   viewBox="0 0 246.49876 271.99232"
   id="svg4723"
   version="1.1"
   inkscape:version="0.91 r13725"
   sodipodi:docname="4.svg">
  <defs
     id="defs4725" />
  <sodipodi:namedview
     id="base"
     pagecolor="#ffffff"
     bordercolor="#666666"
     borderopacity="1.0"
     inkscape:pageopacity="0.0"
     inkscape:pageshadow="2"
     inkscape:zoom="1.979899"
     inkscape:cx="-22.575951"
     inkscape:cy="97.213263"
     inkscape:document-units="px"
     inkscape:current-layer="layer1"
     showgrid="false"
     fit-margin-top="0"
     fit-margin-left="0"
     fit-margin-right="0"
     fit-margin-bottom="0"
     inkscape:window-width="1920"
     inkscape:window-height="1003"
     inkscape:window-x="-9"
     inkscape:window-y="-9"
     inkscape:window-maximized="1" />
  <metadata
     id="metadata4728">
    <rdf:RDF>
      <cc:Work
         rdf:about="">
        <dc:format>image/svg+xml</dc:format>
        <dc:type
           rdf:resource="http://purl.org/dc/dcmitype/StillImage" />
        <dc:title></dc:title>
      </cc:Work>
    </rdf:RDF>
  </metadata>
  <g
     inkscape:label="Ebene 1"
     inkscape:groupmode="layer"
     id="layer1"
     transform="translate(329.34496,-192.23434)">
    <path
       style="fill:#000000"
       d="m -234.91012,463.07155 c -3.82978,-1.35135 -13.5,-9.48929 -13.5,-11.36087 0,-0.78248 -0.45,-1.42268 -1,-1.42268 -0.55,0 -1,0.45 -1,1 0,2.29033 -1.64794,0.72361 -3.33509,-3.17072 -1.8227,-4.2072 -2.41396,-9.63734 -3.13909,-28.82929 -0.55039,-14.56699 -2.50519,-31.96598 -4.46643,-39.75405 -1.2481,-4.95615 0.24276,-8.63935 3.19061,-7.8825 1.00156,0.25715 1.75,-0.10828 1.75,-0.85445 0,-22.46508 39.32507,-23.91961 45.30713,-1.67579 1.46325,5.44099 1.48078,7.86031 0.10772,14.86643 -1.29551,6.61045 2.59178,11.47406 4.43617,5.55036 2.38219,-7.65091 9.98378,-13.06638 16.59903,-11.82535 6.46378,1.21261 16.75712,8.24705 18.60869,12.71713 0.65115,1.57202 1.54636,2.85822 1.98935,2.85822 1.14937,0 4.02723,6.06913 3.37685,7.12146 -0.29863,0.4832 -0.17891,0.87854 0.26605,0.87854 0.44496,1e-5 0.80902,9.86967 0.80902,21.9326 l 0,21.9326 -3,3.14855 c -10.05215,10.54989 -25.99877,13.56548 -30.82963,5.83005 -0.63331,-1.01409 -1.71822,-1.84379 -2.41092,-1.84379 -0.6927,0 -1.25945,-0.43247 -1.25945,-0.96104 0,-0.52858 -0.8944,-1.79431 -1.98754,-2.81273 -2.68709,-2.50339 -3.62514,-7.47287 -1.71055,-9.06183 1.65673,-1.37497 7.10748,2.39939 8.13347,5.632 1.60336,5.05175 8.34015,5.95419 15.87297,2.12629 7.6115,-3.86789 10.83676,-7.51009 9.41453,-10.63157 -0.81028,-1.77836 -0.67357,-2.68812 0.61846,-4.1158 1.80908,-1.99901 2.33834,-10.17533 0.65866,-10.17533 -0.55,0 -1,0.89653 -1,1.99229 0,13.2917 -28.48152,8.5939 -34.61925,-5.71017 -2.84216,-6.62372 0.53044,-9.02431 4.6165,-3.28597 7.88789,11.07751 24.95591,10.75465 26.2288,-0.49615 0.55694,-4.92269 0.95026,-4.5593 -3.75412,-3.4686 -6.27834,1.45563 -14.04421,1.1889 -15.47193,-0.5314 -0.68469,-0.825 -1.78948,-1.5 -2.45508,-1.5 -1.80999,0 -7.27714,-7.2401 -8.39011,-11.11094 -0.8384,-2.91592 -0.98789,-3.04004 -1.07079,-0.88906 -0.053,1.375 -0.72994,3.71447 -1.50433,5.19881 -1.13772,2.18078 -1.29981,6.81429 -0.84448,24.13959 0.30993,11.79244 0.25559,22.24319 -0.12074,23.2239 -1.09745,2.85991 -3.86276,-1.72488 -3.0334,-5.02929 0.35147,-1.40038 0.33793,-4.15122 -0.0301,-6.11298 -1.0202,-5.4381 -3.18209,-2.68897 -4.0171,5.10825 -0.38119,3.55945 -1.03573,6.47173 -1.45454,6.47173 -0.41881,0 -1.97022,2.22085 -3.44757,4.93522 -2.17169,3.99013 -7.98737,9.3501 -9.7498,8.98583 -0.21008,-0.0434 -1.73197,-0.5553 -3.38197,-1.1375 z m 8.05674,-13.08201 c 5.80789,-9.04063 5.52886,-11.46413 -1.12698,-9.78817 -6.69144,1.68492 -10.70746,0.0609 -17.60769,-7.12026 l -5.67793,-5.90911 0.47873,5.308 c 0.53479,5.92954 2.11618,13.26931 2.27477,10.558 0.17257,-2.95034 1.95677,-1.9557 4.12869,2.30161 4.68763,9.18852 13.16941,11.43831 17.53041,4.64993 z m 3.38878,-19.70393 c 4.21638,-1.1556 6.64967,-5.53488 7.67188,-13.80734 l 0.65611,-5.30973 -3.81532,2.14294 c -8.74602,4.91234 -27.33963,-1.45428 -30.83284,-10.55744 -1.44987,-3.77829 -2.43942,-0.74622 -2.28935,7.01473 0.14294,7.39179 0.37655,8.41424 1.81932,7.96266 1.08655,-0.34009 2.45348,0.61142 3.97825,2.76923 3.76942,5.33436 6.21121,7.30938 8.61482,6.96799 1.67129,-0.23737 2.5109,0.37113 3.27116,2.37078 1.09722,2.88591 1.90399,2.91885 10.92597,0.44618 z m -1.94552,-23.99762 c 0,-0.55 0.61364,-1 1.36364,-1 3.65746,0 6.80112,-5.23925 6.3496,-10.58229 -0.53717,-6.35644 -1.27494,-7.7218 -3.52393,-6.52159 -7.37025,3.93328 -19.57156,1.24738 -26.9053,-5.92271 -3.86675,-3.78046 -4.28401,-3.19411 -4.28401,6.02006 l 0,7.66014 2.75,-0.37181 c 2.01415,-0.27233 3.60513,0.44297 5.94577,2.67319 1.75767,1.67475 3.61507,3.04501 4.12755,3.04501 0.51249,0 1.54922,0.74395 2.30385,1.65323 2.68264,3.23239 11.87283,5.82296 11.87283,3.34677 z m 46.67764,-5.54547 c 5.30314,-2.15622 1.06943,-9.24201 -7.98713,-13.36775 -5.74726,-2.61818 -5.91389,-2.61113 -9.49404,0.40137 -10.2314,8.60914 3.37534,18.70172 17.48117,12.96638 z m -42.58405,-23.5264 c 1.02901,-1.33547 1.65553,-3.02323 1.39226,-3.75057 -0.26327,-0.72735 -0.0614,-2.10213 0.44861,-3.05509 2.03964,-3.8111 -11.33854,-10.43024 -18.93446,-9.36822 -9.19374,1.28543 -12.32932,10.78372 -4.84021,14.66199 1.83712,0.95136 4.46521,2.3907 5.84021,3.19853 4.05509,2.38243 13.7404,1.36739 16.09359,-1.68664 z m 104.90643,35.54598 c -0.825,-0.16163 -4.875,-0.82336 -9,-1.4705 -12.61819,-1.97956 -14.71658,-2.83645 -15.40766,-6.29187 -0.86629,-4.33142 -0.95991,-4.32318 14.15753,-1.24537 7.56257,1.5397 14.87513,2.77937 16.25013,2.75483 3.27347,-0.0584 5,1.46136 5,4.40125 0,2.33947 -4.57743,3.11 -11,1.85166 z m -190.28978,-11.47411 c 0.28766,-1.1 0.95979,-2 1.49363,-2 0.98061,0 9.56756,-7.93088 17.05291,-15.75 3.53158,-3.68906 4.62693,-4.25 8.29891,-4.25 5.91784,0 7.30309,4.36352 2.13929,6.73874 -1.20724,0.5553 -4.95674,3.09126 -8.33223,5.63545 -3.37548,2.5442 -6.56823,4.62581 -7.09501,4.62581 -0.52677,0 -1.77529,0.90334 -2.77447,2.00743 -4.08049,4.50888 -11.73508,6.63323 -10.78303,2.99257 z m 157.31359,-17.4713 c -2.85087,-3.43508 6.31963,-13.6696 15.72619,-17.55083 1.2375,-0.5106 2.25,-1.38951 2.25,-1.95312 0,-0.56362 0.65264,-1.02475 1.45031,-1.02475 0.79767,0 1.87354,-0.75628 2.39082,-1.68061 0.8622,-1.54066 1.07377,-1.54735 2.54077,-0.0804 1.80283,1.80284 1.19937,7.76097 -0.78606,7.76097 -0.63478,0 -2.71603,1.47951 -4.625,3.28781 -9.30653,8.81575 -17.11499,13.44836 -18.94703,11.24089 z m -137.17505,-44.60953 c -4.66763,-5.82848 -7.78245,-8.77893 -10.77927,-10.21048 -3.03904,-1.45172 -3.99811,-5.41514 -1.53873,-6.35889 0.91908,-0.35268 1.96314,-0.23817 2.32014,0.25447 0.35699,0.49265 2.41788,1.79572 4.57977,2.89572 4.0903,2.08122 11.82775,12.61535 11.32406,15.41714 -0.50656,2.81783 -2.62261,2.10198 -5.90597,-1.99796 z"
       id="path5465"
       inkscape:connector-curvature="0" />
  </g>
</svg>
