<?xml version="1.0" encoding="UTF-8" standalone="no"?>
<!-- Created with Inkscape (http://www.inkscape.org/) -->

<svg
   xmlns:dc="http://purl.org/dc/elements/1.1/"
   xmlns:cc="http://creativecommons.org/ns#"
   xmlns:rdf="http://www.w3.org/1999/02/22-rdf-syntax-ns#"
   xmlns:svg="http://www.w3.org/2000/svg"
   xmlns="http://www.w3.org/2000/svg"
   xmlns:sodipodi="http://sodipodi.sourceforge.net/DTD/sodipodi-0.dtd"
   xmlns:inkscape="http://www.inkscape.org/namespaces/inkscape"
   width="69.567421mm"
   height="76.762276mm"
   viewBox="0 0 246.49876 271.99232"
   id="svg4723"
   version="1.1"
   inkscape:version="0.91 r13725"
   sodipodi:docname="5.svg">
  <defs
     id="defs4725" />
  <sodipodi:namedview
     id="base"
     pagecolor="#ffffff"
     bordercolor="#666666"
     borderopacity="1.0"
     inkscape:pageopacity="0.0"
     inkscape:pageshadow="2"
     inkscape:zoom="1.979899"
     inkscape:cx="-22.575951"
     inkscape:cy="97.213263"
     inkscape:document-units="px"
     inkscape:current-layer="layer1"
     showgrid="false"
     fit-margin-top="0"
     fit-margin-left="0"
     fit-margin-right="0"
     fit-margin-bottom="0"
     inkscape:window-width="1920"
     inkscape:window-height="1003"
     inkscape:window-x="-9"
     inkscape:window-y="-9"
     inkscape:window-maximized="1" />
  <metadata
     id="metadata4728">
    <rdf:RDF>
      <cc:Work
         rdf:about="">
        <dc:format>image/svg+xml</dc:format>
        <dc:type
           rdf:resource="http://purl.org/dc/dcmitype/StillImage" />
        <dc:title></dc:title>
      </cc:Work>
    </rdf:RDF>
  </metadata>
  <g
     inkscape:label="Ebene 1"
     inkscape:groupmode="layer"
     id="layer1"
     transform="translate(329.34496,-192.23434)">
    <path
       style="fill:#000000"
       d="m -216.82252,463.45669 c -5.87804,-1.80315 -12.93144,-7.49358 -12.94776,-10.44578 -0.003,-0.61297 -0.70434,-2.45345 -1.55767,-4.08996 -0.85333,-1.6365 -1.3428,-3.77356 -1.08772,-4.749 0.74966,-2.86668 -1.02641,-3.00666 -3.73843,-0.29464 -5.0974,5.0974 -16.42199,3.24074 -24.61002,-4.03481 -1.375,-1.22176 -3.51146,-2.52694 -4.74768,-2.90039 -2.58156,-0.77985 -2.99924,-2.22188 -3.63384,-12.5457 -0.54464,-8.86046 -2.9743,-23.70023 -5.48483,-33.5 -2.0159,-7.869 -1.7696,-10.5 0.98298,-10.5 1.03585,0 1.88337,-0.675 1.88337,-1.5 0,-0.825 0.62685,-1.5 1.39301,-1.5 1.91936,0 2.73272,-2.57228 1.66379,-5.26185 -0.48923,-1.23098 -1.44698,-4.48815 -2.12833,-7.23815 -0.68135,-2.75 -1.62129,-5.49888 -2.08876,-6.10863 -0.50938,-0.6644 -0.10161,-2.06687 1.01761,-3.5 1.02715,-1.31526 2.17748,-3.38086 2.55627,-4.59023 0.60908,-1.9446 2.58359,-3.2801 4.8432,-3.27579 0.41624,8e-4 2.89124,-1.06521 5.5,-2.3689 6.33943,-3.16803 9.30398,-3.78621 13.03107,-2.7173 l 3.11833,0.89433 -0.60416,-9.91675 c -0.43633,-7.16203 -0.28441,-9.91674 0.54691,-9.91674 0.63308,0 1.15106,-0.86786 1.15106,-1.92857 0,-1.06072 0.675,-2.60357 1.5,-3.42857 0.825,-0.825 1.51618,-1.86965 1.53596,-2.32143 0.63912,-14.59809 40.88829,-11.30988 43.57706,3.56009 0.35986,1.99016 1.26028,4.81648 2.00093,6.28071 1.53223,3.02912 3.712,18.50127 3.81625,27.08792 0.0809,6.66391 -0.11935,6.46983 3.35324,3.24986 1.48287,-1.37501 3.26323,-2.50001 3.95635,-2.50001 0.69312,0 1.26022,-0.38886 1.26022,-0.86414 0,-1.29558 8.10585,-4.13586 11.8033,-4.13586 4.18834,0 10.07072,3.75604 14.39011,9.18844 6.77936,8.52625 6.90499,8.90913 6.25295,19.05762 -0.327,5.08967 -0.22371,11.27895 0.22954,13.75395 0.45326,2.475 0.5991,7.65 0.3241,11.5 -0.71402,9.99634 -0.23427,12.4031 2.61494,13.1182 2.79764,0.70217 3.01898,2.48469 0.74034,5.96232 -1.43736,2.19369 -1.46888,2.83871 -0.25,5.1162 7.41995,13.8643 -12.2392,37.20936 -24.60528,29.21855 -1.65,-1.06621 -3.6809,-2.18293 -4.51311,-2.48159 -0.83221,-0.29867 -2.27378,-1.86843 -3.20349,-3.48835 -2.00006,-3.48491 -3.30338,-3.71075 -4.84043,-0.83876 -0.87451,1.63404 -1.75781,1.98047 -3.93793,1.54445 -2.35311,-0.47062 -2.90769,-0.17504 -3.40745,1.81618 -2.03566,8.11072 -17.65888,14.65979 -27.656,11.59308 z m 13.78817,-9.60671 c 6.20652,-2.54574 9.2062,-7.41421 8.12711,-13.1903 -1.52391,-8.15707 1.75171,-9.24397 6.13528,-2.03577 l 1.88513,3.09984 0.31136,-11.91367 c 0.37686,-14.41989 -0.26788,-21.61597 -1.52206,-16.98802 -2.74442,10.12698 -16.37997,23.57436 -23.90425,23.57436 -5.73626,0 -18.3929,-13.87272 -17.115,-18.75945 0.91334,-3.49258 3.1571,-2.69402 9.15823,3.25944 7.67852,7.61754 9.73344,7.49117 18.77081,-1.15436 6.26489,-5.99325 8.19228,-9.04664 9.03427,-14.3122 0.36124,-2.25904 1.43741,-4.65411 2.39149,-5.32238 2.04041,-1.42915 1.40278,-8.48115 -2.00828,-22.21106 -1.71966,-6.92179 -2.38168,-10.6545 -2.88207,-16.25 -0.20594,-2.30295 -2.06628,-1.28098 -2.73053,1.5 -3.53514,14.80031 -23.05557,14.0957 -33.47856,-1.20844 -1.32148,-1.94034 -2.7953,-3.53097 -3.27514,-3.53473 -0.47985,-0.004 -0.4602,0.55567 0.0437,1.24317 1.90471,2.5989 4.4682,11.73534 3.84426,13.70119 -0.78647,2.47797 -2.51549,2.71772 -2.51549,0.34881 0,-1.23745 -0.29961,-1.40039 -1.10116,-0.59884 -1.65621,1.65622 -0.16802,7.08778 1.89844,6.92888 0.99137,-0.0762 2.38407,1.25299 3.36598,3.21256 7.90811,15.78209 26.01332,17.57534 29.36665,2.90864 0.55636,-2.43339 3.7704,-5.75124 5.57129,-5.75124 7.78166,0 -0.94278,19.94165 -9.42023,21.53203 -1.94833,0.36551 -3.80564,1.35046 -4.12733,2.18879 -0.59162,1.54173 -11.07893,1.30863 -13.68863,-0.30425 -2.51719,-1.55571 -7.86501,-6.99848 -7.86501,-8.00466 0,-0.60606 -0.9,-1.91642 -2,-2.91191 -1.1,-0.99549 -2,-2.41523 -2,-3.15499 0,-0.73975 -0.35438,-1.34501 -0.78751,-1.34501 -1.27369,0 -1.29899,8.29818 -0.0328,10.75361 0.87937,1.70528 0.88248,3.46515 0.0128,7.23285 -1.23865,5.36616 -0.69765,10.23442 1.51858,13.66505 1.38741,2.14766 1.99581,6.06885 2.18749,14.0985 0.0838,3.50978 0.4405,4.25 2.04812,4.25 1.70888,0 1.88231,0.52552 1.41979,4.30214 -1.19688,9.77291 11.70757,15.93227 23.36331,11.15142 z m 43.77024,-6.45356 c 1.5808,-1.65 3.39276,-3 4.02658,-3 1.90673,0 3.47342,-4.75727 3.47342,-10.54705 0,-6.13557 -0.36063,-6.32995 -6.20864,-3.34651 -5.16934,2.6372 -12.31982,1.9656 -17.6524,-1.65798 -4.70425,-3.19663 -5.13896,-3.10768 -5.13896,1.05154 0,2.85136 0.37647,3.5 2.03138,3.5 2.08648,0 2.3352,0.39245 3.45462,5.45111 1.84456,8.33548 11.35457,13.41229 16.014,8.54889 z m -82.5346,-11.22248 c 3.77233,-2.17108 3.85392,-2.33876 3.52766,-7.25 -0.18369,-2.76515 -0.37978,-6.82753 -0.43576,-9.02753 -0.1013,-3.98106 -0.10996,-3.98953 -1.82955,-1.78917 -3.66294,4.68706 -8.03476,5.44238 -15.78808,2.72769 -10.28569,-3.60135 -10.82493,-2.84121 -4.54484,6.40664 4.87283,7.17556 7.94395,9.45914 14.90704,11.08439 0.16604,0.0387 2.03962,-0.92966 4.16353,-2.15202 z m 83.42594,-13.72803 c 5.75399,-2.62125 6.94711,-4.23206 6.07516,-8.20201 -0.59289,-2.69943 -0.89698,-2.98133 -1.83845,-1.7043 -5.15213,6.98851 -18.23089,1.70181 -26.42594,-10.68192 -1.14645,-1.73243 -1.23396,-1.74754 -0.75,-0.12948 0.30134,1.00748 0.54789,4.17159 0.54789,7.03135 0,11.4534 11.65499,18.57733 22.39134,13.68636 z m -85.96682,-12.53945 c 2.89096,-2.97689 3.43965,-4.31423 3.73234,-9.09693 0.37618,-6.14708 -0.19216,-7.23497 -2.54867,-4.87846 -4.21436,4.21435 -17.0905,2.11867 -23.39964,-3.80845 l -2.31635,-2.1761 0.48948,2.97495 c 0.26921,1.63622 0.78129,5.22494 1.13795,7.97494 1.00159,7.72264 1.23618,8.10836 5.74888,9.45225 2.32731,0.69308 5.13148,1.6319 6.23148,2.08627 4.28712,1.77084 7.46322,1.03574 10.92453,-2.52847 z m 86.50256,-4.1412 c 3.27999,-3.77231 3.7668,-6.53608 3.27957,-18.61885 -0.48629,-12.05945 -0.65525,-12.30243 -4.76012,-6.8453 -5.32555,7.07994 -10.44291,8.07308 -22.82831,4.43034 -5.04258,-1.48311 -0.76281,6.44029 8.17758,15.13964 9.70306,9.44147 12.24073,10.3687 16.13128,5.89417 z m -90.32241,-16.36885 c 1.56618,0 5.39532,-6.99536 5.39532,-9.85657 0,-2.16635 -5.89805,-7.77397 -9.69494,-9.21755 -4.22607,-1.60674 -10.78115,2.19803 -8.21242,4.76676 1.48229,1.48229 -0.62016,5.4259 -2.50675,4.70195 -2.47143,-0.94838 -2.7653,1.54472 -0.54897,4.65727 1.22737,1.72367 3.41806,3.28914 5.06324,3.61817 1.59491,0.31898 2.89984,1.02997 2.89984,1.57997 0,0.58667 1.29167,0.74167 3.125,0.375 1.71875,-0.34375 3.7346,-0.625 4.47968,-0.625 z m 84.93158,-13.82861 c 1.26779,-1.46926 2.55453,-3.90889 2.85942,-5.42139 0.31354,-1.55548 1.21674,-2.75 2.07933,-2.75 2.23836,0 1.88459,-1.16058 -1.475,-4.83886 -1.65,-1.80652 -3,-3.65866 -3,-4.11587 0,-2.40501 -11.13739,-2.82117 -15.6224,-0.58376 -6.46738,3.22636 -8.50507,6.60256 -7.76832,12.87115 0.72544,6.17239 -0.0526,5.54209 9.89072,8.01242 4.37602,1.08718 10.68494,-0.44873 13.03625,-3.17369 z m -78.65268,-15.12562 c 0.0814,-8.6969 -1.13477,-10.26204 -7.39055,-9.5111 -8.36163,1.00373 -13.49303,4.05075 -13.49303,8.01212 0,4.37648 1.76842,4.54082 2.18664,0.20321 0.23207,-2.40688 0.8549,-3.32737 2.40086,-3.54826 2.95853,-0.4227 5.13424,2.41292 3.66119,4.77165 -1.32919,2.12837 -0.7058,3.01071 2.16798,3.06853 1.14583,0.0231 3.65833,0.90419 5.58333,1.95808 4.89554,2.6802 4.8113,2.76566 4.88358,-4.95423 z m 32.60305,3.62191 c 2.22414,-1.21125 4.12587,-3.05454 4.30156,-4.16939 0.59246,-3.75946 2.50963,-6.53856 4.15122,-6.01754 3.04881,0.96766 4.02046,-2.63401 2.8634,-10.61389 -1.28373,-8.85341 -0.813,-8.20736 -4.60261,-6.31685 -2.69529,1.34459 -4.53761,1.40234 -13.41234,0.42043 -5.65832,-0.62605 -12.67934,-1.21301 -15.60226,-1.30436 l -5.3144,-0.16609 0.63889,3.5 c 0.73241,4.01232 5.09468,12 6.5535,12 0.53861,0 1.52281,1.2375 2.18712,2.75 1.9076,4.34328 10.83798,12.20632 13.74929,12.10601 0.275,-0.009 2.29399,-0.99422 4.48663,-2.18832 z m 1.51337,-36.01831 c 6.06645,-1.84263 7.97052,-9.69583 2.65933,-10.96818 -1.18764,-0.28451 -4.18433,-1.27243 -6.65933,-2.19539 -10.17279,-3.79355 -26.0783,2.93465 -23.40519,9.90065 1.35126,3.52133 19.45715,5.67705 27.40519,3.26292 z m 84.88387,61.34544 c -2.67366,-1.56232 -1.16544,-5.6333 2.78079,-7.50591 1.90087,-0.90202 3.7021,-2.28104 4.00273,-3.06447 0.30064,-0.78344 1.09742,-1.42443 1.77064,-1.42443 0.67322,0 1.82611,-1.125 2.56199,-2.5 0.73588,-1.375 1.69086,-2.5 2.12219,-2.5 0.43132,0 1.67997,-2.025 2.77479,-4.5 1.40082,-3.16679 2.58227,-4.5 3.98777,-4.5 1.09847,0 2.27215,-0.44485 2.60817,-0.98855 0.350343,-0.56686 -0.0511,-0.7345 -0.94098,-0.39301 -2.26102,0.86764 -1.89899,-0.93206 0.5326,-2.64768 1.146503,-0.80892 2.740673,-2.72297 3.542593,-4.25346 0.80193,-1.53049 1.8554,-2.53713 2.34105,-2.23698 1.00198,0.61926 -2.08301,8.40935 -6.496083,16.40362 -1.63466,2.96116 -3.73468,6.83821 -4.66672,8.61567 -4.40658,8.4036 -12.64023,13.99692 -16.92153,11.4952 z m -153.88387,-46.64163 c -3.39447,-1.10641 -9.97279,-3.89407 -17.72997,-7.51333 -4.52648,-2.11192 -8.91398,-3.83986 -9.75,-3.83986 -0.83602,0 -1.52004,-0.45 -1.52004,-1 0,-0.55708 -2.69444,-1 -6.08333,-1 -6.14956,0 -7.32356,-1.07919 -3.67658,-3.37965 1.68957,-1.06575 19.25474,0.85406 21.25991,2.32363 0.55,0.40309 5.1417,2.20328 10.20378,4.00042 11.99097,4.25703 13.0749,5.05117 11.52809,8.44606 -1.20969,2.65499 -1.58045,2.82695 -4.23186,1.96273 z m 98.00001,-34.84065 c 0,-3.88289 2.14507,-5.62921 13.30678,-10.83313 3.19372,-1.48901 6.76607,-3.60102 7.93856,-4.69335 1.17248,-1.09234 2.56308,-1.98606 3.09023,-1.98606 0.52715,0 2.88053,-1.575 5.22973,-3.5 5.00477,-4.10103 6.4347,-4.36093 6.4347,-1.16952 0,1.59605 -1.33934,3.29283 -4.25,5.38422 -2.3375,1.67956 -5.375,4.1629 -6.75,5.51853 -2.23746,2.20594 -10.51445,8.24853 -17.82284,13.0115 -4.57944,2.98448 -7.17716,2.35753 -7.17716,-1.73219 z m -53.75001,-17.45033 c -0.9625,-1.06578 -3.1,-3.5897 -4.75,-5.6087 -1.65,-2.019 -4.09222,-4.85621 -5.42716,-6.3049 -8.72856,-9.47233 -18.27138,-37.09756 -11.33381,-32.80991 0.52502,0.32448 0.99658,2.06851 1.04791,3.87563 0.11856,4.17411 2.22492,11.78566 3.26146,11.78566 0.43366,0 1.76926,1.58694 2.96799,3.52653 1.19873,1.93958 2.88153,4.22854 3.73956,5.08656 1.56673,1.56673 3.11606,3.61203 8.83066,11.65743 4.39684,6.19019 5.74394,13.31011 1.66339,8.7917 z"
       id="path5478"
       inkscape:connector-curvature="0" />
  </g>
</svg>
