<?xml version="1.0" encoding="UTF-8" standalone="no"?>
<!-- Created with Inkscape (http://www.inkscape.org/) -->

<svg
   xmlns:dc="http://purl.org/dc/elements/1.1/"
   xmlns:cc="http://creativecommons.org/ns#"
   xmlns:rdf="http://www.w3.org/1999/02/22-rdf-syntax-ns#"
   xmlns:svg="http://www.w3.org/2000/svg"
   xmlns="http://www.w3.org/2000/svg"
   xmlns:sodipodi="http://sodipodi.sourceforge.net/DTD/sodipodi-0.dtd"
   xmlns:inkscape="http://www.inkscape.org/namespaces/inkscape"
   width="69.567421mm"
   height="76.762276mm"
   viewBox="0 0 246.49876 271.99232"
   id="svg4723"
   version="1.1"
   inkscape:version="0.91 r13725"
   sodipodi:docname="6.svg">
  <defs
     id="defs4725" />
  <sodipodi:namedview
     id="base"
     pagecolor="#ffffff"
     bordercolor="#666666"
     borderopacity="1.0"
     inkscape:pageopacity="0.0"
     inkscape:pageshadow="2"
     inkscape:zoom="1.979899"
     inkscape:cx="-22.575951"
     inkscape:cy="97.213263"
     inkscape:document-units="px"
     inkscape:current-layer="layer1"
     showgrid="false"
     fit-margin-top="0"
     fit-margin-left="0"
     fit-margin-right="0"
     fit-margin-bottom="0"
     inkscape:window-width="1920"
     inkscape:window-height="1003"
     inkscape:window-x="-9"
     inkscape:window-y="-9"
     inkscape:window-maximized="1" />
  <metadata
     id="metadata4728">
    <rdf:RDF>
      <cc:Work
         rdf:about="">
        <dc:format>image/svg+xml</dc:format>
        <dc:type
           rdf:resource="http://purl.org/dc/dcmitype/StillImage" />
        <dc:title></dc:title>
      </cc:Work>
    </rdf:RDF>
  </metadata>
  <g
     inkscape:label="Ebene 1"
     inkscape:groupmode="layer"
     id="layer1"
     transform="translate(329.34496,-192.23434)">
    <path
       style="fill:#000000"
       d="m -222.4337,463.75132 c -5.57204,-0.42744 -9.3517,-1.24991 -10.97251,-2.38768 -1.35988,-0.9546 -3.46524,-1.73564 -4.67857,-1.73564 -1.21334,0 -2.85964,-0.65357 -3.65845,-1.45238 -0.79881,-0.79881 -1.61845,-1.29091 -1.82143,-1.09356 -3.90981,3.8015 -26.93315,-8.27694 -25.58728,-13.42353 0.27343,-1.04563 -0.0761,-2.71959 -0.77676,-3.71992 -5.56079,-7.93913 -2.37545,-39.82462 5.03114,-50.36205 1.90512,-2.71043 3.46385,-5.1992 3.46385,-5.53058 0,-0.33139 0.86521,-1.70247 1.9227,-3.04684 1.05748,-1.34437 3.14224,-6.27433 4.63281,-10.95547 2.76215,-8.67453 4.3364,-10.12902 6.77371,-6.2584 1.34222,2.13154 -1.47631,12.16571 -5.57369,19.84272 -1.61451,3.025 -4.46998,8.34987 -6.3455,11.83305 -1.87551,3.48318 -3.41537,7.30818 -3.4219,8.5 -0.007,1.19182 -0.68261,4.64195 -1.5024,7.66695 -2.68544,9.90919 -2.13561,20.08588 1.49153,27.60653 3.43555,7.12339 3.3365,7.05078 10.53648,7.7231 2.75756,0.2575 9.05756,2.1192 14.00001,4.13712 17.22248,7.03167 53.74417,5.55755 66.24,-2.67363 2.06045,-1.35725 5.06951,-2.79602 6.6868,-3.19729 1.61729,-0.40126 4.60704,-2.04947 6.6439,-3.66269 2.03686,-1.61322 4.01649,-2.93313 4.39918,-2.93313 0.86642,0 4.4379,-4.21563 4.48312,-5.2917 0.0183,-0.43544 1.40656,-3.72898 3.08503,-7.319 l 3.05175,-6.52729 -2.03108,-3.18102 c -1.11709,-1.74955 -2.5934,-4.306 -3.2807,-5.681 -0.68729,-1.375 -1.71303,-2.7991 -2.27942,-3.16468 -2.76873,-1.78706 -8.48624,-8.06848 -8.02437,-8.81581 0.28849,-0.46678 0.12799,-0.99962 -0.35666,-1.1841 -0.99529,-0.37884 -9.13128,-13.44116 -9.13128,-14.66025 0,-1.41478 -5.25603,-7.17516 -6.54694,-7.17516 -2.26637,0 -18.47719,-8.11785 -21.14131,-10.58688 -3.2375,-3.00041 -3.66039,-2.99873 -5.27647,0.0209 -2.91225,5.44159 -23.31006,8.76992 -30.81175,5.02758 -4.98232,-2.48551 -9.22355,-8.00178 -9.22355,-11.99643 0,-4.66832 2.97433,-4.67649 6.52757,-0.018 3.36089,4.40635 9.64964,6.88456 15.76414,6.21218 4.90904,-0.53981 11.7083,-3.31566 11.7083,-4.77999 0,-0.49097 1.125,-1.87084 2.5,-3.06639 1.375,-1.19555 2.5,-2.75174 2.5,-3.4582 0,-1.92891 3.88929,-3.627 6.91927,-3.021 3.72838,0.74568 4.93438,-0.30223 5.61139,-4.8758 0.86043,-5.81271 1.4952,-7.57937 4.11053,-11.44019 1.29735,-1.91517 2.36366,-4.16517 2.36959,-5 0.006,-0.83483 1.71995,-3.31786 3.80894,-5.51786 4.83175,-5.08852 12.49833,-20.09671 11.76284,-23.02711 -0.29574,-1.17834 -0.1055,-3.64949 0.42277,-5.49144 1.22492,-4.27106 1.15712,-4.31087 -4.09934,-2.40685 -2.42329,0.87778 -7.17933,1.73642 -10.56897,1.90808 -3.38964,0.17166 -7.89706,0.60508 -10.01649,0.96316 -3.40739,0.57567 -4.18922,0.30064 -6.75329,-2.37566 l -2.89977,-3.02671 -5.58374,3.15307 c -3.07105,1.7342 -6.65692,3.97442 -7.96859,4.97827 -5.12105,3.91925 -9.11514,1.48732 -9.11514,-5.55006 0,-5.4519 -4.71291,-5.06639 -18.74133,1.53301 -8.64012,4.06458 -18.4065,1.99673 -20.66057,-4.37451 -1.89226,-5.34856 -0.19104,-6.17331 5.827,-2.82493 5.55461,3.09053 6.64712,3.10431 11.57489,0.14592 2.38751,-1.43333 9.01857,-3.85756 15.25001,-5.57519 3.1625,-0.87171 5.75,-1.96776 5.75,-2.43567 0,-1.3484 5.79229,-3.38707 7.6251,-2.68376 1.40797,0.54029 1.57284,1.68937 1.08215,7.54229 l -0.57888,6.90489 3.68581,-2.07883 c 2.0272,-1.14335 4.81082,-2.78992 6.18582,-3.65903 7.29944,-4.61383 12,-4.41661 12,0.5035 0,3.20272 7.90139,3.62409 18.5,0.98657 2.76936,-0.68916 8.23445,-1.05222 12.25001,-0.8138 l 7.25,0.43047 0,3.82814 c 0,2.10548 -0.42137,4.08856 -0.93637,4.40684 -0.515,0.31829 -0.88734,1.35735 -0.82741,2.30902 0.16091,2.55553 -11.88492,26.06386 -15.83267,30.89861 -1.87195,2.29257 -3.40356,4.45793 -3.40356,4.81193 0,0.35399 -1.16672,3.10988 -2.59272,6.12419 -1.42599,3.0143 -2.71619,6.60538 -2.8671,7.98017 -0.85652,7.80263 -6.3972,13.63164 -9.30383,9.78797 -1.37895,-1.8235 -1.40714,-1.82233 -1.07619,0.0448 0.28963,1.63408 9.83984,9.50079 9.83984,8.10529 0,-2.53497 18.90545,8.65469 18.96909,11.22733 0.017,0.6875 0.42551,1.25 0.90778,1.25 0.48227,0 1.88017,2.3625 3.10645,5.25 1.22627,2.8875 3.02905,6.15 4.00617,7.25 0.97711,1.1 2.54369,3.51649 3.48127,5.36998 0.94098,1.86019 2.9552,3.84198 4.49594,4.42355 1.85028,0.6984 3.75911,2.87393 5.66228,6.45339 1.57907,2.9699 3.51549,6.6043 4.30315,8.07645 4.0619,7.59166 0.0875,23.3471 -7.48605,29.67664 -19.69251,16.45784 -43.34209,23.00933 -74.44608,20.62332 z m 19.61678,-11.67958 c -0.33923,-0.88403 -0.61678,-2.54895 -0.61678,-3.69984 0,-2.07483 -0.0204,-2.07335 -2.41451,0.17579 -2.55792,2.40304 -4.58549,0.97041 -4.58549,-3.24001 0,-0.79849 -1.4625,-2.1723 -3.25,-3.05292 -7.63232,-3.7601 -17.17787,-21.68021 -11.51182,-21.61145 2.29721,0.0279 4.00817,1.72349 4.28515,4.2467 0.55102,5.0197 5.888,11.19046 9.13746,10.56497 4.29952,-0.82762 1.96675,-26.77534 -2.41079,-26.81552 -0.6875,-0.006 -1.25,-0.67559 -1.25,-1.4873 0,-0.81171 -0.8871,-2.93455 -1.97133,-4.71743 -4.06926,-6.69135 -3.81107,-11.34925 0.85584,-15.44008 2.60196,-2.28077 4.11549,-4.46089 4.11549,-5.92805 0,-5.15861 4.46715,-3.94914 6.14915,1.66487 1.59369,5.31925 2.581,4.89523 2.21187,-0.94992 -0.34487,-5.46086 1.38046,-8.85048 3.99437,-7.84742 1.36362,0.52326 1.6713,2.38772 1.80084,10.91248 0.0859,5.65476 0.28055,11.40638 0.4325,12.78138 0.69434,6.28285 0.2391,36.91864 -0.60181,40.50001 -0.51656,2.2 -0.94994,6.0824 -0.96306,8.62756 -0.0254,4.91869 -2.23598,8.368 -3.40708,5.31618 z m 0.38322,-43.14375 c 0,-2.28055 -0.35412,-3.33555 -0.92307,-2.75 -0.83771,0.86215 -0.3702,6.45 0.53965,6.45 0.21088,0 0.38342,-1.665 0.38342,-3.7 z m -7.22618,-10.55819 c -0.51616,-6.1585 -1.72129,-7.68968 -3.45218,-4.38616 -1.24839,2.38263 -1.16662,2.93502 0.83531,5.64277 2.87622,3.89029 3.0416,3.81087 2.61687,-1.25661 z m -40.42565,-44.94305 c -1.0488,-1.81432 -3.01869,-5.76577 -4.37754,-8.78101 -1.35885,-3.01524 -3.86833,-8.19024 -5.57662,-11.5 -1.70829,-3.30977 -4.03082,-7.81775 -5.16116,-10.01775 -6.92737,-13.48278 -10.47326,-30.50001 -6.3553,-30.50001 2.54324,0 4.4237,2.47545 3.67424,4.8368 -0.33739,1.06303 0.34114,4.34712 1.50784,7.29799 1.1667,2.95087 2.80882,7.39021 3.64914,9.86521 0.84032,2.475 2.43234,5.77554 3.53782,7.33453 1.10548,1.55899 3.52233,6.42048 5.37078,10.80332 1.84845,4.38284 4.47562,9.87107 5.83816,12.19607 3.05478,5.21258 3.76734,10.93812 1.42201,11.42606 -0.99237,0.20646 -2.36301,-0.94353 -3.52937,-2.96121 z"
       id="path5491"
       inkscape:connector-curvature="0" />
  </g>
</svg>
