<?xml version="1.0" encoding="UTF-8" standalone="no"?>
<!-- Created with Inkscape (http://www.inkscape.org/) -->

<svg
   xmlns:dc="http://purl.org/dc/elements/1.1/"
   xmlns:cc="http://creativecommons.org/ns#"
   xmlns:rdf="http://www.w3.org/1999/02/22-rdf-syntax-ns#"
   xmlns:svg="http://www.w3.org/2000/svg"
   xmlns="http://www.w3.org/2000/svg"
   xmlns:sodipodi="http://sodipodi.sourceforge.net/DTD/sodipodi-0.dtd"
   xmlns:inkscape="http://www.inkscape.org/namespaces/inkscape"
   width="69.567421mm"
   height="76.762276mm"
   viewBox="0 0 246.49876 271.99232"
   id="svg4723"
   version="1.1"
   inkscape:version="0.91 r13725"
   sodipodi:docname="7.svg">
  <defs
     id="defs4725" />
  <sodipodi:namedview
     id="base"
     pagecolor="#ffffff"
     bordercolor="#666666"
     borderopacity="1.0"
     inkscape:pageopacity="0.0"
     inkscape:pageshadow="2"
     inkscape:zoom="1.979899"
     inkscape:cx="-22.575951"
     inkscape:cy="97.213263"
     inkscape:document-units="px"
     inkscape:current-layer="layer1"
     showgrid="false"
     fit-margin-top="0"
     fit-margin-left="0"
     fit-margin-right="0"
     fit-margin-bottom="0"
     inkscape:window-width="1920"
     inkscape:window-height="1003"
     inkscape:window-x="-9"
     inkscape:window-y="-9"
     inkscape:window-maximized="1" />
  <metadata
     id="metadata4728">
    <rdf:RDF>
      <cc:Work
         rdf:about="">
        <dc:format>image/svg+xml</dc:format>
        <dc:type
           rdf:resource="http://purl.org/dc/dcmitype/StillImage" />
        <dc:title></dc:title>
      </cc:Work>
    </rdf:RDF>
  </metadata>
  <g
     inkscape:label="Ebene 1"
     inkscape:groupmode="layer"
     id="layer1"
     transform="translate(329.34496,-192.23434)">
    <path
       style="fill:#000000"
       d="m -198.4338,463.75119 c -5.57203,-0.42744 -9.3517,-1.24991 -10.97251,-2.38768 -1.35988,-0.9546 -3.46523,-1.73564 -4.67857,-1.73564 -1.21333,0 -2.85964,-0.65357 -3.65845,-1.45238 -0.7988,-0.79881 -1.61845,-1.29091 -1.82142,-1.09356 -1.02944,1.00092 -18.46575,-3.666 -20.3658,-5.451 -1.59484,-1.49828 -3.50568,-2.00306 -7.58251,-2.00306 -3.53984,0 -6.7584,-0.70106 -9.18193,-2 -2.05236,-1.1 -4.60105,-2 -5.66376,-2 -1.06271,0 -2.58577,-0.65357 -3.38458,-1.45238 -0.79881,-0.79881 -1.61845,-1.29091 -1.82143,-1.09356 -3.90981,3.8015 -26.93315,-8.27694 -25.58728,-13.42354 0.27343,-1.04563 -0.0761,-2.71959 -0.77676,-3.71992 -5.56079,-7.93913 -2.37545,-39.82461 5.03114,-50.36204 1.90512,-2.71043 3.46385,-5.1992 3.46385,-5.53058 0,-0.33139 0.86521,-1.70247 1.92269,-3.04684 1.05749,-1.34437 3.14225,-6.27434 4.63282,-10.95548 2.76215,-8.67453 4.3364,-10.12902 6.77371,-6.2584 1.34222,2.13155 -1.47631,12.16571 -5.57369,19.84273 -1.61451,3.025 -4.46998,8.34987 -6.3455,11.83305 -1.87551,3.48318 -3.41537,7.30818 -3.4219,8.5 -0.007,1.19182 -0.68261,4.64195 -1.5024,7.66695 -2.68544,9.90918 -2.13561,20.08587 1.49153,27.60652 3.43442,7.12106 3.33747,7.0499 10.52274,7.7241 2.75,0.25803 9.05,2.05016 14,3.9825 12.26101,4.78637 20.06487,5.79101 16.59893,2.13689 -1.2563,-1.32451 -2.2432,-8.4328 -2.56155,-18.45001 -0.14858,-4.675 -0.58869,-9.67628 -0.97802,-11.11395 -0.56278,-2.07816 -0.31665,-2.71626 1.20084,-3.11309 1.40839,-0.3683 2.21453,-2.02193 3.07541,-6.30858 0.64169,-3.1952 1.90991,-6.63068 2.81827,-7.63441 1.53543,-1.69663 1.53535,-2.18479 -0.001,-6.9423 -2.3685,-7.33362 -2.11843,-8.70778 2.28741,-12.56976 2.30817,-2.02325 4.06848,-4.53271 4.25,-6.05872 0.40438,-3.39948 2.15132,-3.88245 4.58695,-1.26809 l 1.95501,2.09845 0.62401,-3.12001 c 0.68169,-3.4085 3.09054,-3.80194 4.97312,-0.81226 1.34222,2.13154 -1.47631,12.16571 -5.57369,19.84272 -1.61451,3.025 -4.46998,8.34987 -6.3455,11.83305 -1.87551,3.48318 -3.41537,7.30818 -3.4219,8.5 -0.007,1.19182 -0.68261,4.64195 -1.5024,7.66695 -2.68544,9.90918 -2.13561,20.08588 1.49153,27.60653 3.43555,7.12339 3.33649,7.05078 10.53648,7.7231 2.75756,0.2575 9.05756,2.1192 14,4.13712 17.22249,7.03167 53.74418,5.55755 66.24001,-2.67363 2.06044,-1.35725 5.0695,-2.79602 6.68679,-3.19729 1.61729,-0.40126 4.60704,-2.04947 6.6439,-3.66269 2.03686,-1.61322 4.01649,-2.93313 4.39918,-2.93313 0.86642,0 4.4379,-4.21563 4.48312,-5.2917 0.0183,-0.43544 1.40656,-3.72899 3.08503,-7.31901 l 3.05175,-6.52729 -2.03108,-3.18101 c -1.11709,-1.74955 -2.5934,-4.306 -3.2807,-5.681 -0.68729,-1.375 -1.71303,-2.7991 -2.27942,-3.16468 -2.76873,-1.78706 -8.48624,-8.06848 -8.02437,-8.81581 0.28849,-0.46678 0.12799,-0.99962 -0.35666,-1.1841 -0.99524,-0.37884 -9.13123,-13.44116 -9.13123,-14.66025 0,-1.41478 -5.25602,-7.17516 -6.54694,-7.17516 -2.26636,0 -18.47719,-8.11785 -21.14132,-10.58688 -3.23749,-3.00042 -3.66038,-2.99874 -5.27646,0.0209 -2.91225,5.44159 -23.31005,8.76992 -30.81175,5.02758 -4.98231,-2.48547 -9.22354,-8.00176 -9.22354,-11.9964 0,-4.66832 2.97432,-4.6765 6.52757,-0.0179 3.36088,4.40634 9.64964,6.88456 15.76413,6.21218 4.90905,-0.53981 11.7083,-3.31566 11.7083,-4.77999 0,-0.49097 1.125,-1.87085 2.5,-3.06639 1.375,-1.19555 2.5,-2.75174 2.5,-3.45821 0,-1.9289 3.88928,-3.62699 6.91926,-3.02099 3.72839,0.74567 4.93438,-0.30223 5.61139,-4.8758 0.86044,-5.81272 1.49521,-7.57937 4.11054,-11.44019 1.29735,-1.91518 2.36367,-4.16518 2.3696,-5.00001 0.006,-0.83482 1.71995,-3.31786 3.80894,-5.51786 4.83175,-5.08851 12.49832,-20.09671 11.76283,-23.02711 -0.29574,-1.17834 -0.1055,-3.64948 0.42277,-5.49143 1.22492,-4.27107 1.15712,-4.31088 -4.09933,-2.40685 -2.42329,0.87778 -7.17933,1.73641 -10.56897,1.90807 -3.38965,0.17166 -7.89707,0.60509 -10.0165,0.96316 -3.40739,0.57568 -4.18922,0.30065 -6.75329,-2.37566 l -2.89977,-3.02671 -5.58374,3.15308 c -3.07105,1.73419 -6.65692,3.97441 -7.96859,4.97826 -5.12105,3.91925 -9.11514,1.48732 -9.11514,-5.55006 0,-5.45736 -4.71252,-5.06699 -18.79072,1.55659 -9.94061,4.6769 -21.20928,0.97 -21.20928,-6.97693 0,-1.54656 -0.52451,-1.82681 -2.65633,-1.41928 -3.40394,0.6507 -5.34367,-1.86023 -5.34367,-6.91725 0,-5.71555 -4.50956,-5.40518 -18.74133,1.28988 -8.64012,4.06458 -18.4065,1.99673 -20.66057,-4.37451 -1.89226,-5.34856 -0.19104,-6.17331 5.827,-2.82493 5.55461,3.09053 6.64712,3.10431 11.57489,0.14592 2.38751,-1.43333 9.01857,-3.85756 15.25,-5.57519 3.1625,-0.87171 5.75001,-1.96776 5.75001,-2.43567 0,-1.3484 5.79229,-3.38707 7.6251,-2.68376 1.40797,0.54029 1.57283,1.68937 1.08215,7.54229 l -0.57888,6.90489 3.68581,-2.07883 c 2.0272,-1.14335 4.81082,-2.78992 6.18582,-3.65903 7.29944,-4.61383 12,-4.41661 12,0.5035 0,3.20272 7.90139,3.62409 18.5,0.98657 2.76935,-0.68916 8.23444,-1.05222 12.25,-0.8138 l 7.25,0.43047 0,3.82814 c 0,2.10548 -0.42137,4.08856 -0.93637,4.40685 -0.515,0.31828 -0.87159,1.43867 -0.79241,2.48974 0.0805,1.06918 0.60316,1.61472 1.18637,1.2384 5.73358,-3.69964 10.54241,-3.0457 10.54241,1.43363 0,3.20272 7.90139,3.62409 18.50001,0.98658 2.76935,-0.68917 8.23444,-1.05223 12.25,-0.81381 l 7.25,0.43048 0,3.82813 c 0,2.10548 -0.42137,4.08856 -0.93637,4.40685 -0.515,0.31829 -0.88734,1.35734 -0.82741,2.30902 0.16091,2.55552 -11.88492,26.06386 -15.83266,30.89861 -1.87196,2.29256 -3.40356,4.45793 -3.40356,4.81192 0,0.354 -1.16672,3.10988 -2.59272,6.12419 -1.426,3.01431 -2.7162,6.60539 -2.86712,7.98017 -0.85651,7.80264 -6.3972,13.63165 -9.30382,9.78797 -1.37895,-1.8235 -1.40714,-1.82233 -1.0762,0.0448 0.28964,1.63408 9.83985,9.50079 9.83985,8.10529 0,-2.53497 18.90545,8.65469 18.96909,11.22733 0.017,0.6875 0.42551,1.25 0.90778,1.25 0.48227,0 1.88017,2.3625 3.10645,5.25 1.22627,2.8875 3.02905,6.15 4.00617,7.25 0.97711,1.10001 2.54369,3.5165 3.48127,5.36999 0.94098,1.86019 2.9552,3.84198 4.49594,4.42355 1.85028,0.6984 3.75911,2.87393 5.66228,6.45339 1.57907,2.9699 3.51549,6.6043 4.30315,8.07645 4.0619,7.59165 0.0875,23.34709 -7.48605,29.67663 -19.69251,16.45785 -43.34209,23.00934 -74.44608,20.62333 z m -36.98894,-82.144 c 0.59478,-1.11136 0.77148,-2.52216 0.39267,-3.1351 -0.63306,-1.02431 -3.27501,2.4314 -3.3683,4.40577 -0.0726,1.53565 1.9318,0.67974 2.97563,-1.27067 z m 42.98894,-94.09738 c 0,-1.1 -0.45,-1.72189 -1,-1.38197 -0.55,0.33992 -1,1.51804 -1,2.61804 0,1.1 0.45,1.72188 1,1.38196 0.55,-0.33991 1,-1.51803 1,-2.61803 z m -32.13383,-0.22321 c 1.60992,-1.29211 6.84819,-3.30448 13.13383,-5.04559 6.00974,-1.6647 2.20371,-2.84072 -4.53926,-1.40258 -4.43613,0.94613 -4.80414,0.84989 -7.80815,-2.04208 l -3.15259,-3.03502 -6.25,3.52445 c -7.49393,4.22592 -7.49983,4.25573 -1.5,7.57876 4.68729,2.59609 7.27298,2.70396 10.11617,0.42206 z m 32.51221,-7.90876 c 0.39164,-1.63254 0.24563,-2.75 -0.35933,-2.75 -0.56048,0 -1.01905,1.425 -1.01905,3.16667 0,3.64128 0.43653,3.50932 1.37838,-0.41667 z m 13.2384,172.69377 c -0.33923,-0.88403 -0.61678,-2.54895 -0.61678,-3.69984 0,-2.07483 -0.0204,-2.07335 -2.41451,0.17579 -2.55792,2.40304 -4.58549,0.97041 -4.58549,-3.24001 0,-0.79849 -1.4625,-2.1723 -3.25,-3.05292 -7.63232,-3.7601 -17.17787,-21.68022 -11.51182,-21.61146 2.29721,0.0279 4.00817,1.72349 4.28515,4.2467 0.55103,5.0197 5.888,11.19047 9.13746,10.56498 4.29952,-0.82762 1.96675,-26.77534 -2.41079,-26.81552 -0.6875,-0.006 -1.25,-0.67559 -1.25,-1.4873 0,-0.81171 -0.8871,-2.93455 -1.97133,-4.71743 -4.06926,-6.69135 -3.81107,-11.34925 0.85585,-15.44008 2.60196,-2.28077 4.11548,-4.46089 4.11548,-5.92805 0,-5.15861 4.46715,-3.94914 6.14915,1.66487 1.59369,5.31925 2.581,4.89523 2.21187,-0.94992 -0.34487,-5.46086 1.38046,-8.85048 3.99437,-7.84742 1.36362,0.52326 1.6713,2.38772 1.80083,10.91248 0.0859,5.65476 0.28056,11.40638 0.43251,12.78138 0.69433,6.28285 0.2391,36.91864 -0.60181,40.50001 -0.51656,2.2 -0.94994,6.0824 -0.96306,8.62756 -0.0254,4.91869 -2.23598,8.368 -3.40708,5.31618 z m 0.38322,-43.14375 c 0,-2.28055 -0.35412,-3.33555 -0.92307,-2.75 -0.83771,0.86215 -0.3702,6.45 0.53965,6.45 0.21088,0 0.38342,-1.665 0.38342,-3.7 z m -7.22618,-10.55819 c -0.51616,-6.1585 -1.72129,-7.68968 -3.45218,-4.38616 -1.24839,2.38263 -1.16662,2.93502 0.83531,5.64277 2.87622,3.89029 3.0416,3.81087 2.61687,-1.25661 z m -71.92769,-42.2839 c -4.75205,-2.64097 -8.84614,-8.19132 -8.84614,-11.99271 0,-4.66832 2.97432,-4.6765 6.52757,-0.0179 4.90471,6.4304 15.16596,8.16466 23.87004,4.03431 5.87343,-2.78713 5.30578,-6.03299 -3.97764,-22.74447 -7.4817,-13.46813 -11.92114,-32.73711 -7.54241,-32.73711 2.54325,0 4.42371,2.47545 3.67424,4.8368 -0.33739,1.06303 0.34114,4.34713 1.50784,7.29799 1.16671,2.95087 2.80882,7.39022 3.64914,9.86522 0.84033,2.475 2.43235,5.77553 3.53783,7.33452 1.10548,1.55899 3.52233,6.42049 5.37077,10.80333 1.84845,4.38284 4.47562,9.87106 5.83816,12.19606 3.13324,5.34648 3.77086,10.93815 1.30547,11.44851 -1.09718,0.22713 -2.16108,-0.56638 -2.88263,-2.15001 -0.98069,-2.15238 -1.34326,-2.31037 -2.54474,-1.10889 -3.5968,3.5968 -24.54466,5.68139 -29.4875,2.9344 z m -16.49796,-16.65916 c -1.0488,-1.81432 -3.01869,-5.76577 -4.37754,-8.78101 -1.35885,-3.01523 -3.86833,-8.19023 -5.57662,-11.5 -1.70829,-3.30976 -4.03082,-7.81775 -5.16116,-10.01775 -6.92737,-13.48278 -10.47326,-30.50001 -6.3553,-30.50001 2.54324,0 4.4237,2.47545 3.67424,4.8368 -0.33739,1.06303 0.34114,4.34712 1.50784,7.29799 1.1667,2.95087 2.80882,7.39022 3.64914,9.86522 0.84032,2.475 2.43234,5.77553 3.53782,7.33452 1.10548,1.55899 3.52233,6.42049 5.37078,10.80332 1.84845,4.38284 4.47562,9.87107 5.83815,12.19607 3.05479,5.21259 3.76735,10.93812 1.42202,11.42607 -0.99237,0.20646 -2.36301,-0.94353 -3.52937,-2.96122 z"
       id="path5504"
       inkscape:connector-curvature="0" />
  </g>
</svg>
