<?xml version="1.0" encoding="UTF-8" standalone="no"?>
<!-- Created with Inkscape (http://www.inkscape.org/) -->

<svg
   xmlns:dc="http://purl.org/dc/elements/1.1/"
   xmlns:cc="http://creativecommons.org/ns#"
   xmlns:rdf="http://www.w3.org/1999/02/22-rdf-syntax-ns#"
   xmlns:svg="http://www.w3.org/2000/svg"
   xmlns="http://www.w3.org/2000/svg"
   xmlns:sodipodi="http://sodipodi.sourceforge.net/DTD/sodipodi-0.dtd"
   xmlns:inkscape="http://www.inkscape.org/namespaces/inkscape"
   width="69.567421mm"
   height="76.762276mm"
   viewBox="0 0 246.49876 271.99232"
   id="svg4723"
   version="1.1"
   inkscape:version="0.91 r13725"
   sodipodi:docname="8.svg">
  <defs
     id="defs4725" />
  <sodipodi:namedview
     id="base"
     pagecolor="#ffffff"
     bordercolor="#666666"
     borderopacity="1.0"
     inkscape:pageopacity="0.0"
     inkscape:pageshadow="2"
     inkscape:zoom="1.4"
     inkscape:cx="249.81125"
     inkscape:cy="127.20099"
     inkscape:document-units="px"
     inkscape:current-layer="layer1"
     showgrid="false"
     fit-margin-top="0"
     fit-margin-left="0"
     fit-margin-right="0"
     fit-margin-bottom="0"
     inkscape:window-width="1920"
     inkscape:window-height="1003"
     inkscape:window-x="-9"
     inkscape:window-y="-9"
     inkscape:window-maximized="1" />
  <metadata
     id="metadata4728">
    <rdf:RDF>
      <cc:Work
         rdf:about="">
        <dc:format>image/svg+xml</dc:format>
        <dc:type
           rdf:resource="http://purl.org/dc/dcmitype/StillImage" />
        <dc:title></dc:title>
      </cc:Work>
    </rdf:RDF>
  </metadata>
  <g
     inkscape:label="Ebene 1"
     inkscape:groupmode="layer"
     id="layer1"
     transform="translate(329.34496,-192.23434)">
    <path
       style="fill:#000000"
       d="m -161.92194,463.04533 c -1.35638,-0.75099 -3.0874,-1.38138 -3.84671,-1.40086 -0.75931,-0.0195 -3.45931,-1.49929 -6,-3.28844 -2.54069,-1.78915 -5.81491,-3.8677 -7.27605,-4.619 -3.46192,-1.78008 -6.72976,-7.64162 -5.14421,-9.22717 0.84476,-0.84476 1.47548,-0.84553 2.46781,-0.003 16.46609,13.98037 30.25279,17.34198 51.75474,12.61936 5.83762,-1.28215 3.51094,4.01254 -2.52542,5.74696 -5.96174,1.71299 -26.43095,1.83271 -29.43016,0.17215 z m -107.46615,-1.5202 c -2.2,-0.54124 -6.81413,-2.10873 -10.25363,-3.48332 -4.4551,-1.78047 -6.7591,-2.22874 -8.01117,-1.55866 -3.23241,1.72994 -21.17347,-3.81239 -25.12161,-7.76053 -0.95426,-0.95426 -2.61552,-2.3827 -3.69169,-3.17431 -4.04366,-2.97444 -5.87586,-7.40227 -6.36428,-15.38041 -0.0317,-0.51762 -0.70233,-0.0676 -1.4903,1 -3.95923,5.36434 -6.50563,-9.36934 -4.07165,-23.55888 0.23586,-1.375 0.85506,-5.26592 1.376,-8.64648 0.52094,-3.38057 1.39333,-6.98057 1.93864,-8 0.54531,-1.01944 1.52508,-4.77852 2.17727,-8.35352 1.17299,-6.42986 2.87757,-12.03186 3.95565,-13 1.04461,-0.93809 3.05677,-4.97004 3.05677,-6.12513 0,-2.56184 8.14786,-17.99159 9.29274,-17.59784 2.65369,0.91267 -3.31392,24.75989 -8.24786,32.9594 -0.57468,0.95504 -1.04488,2.67223 -1.04488,3.81599 0,2.06654 -2.4662,13.59723 -5.97746,27.94758 -3.29223,13.45516 -3.2966,16.9833 -0.0225,18.20613 0.825,0.30812 2.83154,3.12447 4.45898,6.25854 5.50821,10.60754 15.54335,15.70464 31.00777,15.74961 5.06474,0.0147 8.29275,0.61603 11.53325,2.14836 5.80449,2.74475 25.09634,2.95464 34.42511,0.37452 3.25881,-0.90131 6.28532,-1.41612 6.72558,-1.14403 0.44025,0.2721 2.59267,-0.53675 4.78314,-1.79742 4.20944,-2.42265 8.59795,-0.3463 5.96738,2.82335 -3.78943,4.56598 -37.24834,10.54881 -46.40121,8.29705 z m 147.09795,-0.75765 c -0.61976,-1.00278 4.86527,-6.47732 8.40207,-8.386 1.375,-0.74204 4.975,-2.90481 8,-4.80616 3.025,-1.90136 5.84628,-3.34367 6.269514,-3.20515 1.32655,0.43419 7.73049,-5.99856 7.73049,-7.76527 0,-0.92552 0.96795,-4.34072 2.15101,-7.58932 4.8216,-13.23988 1.99581,-43.39181 -5.61435,-59.90656 -0.76034,-1.65 -1.69784,-4.26509 -2.08334,-5.81132 -0.50559,-2.02789 -2.19909,-3.65683 -6.077124,-5.84546 -2.95691,-1.66877 -5.3762,-3.34089 -5.3762,-3.71582 0,-4.63929 -14.00612,-12.1274 -22.68366,-12.1274 -0.17399,0 -0.31634,1.50526 -0.31634,3.34501 0,3.30302 -2.43213,6.65499 -4.82874,6.65499 -1.02357,0 -1.73403,-4.96584 -1.24957,-8.73403 0.0897,-0.69791 -0.47715,-0.99005 -1.30483,-0.67244 -1.5841,0.60787 -4.01316,-2.90464 -3.36122,-4.86046 0.21195,-0.63583 1.70363,-1.17338 3.31486,-1.19456 2.68229,-0.0353 2.95668,-0.37157 3.2516,-3.9854 0.17716,-2.17079 1.16718,-5.1337 2.20005,-6.58423 1.68259,-2.36298 2.73486,-18.75313 1.98825,-30.96889 -0.0594,-0.9722 -1.05231,-0.37839 -2.82175,1.68758 -1.50154,1.75316 -3.97229,3.65986 -5.49054,4.2371 -2.58053,0.98111 -2.74214,1.38565 -2.47929,6.20584 0.47638,8.7359 -1.76461,7.09707 -5.16332,-3.77593 -3.3632,-10.75942 -3.8465,-16.94918 -1.55484,-19.91346 1.75064,-2.26447 5.49933,0.91866 5.49933,4.66965 0,1.03907 0.45001,1.88922 1.00001,1.88922 0.55,0 1,0.63048 1,1.40106 0,1.03471 1.30712,1.36156 4.99891,1.25 3.11509,-0.0941 4.99932,-0.59988 5,-1.34204 0.002,-2.38546 2.20822,-2.46306 4.65585,-0.16379 2.161,2.03002 2.43487,2.97536 1.98581,6.85477 -0.28649,2.475 -0.98534,10.37768 -1.553,17.56151 -0.56766,7.18383 -1.71959,14.70688 -2.55984,16.71789 -2.17946,5.21618 -1.99244,5.59263 2.48039,4.9927 7.44689,-0.99884 13.84805,2.70837 22.65674,13.12158 1.75054,2.0694 2.75499,2.58648 3.52623,1.81524 6.047184,-6.04718 17.930194,29.3257 17.850364,53.13627 -0.015,4.48515 -0.18325,8.82982 -0.37381,9.65482 -0.19056,0.825 -0.71435,3.3 -1.16398,5.50001 -0.44963,2.2 -1.38005,5.35 -2.0676,7 -0.69829,1.67576 -1.03239,4.98636 -0.7569,7.5 0.52017,4.74602 -1.94625,9 -5.21812,9 -0.80357,0 -1.46104,0.36665 -1.46104,0.81479 0,0.44813 -1.4625,1.59159 -3.25,2.54101 -4.474484,2.37661 -6.117514,3.37388 -15.477234,9.3942 -8.73942,5.62134 -8.88441,5.6874 -9.67484,4.40845 z m -97.93127,-5.82512 c -1.62617,-1.62616 -0.32626,-3.48065 4.08333,-5.8254 2.6125,-1.38918 5.425,-2.92369 6.25,-3.41003 0.825,-0.48634 2.74654,-1.3768 4.27008,-1.97879 1.52354,-0.60199 3.20997,-2.11256 3.74761,-3.35682 0.53764,-1.24426 1.39116,-2.93729 1.8967,-3.76229 4.60407,-7.51343 5.62508,-20.55755 2.14361,-27.38624 -2.28323,-4.47843 -3.45347,-9.09438 -3.21933,-12.6985 0.15281,-2.3522 -7.13593,-18.73169 -8.86213,-19.91527 -0.40108,-0.275 -2.65656,-4.18997 -5.01219,-8.69993 -3.96214,-7.58571 -4.43955,-8.11566 -6.37365,-7.07491 -4.62356,2.48795 -9.90544,2.73774 -14.23671,0.67327 -4.10269,-1.95551 -14.35399,-11.32042 -14.35399,-13.11285 0,-0.51079 -1.0125,-0.81573 -2.25,-0.67765 -8.93541,0.99702 -18.98366,-8.0658 -15.71482,-14.17367 1.55763,-2.91047 3.91978,-2.34801 7.62564,1.81574 3.91602,4.39987 3.93158,4.36619 1.36158,-2.94593 -3.29478,-9.37425 -1.92934,-20.10022 5.21731,-40.98352 1.25721,-3.67369 2.61758,-7.01119 3.02306,-7.41666 1.67665,-1.67666 0.78254,-3.49852 -1.19703,-2.43908 -3.24814,1.73835 -7.82301,1.2121 -10.02679,-1.15338 -1.12142,-1.20371 -2.03895,-1.88849 -2.03895,-1.52173 0,0.36676 -0.87941,6.18911 -1.95424,12.93856 -1.07482,6.74945 -2.04179,17.67173 -2.14881,24.27173 -0.18783,11.58338 -2.07079,18.46244 -5.062,18.49318 -0.36578,0.004 -1.71578,0.894 -3,1.97832 -11.38728,9.61473 -20.83496,14.76677 -20.83496,11.3618 0,-2.00628 4.27741,-6.07416 5.8395,-5.55346 0.63828,0.21276 1.1605,-0.0891 1.1605,-0.67082 0,-0.58171 1.31135,-1.73577 2.91411,-2.56459 1.60276,-0.82882 5.23276,-3.76538 8.06666,-6.52568 2.8339,-2.76031 5.51745,-5.01875 5.96344,-5.01875 1.94464,0 3.12106,-2.76098 1.4497,-3.40234 -2.19615,-0.84274 -1.39413,-20.5106 1.58235,-38.80402 1.11254,-6.83767 1.07183,-7.88841 -0.36118,-9.32143 -2.53479,-2.53479 -1.13995,-5.47221 2.59849,-5.47221 0.99747,0 2.64786,-0.52102 3.66754,-1.15782 2.62742,-1.64085 5.1189,-0.36251 5.1189,2.62643 0,3.0692 0.46046,3.09994 6.489,0.43323 4.1469,-1.83437 4.92583,-1.91558 6.19549,-0.64592 1.26966,1.26966 2.13834,0.73295 6.90928,-4.26889 5.78175,-6.06156 12.12896,-8.53943 18.65623,-7.28316 5.12957,0.98727 2.43105,5.3747 -3.47242,5.64568 -1.80267,0.0828 -3.50258,0.4275 -3.77758,0.76611 -0.275,0.33862 -2.40323,1.58054 -4.7294,2.75982 -4.08042,2.06862 -7.94646,7.22195 -6.80432,9.06997 1.28777,2.08365 -1.44742,6.27575 -3.73131,5.71883 -2.06909,-0.50454 -2.48274,0.24847 -5.57318,10.14536 -1.83601,5.8797 -3.93338,12.49036 -4.66081,14.69036 -3.98808,12.06124 -4.08293,16.91806 -0.40226,20.59873 1.0457,1.0457 1.90128,2.83086 1.90128,3.96702 0,5.10334 1.56348,6.01489 6.54054,3.8133 9.45479,-4.1823 14.52292,0.0282 5.52331,4.58861 -6.20405,3.14383 -6.2036,2.98492 -0.0257,9.06994 5.3388,5.25854 16.14086,7.3615 19.1554,3.72919 0.57824,-0.69673 1.68543,-1.26678 2.46044,-1.26678 0.77501,0 4.09043,-0.90327 7.3676,-2.00727 4.98486,-1.67928 6.6546,-1.83142 10.21846,-0.93105 2.34297,0.59193 5.28822,1.32568 6.54499,1.63055 1.36611,0.3314 2.98954,-0.0832 4.03688,-1.03107 2.52117,-2.28163 5.99465,-1.15243 5.4365,1.76736 -0.98537,5.15461 15.73619,4.41704 18.44008,-0.81337 0.88572,-1.71333 2.82333,-4.69015 4.3058,-6.61515 3.49514,-4.53847 6.33344,-12.36051 5.47106,-15.07764 -0.37033,-1.16681 -0.79087,-3.19226 -0.93453,-4.501 -0.31131,-2.83594 -2.40899,-5.62089 -3.65414,-4.85134 -0.48768,0.3014 -0.88669,-0.61469 -0.88669,-2.03576 0,-1.83589 0.72363,-2.8589 2.5,-3.53427 2.76727,-1.05211 2.94191,-1.86916 1.50503,-7.04134 -0.96783,-3.48382 -5.62997,-10.71766 -6.56581,-10.18761 -0.52025,0.29468 -1.89525,-0.74534 -6.76709,-5.11846 -1.74467,-1.56607 -5.36066,-4.71607 -8.03552,-7 -2.67486,-2.28392 -5.38701,-4.60259 -6.02699,-5.15259 -6.75945,-5.8091 -8.22976,-6.18712 -13.46045,-3.46073 -6.01365,3.13449 -17.67657,-3.14083 -14.72207,-7.92132 0.27986,-0.45282 -0.13744,-1.6771 -0.92733,-2.72063 -0.78989,-1.04353 -1.47023,-2.79732 -1.51186,-3.89732 -0.0416,-1.1 -0.75803,-3.8 -1.59199,-6 -0.83396,-2.2 -2.18139,-6.68356 -2.99429,-9.96346 -0.81291,-3.2799 -2.10327,-6.6549 -2.86747,-7.5 -0.76421,-0.8451 -2.14998,-3.78655 -3.0795,-6.53655 -0.92952,-2.75 -1.97458,-5.225 -2.32235,-5.5 -0.34777,-0.275 -1.22217,-2.075 -1.94312,-4 -0.72094,-1.925 -2.45862,-6.53221 -3.8615,-10.23824 -3.06465,-8.09598 -2.63765,-10.19068 1.93383,-9.48661 2.07546,0.31965 3.85357,-0.0429 4.95123,-1.00947 3.74863,-3.30102 4.82,-1.03425 4.12681,8.73143 -0.40876,5.75864 -0.25074,9.87566 0.43312,11.28463 0.59217,1.22004 1.29458,3.34326 1.56091,4.71826 2.04095,10.53691 10.36617,37.98797 11.52249,37.99351 0.74584,0.004 2.241,1.1315 3.32258,2.5065 2.22007,2.82236 4.97387,3.22607 6.82134,1 0.68469,-0.825 1.91293,-1.5 2.72943,-1.5 0.90971,0 1.26134,-0.58167 0.90811,-1.50217 -0.31704,-0.8262 0.074,-4.9887 0.86909,-9.25 8.46401,-45.3661 8.46099,-45.85346 -0.22832,-36.78538 -10.20842,10.65342 -13.22308,10.85926 -18.33918,1.25222 -1.1087,-2.08192 -2.43926,-3.52361 -2.95681,-3.20375 -4.1029,2.53573 -7.03668,-11.85657 -3.19913,-15.69411 1.66929,-1.6693 4.91509,0.0406 6.26543,3.30056 0.69504,1.67798 2.30587,3.4471 3.57962,3.93138 1.3661,0.51939 2.56667,2.02284 2.92735,3.66587 1.06577,4.85491 1.51186,5.7884 2.2482,4.70456 0.38292,-0.56362 2.27121,-1.99859 4.19621,-3.18882 3.19731,-1.9769 4.90743,-3.71844 12.50073,-12.73037 1.39026,-1.65 3.06174,-4.4625 3.7144,-6.25 2.75369,-7.54183 7.47931,-2.21282 5.25542,5.92646 -0.80001,2.92795 -1.96193,7.57354 -2.58205,10.32354 -0.62012,2.75 -1.53373,5.77662 -2.03024,6.72583 -0.49651,0.9492 -1.78341,9.51777 -2.85976,19.04127 -1.07636,9.52351 -2.37915,18.64689 -2.89508,20.27418 -2.53808,8.00528 -2.46385,8.6968 0.85531,7.96779 3.24299,-0.71228 4.50874,2.62346 1.96189,5.17032 -0.7725,0.7725 0.64903,2.12933 5,4.7724 3.34366,2.03116 6.07938,4.11045 6.07938,4.62062 0,0.51018 0.63646,0.9276 1.41435,0.9276 0.77789,0 3.36539,1.78797 5.75,3.97327 2.38461,2.18529 4.65041,3.98529 5.03512,4 1.4637,0.0559 10.05382,13.24793 11.88014,18.24454 2.80918,7.68558 2.6582,28.37795 -0.24956,34.20336 -7.10635,14.2369 -23.88257,26.19299 -29.23811,20.83745 -1.54357,-1.54357 -5.3841,-1.24442 -6.06583,0.47248 -2.22575,5.60542 -5.71931,35.76337 -4.60691,39.76891 0.45823,1.65 0.86672,3.9 0.90777,5 0.041,1.1 0.49677,4.18089 1.01274,6.84643 1.15288,5.95596 0.88104,16.45247 -0.49603,19.15358 -0.5608,1.1 -2.2357,4.5168 -3.72199,7.59289 -2.98203,6.17169 -5.64114,7.96476 -17.53685,11.82522 -7.11276,2.30828 -7.46577,2.36763 -8.41817,1.41522 z m 24.28777,-70.67471 c -0.0826,-2.83725 0.33582,-9.20863 0.92989,-14.15863 0.59408,-4.95 1.08813,-9.4721 1.0979,-10.04911 0.0206,-1.21678 -5.6404,-3.45089 -8.74421,-3.45089 -1.16599,0 -2.38761,-0.43303 -2.71471,-0.96229 -0.5741,-0.92891 -4.87625,0.37469 -6.91703,2.09594 -0.88532,0.7467 2.14474,7.54931 6.84458,15.36635 3.43344,5.7107 6.1787,11.55664 6.94581,14.7909 1.04799,4.41842 2.72297,2.03979 2.55777,-3.63227 z m -62.72277,66.50573 c -0.69758,-0.44277 -1.76008,-3.59681 -2.36113,-7.00898 -0.81639,-4.63474 -1.6338,-6.49205 -3.23167,-7.34296 -11.79337,-6.28027 -18.34032,-16.02668 -14.65203,-21.81242 1.47717,-2.3172 4.4512,0.0772 4.82929,3.88814 0.24909,2.51056 1.51604,4.1282 5.97302,7.62634 6.69275,5.2529 6.71974,5.2278 7.65105,-7.11578 0.37767,-5.00571 1.26357,-11.90071 1.96866,-15.32222 l 1.28198,-6.22093 -4.48923,-3.42777 c -2.46907,-1.88528 -4.76201,-3.42858 -5.09542,-3.42957 -0.33341,-9.8e-4 -1.91922,-2.08005 -3.52404,-4.62016 -7.70394,-12.19383 0.57169,-27.24723 15.38356,-27.98273 3.34048,-0.16587 6.56018,-0.60231 7.15488,-0.96985 1.05264,-0.65057 2.43705,0.4579 9.3145,7.45794 1.82829,1.86088 3.78118,3.10096 4.33975,2.75575 2.565,-1.58527 1.73649,5.44861 -1.63266,13.86084 -2.03827,5.08922 -2.28389,5.83286 -3.79838,11.5 -3.23824,12.11731 -3.42265,14.74192 -1.46114,20.79575 2.28574,7.05451 4.29286,17.4995 3.71536,19.33468 -0.23704,0.75327 -0.69271,2.56954 -1.01261,4.03615 -1.02472,4.69792 -9.24391,6.82039 -16.14968,4.17039 -1.57881,-0.60584 -1.69283,-0.11697 -1.16516,4.99574 0.59127,5.72884 -0.0412,6.73437 -3.0389,4.83165 z m 7.76833,-21.1235 c 0,-2.72754 0.50043,-8.32381 1.11207,-12.43619 1.06763,-7.1783 0.005,-13.60467 -2.24934,-13.60467 -2.25343,0 -4.88965,28.73621 -2.75993,30.08471 3.00726,1.90413 3.8972,0.9807 3.8972,-4.04385 z m 7.56094,-2.65406 c -0.86946,-3.4642 -2.52216,-1.4662 -2.54563,3.0775 -0.0142,2.73973 0.10814,2.84083 1.61434,1.33463 1.14947,-1.14947 1.42387,-2.44951 0.93129,-4.41213 z m -1.09536,-37.8868 c 4.59401,-14.33084 4.87161,-16.05575 3.03498,-18.8588 -2.50974,-3.83034 -4.36606,-3.19284 -5.13435,1.76324 -0.17867,1.15256 -1.44529,6.54558 -2.8147,11.98449 l -2.48985,9.88893 2.19137,3.07749 2.19137,3.0775 0.86945,-3.46643 c 0.4782,-1.90653 1.44648,-5.26642 2.15173,-7.46642 z m -11.44849,-4.25 c 0.009,-2.0625 0.8357,-7.01121 1.8362,-10.99714 2.04877,-8.1621 2.02254,-8.25286 -2.3851,-8.25286 -9.98287,0 -13.04538,12.52335 -4.82974,19.75 4.71011,4.14312 5.35775,4.08291 5.37864,-0.5 z m 117.23292,63.09924 c -0.6875,-0.28374 -1.25,-1.75637 -1.25,-3.2725 0,-2.3536 -0.61737,-2.96036 -4.22282,-4.15026 -3.85525,-1.27235 -9.67671,-6.2144 -9.74788,-8.27534 -0.0161,-0.46688 -0.65546,-2.26688 -1.42076,-4 -2.9846,-6.75901 -3.92888,-12.35572 -2.44267,-14.47758 2.15257,-3.07322 4.39292,-0.63387 5.12303,5.57808 0.99892,8.49899 8.47148,17.36859 12.52322,14.86448 3.31507,-2.04882 3.12354,-39.1634 -0.23165,-44.88859 -3.25315,-5.55108 -3.56867,-13.2897 -0.66876,-16.40239 1.32238,-1.4194 1.89083,-3.43293 1.84399,-6.53162 -0.10362,-6.85412 1.93147,-8.97028 4.08378,-4.24647 0.63829,1.40088 1.16052,3.68121 1.16052,5.06739 0,1.94516 0.39937,2.39363 1.75,1.96513 0.9625,-0.30537 3.09388,0.25779 4.73641,1.25145 2.90517,1.75751 3.02997,1.75285 4.58804,-0.17129 2.70217,-3.33704 4.00958,-1.19899 3.46017,5.65852 -2.7221,33.97629 -6.15283,51.0545 -12.13441,60.40522 -2.47934,3.87582 -3.4139,6.38541 -3.20096,8.59559 0.30265,3.14124 -1.09037,4.21008 -3.94925,3.03018 z m 6.6352,-27.48414 c 1.04199,-6.30948 0.94266,-9.07273 -0.27973,-7.78177 -0.75253,0.79474 -2.23965,14.91668 -1.57082,14.91668 0.36974,0 1.20249,-3.21071 1.85055,-7.13491 z m 6.31518,-31.54018 c 0.48376,-10.80656 -0.40598,-13.30962 -4.45038,-12.51996 -2.68194,0.52365 -2.43714,13.28346 0.40033,20.86729 2.70608,7.23266 3.41831,5.76472 4.05005,-8.34733 z m 29.342334,50.74419 c -0.31644,-0.512 -0.11799,-1.21356 0.44098,-1.55902 0.55897,-0.34546 1.01631,0.0734 1.01631,0.9309 0,1.75653 -0.60006,2.01516 -1.45729,0.62812 z M -208.68808,347.40902 c -0.66,-0.66 -1.2,-2.00396 -1.2,-2.98658 0,-1.06586 -1.31108,-2.34334 -3.25,-3.16672 -7.74084,-3.28722 -12.3165,-11.13574 -10.26339,-17.60454 1.16598,-3.67365 3.51339,-2.42495 3.51339,1.86894 0,6.74493 9.80056,12.86855 10.14511,6.3389 0.14813,-2.80725 0.21002,-4.14417 0.7986,-17.25001 0.23476,-5.22733 -0.13244,-8.56058 -1.21178,-11 -3.93796,-8.90018 -2.47711,-19.40353 2.8515,-20.50189 1.32911,-0.27396 3.49212,-0.71927 4.80668,-0.98958 1.96932,-0.40495 2.68944,0.13933 4.09036,3.09156 l 1.70026,3.58304 1.90964,-2.04975 c 1.0503,-1.12736 1.90963,-2.74357 1.90963,-3.59157 0,-0.84799 0.45,-1.54181 1,-1.54181 1.22751,0 1.23011,0.30086 0.0612,7.06634 -0.51636,2.98851 -1.19787,8.35866 -1.51448,11.93366 -0.31661,3.575 -0.95023,9.13474 -1.40804,12.35497 -0.57876,4.07099 -0.45088,6.9656 0.41969,9.5 1.19095,3.46707 1.76481,8.19288 1.54298,12.70648 -0.0557,1.13379 -0.97674,3.00109 -2.0467,4.14956 -1.06996,1.14847 -2.32814,3.56521 -2.79594,5.37054 -1.13711,4.38823 -3.08935,4.82731 -4.52713,1.0182 -1.48408,-3.93168 -2.73158,-3.97723 -2.73158,-0.0997 0,3.14547 -1.66557,3.93443 -3.8,1.8 z m 7.50981,-16.3 c 0.11539,-2.2 0.41361,-4.7984 0.66271,-5.77421 0.67642,-2.64981 -1.34033,-9.15799 -2.4836,-8.01472 -2.26016,2.26016 -2.64727,18.3984 -0.43372,18.08159 1.62693,-0.23285 2.08768,-1.11008 2.25461,-4.29266 z m 3.69127,-35.09069 c 0.22763,-0.59988 0.0314,-1.70963 -0.43618,-2.46612 -2.12049,-3.43101 -4.8971,12.50313 -2.82637,16.21961 1.19337,2.14181 1.36687,1.71021 2.07545,-5.16281 0.42527,-4.125 0.95946,-7.99081 1.1871,-8.59068 z"
       id="path5400"
       inkscape:connector-curvature="0" />
  </g>
</svg>
