<?xml version="1.0" encoding="UTF-8" standalone="no"?>
<!-- Created with Inkscape (http://www.inkscape.org/) -->

<svg
   xmlns:dc="http://purl.org/dc/elements/1.1/"
   xmlns:cc="http://creativecommons.org/ns#"
   xmlns:rdf="http://www.w3.org/1999/02/22-rdf-syntax-ns#"
   xmlns:svg="http://www.w3.org/2000/svg"
   xmlns="http://www.w3.org/2000/svg"
   xmlns:sodipodi="http://sodipodi.sourceforge.net/DTD/sodipodi-0.dtd"
   xmlns:inkscape="http://www.inkscape.org/namespaces/inkscape"
   width="69.567421mm"
   height="76.762276mm"
   viewBox="0 0 246.49876 271.99232"
   id="svg4723"
   version="1.1"
   inkscape:version="0.91 r13725"
   sodipodi:docname="9.svg">
  <defs
     id="defs4725" />
  <sodipodi:namedview
     id="base"
     pagecolor="#ffffff"
     bordercolor="#666666"
     borderopacity="1.0"
     inkscape:pageopacity="0.0"
     inkscape:pageshadow="2"
     inkscape:zoom="1.979899"
     inkscape:cx="-22.575951"
     inkscape:cy="97.213263"
     inkscape:document-units="px"
     inkscape:current-layer="layer1"
     showgrid="false"
     fit-margin-top="0"
     fit-margin-left="0"
     fit-margin-right="0"
     fit-margin-bottom="0"
     inkscape:window-width="1920"
     inkscape:window-height="1003"
     inkscape:window-x="-9"
     inkscape:window-y="-9"
     inkscape:window-maximized="1" />
  <metadata
     id="metadata4728">
    <rdf:RDF>
      <cc:Work
         rdf:about="">
        <dc:format>image/svg+xml</dc:format>
        <dc:type
           rdf:resource="http://purl.org/dc/dcmitype/StillImage" />
        <dc:title></dc:title>
      </cc:Work>
    </rdf:RDF>
  </metadata>
  <g
     inkscape:label="Ebene 1"
     inkscape:groupmode="layer"
     id="layer1"
     transform="translate(329.34496,-192.23434)">
    <path
       style="fill:#000000"
       d="m -226.17163,461.68043 c -12.9851,-8.38502 -35.36122,-40.04956 -28.30149,-40.04956 1.53484,0 9.21218,9.7101 9.21218,11.65133 0,1.05236 11.09845,14.57851 15.67081,19.09868 4.61214,4.55949 5.31115,4.86804 7.06198,3.11722 2.33922,-2.33923 4.40088,-0.13094 4.07516,4.365 -0.38259,5.28076 -1.82809,5.6211 -7.71864,1.81733 z m 22.56569,0.12171 c -2.35632,-2.60369 -2.2209,-6.55251 0.20298,-5.91865 3.6223,0.94725 5.20961,-0.97779 4.49437,-5.45065 -0.63368,-3.9628 -0.57597,-4.0749 1.79177,-3.48064 2.06609,0.51856 3.06151,-0.1707 6.40121,-4.43241 2.17508,-2.77556 4.85468,-6.07014 5.95468,-7.3213 6.11342,-6.95351 12.50797,-14.5967 16.31856,-19.50501 5.54718,-7.14515 8.41207,-10.71085 15.2175,-18.93999 3.04483,-3.68182 6.61549,-8.47811 7.93481,-10.65842 2.06321,-3.40966 3.61487,-5.57837 7.84463,-10.9642 0.43194,-0.55 1.09342,-1.8067 1.46993,-2.79267 0.37651,-0.98597 3.84131,-6.94942 7.69957,-13.25211 3.85826,-6.3027 7.01501,-11.64397 7.01501,-11.8695 0,-3.2359 11.8059,-19.43257 14.25,-19.54976 1.44769,-0.0694 0.73161,4.60734 -1,6.53105 -0.9625,1.06927 -2.82936,3.96663 -4.14857,6.43856 -1.31921,2.47193 -2.93688,5.16942 -3.59481,5.99442 -0.65794,0.825 -2.70596,4.20001 -4.55117,7.50001 -1.8452,3.3 -5.29004,9.0038 -7.65518,12.67511 -2.36515,3.6713 -4.30027,6.95344 -4.30027,7.29364 0,0.3402 -1.16953,1.8364 -2.59896,3.32489 -1.42944,1.4885 -3.21922,4.12993 -3.97729,5.86985 -1.09339,2.50955 -11.27821,15.98622 -19.16961,25.36545 -1.00484,1.19429 -6.91367,8.82755 -10.42781,13.47106 -0.41623,0.55 -2.11754,2.62884 -3.78069,4.61965 -9.08266,10.87198 -14.75366,19.40121 -13.41754,20.18005 2.29304,1.33664 1.63657,2.5399 -5.32341,9.75734 -7.04869,7.30943 -9.69488,8.37928 -12.64971,5.11423 z m -6.0321,-8.7116 c -0.37093,-0.96662 -1.57097,-1.4322 -3.2219,-1.25 -3.46995,0.38295 -5.23475,-2.19324 -3.69549,-5.39456 2.07716,-4.32006 2.22194,-5.77879 0.84854,-8.54931 -0.75409,-1.52118 -2.06075,-5.01579 -2.90369,-7.76579 -3.32134,-10.83549 -5.18921,-15.27514 -9.25595,-22.00001 -3.64251,-6.02336 -11.1393,-20.49136 -16.84032,-32.5 -0.91388,-1.925 -2.97628,-5.75 -4.58311,-8.5 -1.60682,-2.75 -3.3715,-6.0125 -3.92149,-7.25 -0.54999,-1.2375 -1.4308,-2.25 -1.95735,-2.25 -1.83917,0 -2.41523,-4.23969 -0.70603,-5.1962 2.81886,-1.57752 1.80894,-2.62507 -6.49694,-6.73908 -14.6993,-7.28072 -21.81166,-13.02073 -37.21833,-30.03696 -8.34487,-9.21666 -8.68503,-10.01359 -5.59368,-13.10494 l 2.07717,-2.07718 3.91787,5.25113 c 5.39323,7.22856 23.46899,25.5885 28.02235,28.46292 2.05553,1.29759 4.02671,2.82749 4.3804,3.39978 1.33911,2.16671 2.61126,0.71215 9.52513,-10.89094 3.91024,-6.5623 8.43487,-13.59918 10.05472,-15.6375 1.61986,-2.03833 2.9452,-4.09417 2.9452,-4.56855 0,-0.47437 1.125,-0.86249 2.5,-0.86249 3.89755,0 3.38006,4.66513 -1.06138,9.56835 -8.96965,9.90223 -18.51576,27.43165 -14.93862,27.43165 0.825,0 1.5,0.3768 1.5,0.83734 0,0.46053 3.375,2.57355 7.5,4.69558 4.125,2.12205 7.5,4.44525 7.5,5.16268 0,1.5308 -2.60217,1.75713 -3.5,0.30441 -4.86223,-7.86726 -4.11226,1.82168 0.96476,12.46395 5.48462,11.49664 10.53524,22.78753 10.53524,23.55201 0,0.44956 0.3375,0.96737 0.75,1.15071 0.4125,0.18333 1.54709,1.90833 2.52131,3.83333 4.54201,8.97474 8.2699,15.61532 9.4432,16.82143 0.70702,0.72678 1.28549,1.73928 1.28549,2.25 0,0.51071 0.91413,0.92857 2.03139,0.92857 1.11726,0 2.25899,0.7875 2.53718,1.75 0.27819,0.9625 1.63891,3.93223 3.02382,6.59939 2.13191,4.10581 2.30176,5.02584 1.10769,6.00001 -0.9642,0.78664 -1.16798,1.94142 -0.64423,3.65061 l 0.76609,2.5 0.70567,-2.25 c 0.38811,-1.2375 1.10317,-2.25 1.58902,-2.25 0.48585,0 0.88337,-0.61431 0.88337,-1.36514 0,-0.75083 0.93891,-2.55878 2.08649,-4.01768 1.14756,-1.45888 3.9941,-6.35707 6.32564,-10.88486 2.33154,-4.52778 5.44026,-10.13213 6.90825,-12.45411 2.50415,-3.96088 5.11541,-9.28653 15.71644,-32.05348 3.35512,-7.20552 5.33647,-10.10642 8.87917,-13 6.95595,-5.68143 8.23035,-7.17889 7.68146,-9.0259 -0.27767,-0.93437 -0.78935,-4.39885 -1.13707,-7.69885 -0.65496,-6.21573 -1.53196,-9.31028 -5.88708,-20.77283 -3.00567,-7.91085 -3.47995,-14.28906 -0.9915,-13.33416 0.86998,0.33384 1.76998,0.60699 2,0.60699 0.23001,0 0.41821,0.84642 0.41821,1.88094 0,1.03452 1.17146,4.97202 2.60325,8.75 3.42548,9.03866 5.32758,16.41389 6.07333,23.54887 0.6872,6.57472 0.80491,6.6677 4.51815,3.56897 1.4821,-1.23683 4.1556,-3.37378 5.94112,-4.74878 6.82417,-5.2552 16.68823,-13.86051 24.91027,-21.73147 11.90442,-11.39612 17.20578,-14.89012 18.23543,-12.01853 0.9478,2.64331 -11.93348,15.05664 -27.75841,26.75 -2.60515,1.925 -5.83405,4.5125 -7.17535,5.75 -1.34128,1.2375 -2.7898,2.25 -3.21893,2.25 -0.42913,0 -1.81841,1.10509 -3.08729,2.45575 -1.26888,1.35067 -2.58482,2.39086 -2.92431,2.31155 -3.0853,-0.7208 -8.11726,4.71734 -8.11726,8.77247 0,5.13086 -1.64035,6.62261 -4.03308,3.66772 l -1.70917,-2.11074 -2.13831,2.27612 c -2.46637,2.62533 -9.11944,13.42016 -9.11944,14.7966 0,0.98169 -2.1389,5.41513 -6.19006,12.83054 -1.35213,2.475 -5.75107,10.8 -9.77542,18.5 -4.02435,7.7 -7.85694,14.675 -8.51686,15.5 -8.22932,10.28781 -13.97099,29.00001 -8.89838,29.00001 2.01987,0 2.849,2.73083 1.37015,4.51273 -1.60735,1.93674 -4.6144,1.907 -5.36654,-0.0531 z m -38.1229,-29.02003 c -3.3,-3.59427 -6.70922,-7.82309 -7.57604,-9.39737 -0.86682,-1.57428 -2.25916,-3.91532 -3.09408,-5.2023 -0.83492,-1.28698 -3.19361,-6.38997 -5.24153,-11.33997 -2.04792,-4.95 -4.14309,-9.78139 -4.65592,-10.73643 -0.51284,-0.95504 -0.93243,-2.41754 -0.93243,-3.25 0,-0.83246 -0.45,-1.51357 -1,-1.51357 -0.55,0 -1,-0.39377 -1,-0.87504 0,-1.25257 -8.63407,-19.05375 -10.97374,-22.62496 -1.081,-1.65 -2.66568,-4.2375 -3.52154,-5.75 -0.85585,-1.5125 -1.96421,-2.75 -2.46302,-2.75 -0.49881,0 -1.20745,-0.94685 -1.57475,-2.10413 -0.3673,-1.15726 -3.21949,-5.54476 -6.3382,-9.75 -8.82161,-11.89499 -12.82375,-21.14588 -9.14818,-21.14588 0.70046,0 10.22146,13.24891 13.51942,18.8129 0.55,0.92791 1.28896,1.9121 1.64213,2.1871 0.91826,0.71502 13.85787,22.97081 13.85787,23.83518 0,0.3959 0.7875,1.83195 1.75001,3.19121 1.80084,2.54321 8.25,16.68896 8.25,18.09579 0,1.836 9.37923,22.63156 11.44593,25.37783 1.2417,1.65 3.0633,4.56384 4.04799,6.47519 0.98468,1.91135 3.97412,5.67048 6.64319,8.35362 4.23804,4.26039 5.35729,6.70075 3.05387,6.65854 -0.38004,-0.007 -3.39098,-2.95343 -6.69098,-6.54771 z m 13.37168,-60.49627 c -7.8481,-1.25948 -10.91412,-4.0034 -7.57236,-6.77682 0.78867,-0.65454 9.01108,-1.24983 20.92108,-1.51465 10.79196,-0.23997 20.04947,-0.70065 20.57223,-1.02373 1.06914,-0.66077 18.7296,-3.63362 24.39162,-4.10594 2.61988,-0.21854 3.85716,0.14328 4.28279,1.25244 1.08768,2.83445 0.56794,3.01192 -23.96703,8.18394 -17.36292,3.66014 -31.53895,5.12249 -38.62833,3.98476 z m 2.44461,-55.58918 c -5.45876,-4.89379 -2.70641,-8.57054 4.69031,-6.2656 7.7065,2.40147 51.19707,0.35636 57.99341,-2.7271 18.14493,-8.23225 34.43323,-19.44441 37.88078,-26.07551 1.03465,-1.99009 0.57823,-2.7992 -4.51285,-8 -8.29104,-8.46972 -9.46402,-9.96318 -12.00577,-15.286 -1.22594,-2.56732 -2.62907,-2.9689 -10.4285,-2.98469 -4.16149,-0.008 -10.01149,-0.46413 -13,-1.01268 -8.83017,-1.62082 -32.64063,-4.09455 -40.4988,-4.20753 -2.55164,-0.0367 -16.43285,5.92806 -39.43487,16.94513 -11.84418,5.6729 -14.30304,6.77938 -22,9.89993 -6.88883,2.79292 -7.5519,3.77604 -4.98141,7.38596 2.93485,4.12161 14.57404,13.39989 20.02814,15.9656 9.38088,4.41292 14.83438,8.77361 13.55704,10.84038 -0.85317,1.38046 -4.69155,0.26484 -7.34287,-2.1342 -1.23151,-1.11432 -3.35275,-2.14478 -4.71387,-2.28989 -3.263,-0.3479 -12.93644,-5.69082 -18.43167,-10.18035 l -4.38463,-3.5822 -5.10186,2.8679 c -6.27919,3.5297 -10.85323,6.48072 -16.33335,10.53771 -4.75269,3.51847 -8.29553,3.35427 -8.29553,-0.38447 0,-1.52166 1.56956,-3.27139 5.09749,-5.68262 7.71845,-5.27531 15.19774,-9.894 17.15251,-10.59219 2.56254,-0.91526 2.15666,-1.85186 -1.5,-3.46132 -4.31611,-1.89971 -4.76471,-7.24066 -0.78353,-9.3288 1.39344,-0.73087 3.88353,-2.06246 5.53353,-2.9591 1.65,-0.89663 3.5625,-1.63302 4.25,-1.63641 0.6875,-0.003 1.25,-0.43881 1.25,-0.96761 0,-0.5288 1.86747,-1.46432 4.14993,-2.07892 2.28247,-0.6146 6.61346,-2.20695 9.62444,-3.53854 3.01097,-1.3316 6.51695,-2.42109 7.79105,-2.42109 1.2741,0 2.61363,-0.48068 2.97672,-1.06817 0.36309,-0.5875 1.30669,-0.82008 2.09687,-0.51686 0.79019,0.30322 1.69282,-0.1161 2.00584,-0.93183 0.31303,-0.81572 1.59089,-1.48314 2.8397,-1.48314 1.24882,0 2.83077,-0.675 3.51546,-1.5 0.68469,-0.825 2.14602,-1.5 3.2474,-1.5 2.00323,0 13.80954,-4.85221 14.7526,-6.06309 0.51768,-0.6647 9.73459,-3.87498 11.5,-4.0055 0.55,-0.0407 1.77039,-0.77112 2.71197,-1.62324 1.33485,-1.20802 3.09712,-1.41658 8.00001,-0.94675 3.45842,0.33141 9.66303,0.86976 13.78803,1.19635 4.125,0.32658 9.3,0.9826 11.5,1.45782 2.2,0.47522 7.375,1.13833 11.5,1.47358 4.125,0.33524 8.43841,0.80231 9.58535,1.03791 1.19029,0.24451 2.99649,-0.42049 4.20818,-1.54935 3.41167,-3.17846 4.90061,-2.40936 7.78696,4.02227 1.48095,3.3 2.99784,6 3.37086,6 0.37302,0 1.38287,1.4625 2.2441,3.25 2.10138,4.36148 9.3103,12.39787 12.537,13.97608 2.41145,1.17945 7.85124,9.73748 11.91137,18.7393 0.85965,1.90595 2.11721,3.93095 2.79457,4.5 6.49292,5.45463 10.2566,13.52951 6.31162,13.54142 -2.17097,0.007 -14.75,-12.1467 -14.75,-14.25074 0,-6.96522 -7.27536,-10.45896 -12.27234,-5.89337 -9.86217,9.01075 -30.07965,20.47065 -36.1142,20.47065 -3.37283,0 -5.61347,1.63464 -5.61347,4.09524 0,1.2872 -1.44697,1.59404 -8,1.69643 -4.4,0.0688 -9.2375,0.24349 -10.75,0.38831 -1.5125,0.14482 -10.175,0.58546 -19.25001,0.9792 l -16.5,0.7159 -3.18371,-2.85421 z"
       id="path5517"
       inkscape:connector-curvature="0" />
  </g>
</svg>
