<?xml version="1.0" encoding="UTF-8" standalone="no"?>
<svg
   xmlns:dc="http://purl.org/dc/elements/1.1/"
   xmlns:cc="http://creativecommons.org/ns#"
   xmlns:rdf="http://www.w3.org/1999/02/22-rdf-syntax-ns#"
   xmlns:svg="http://www.w3.org/2000/svg"
   xmlns="http://www.w3.org/2000/svg"
   version="1.1"
   id="svg4723"
   viewBox="0 0 367.2869 361.26129"
   height="101.95596mm"
   width="103.65652mm">
  <defs
     id="defs4725" />
  <metadata
     id="metadata4728">
    <rdf:RDF>
      <cc:Work
         rdf:about="">
        <dc:format>image/svg+xml</dc:format>
        <dc:type
           rdf:resource="http://purl.org/dc/dcmitype/StillImage" />
        <dc:title></dc:title>
      </cc:Work>
    </rdf:RDF>
  </metadata>
  <g
     transform="translate(-65.005171,-37.256558)"
     id="layer1">
    <path
       id="path5282"
       d="m 242.57143,397.99993 c -4.125,-0.44785 -10.875,-1.75962 -15,-2.91504 -4.125,-1.15542 -8.175,-2.24132 -9,-2.41312 -0.825,-0.1718 -2.625,-0.77102 -4,-1.33161 -1.375,-0.56059 -4.75,-1.78043 -7.5,-2.71075 -2.75,-0.93032 -10.85,-4.54697 -18,-8.03699 -7.15,-3.49003 -15.59621,-7.56591 -18.76937,-9.05753 -3.17315,-1.49162 -6.02107,-3.1193 -6.32872,-3.61708 -0.30764,-0.49778 -2.65481,-1.89004 -5.21591,-3.0939 -3.59325,-1.68903 -21.38695,-14.22808 -29.62076,-20.87346 -0.58588,-0.47286 -3.09024,-2.45622 -5.56524,-4.40746 -2.475,-1.95124 -5.4,-4.43145 -6.5,-5.51159 -1.1,-1.08013 -2.59403,-2.52435 -3.32006,-3.20938 -2.44658,-2.30841 -10.00199,-10.22772 -12.6395,-13.24826 -3.200843,-3.6657 -12.385627,-17.53605 -15.228515,-22.99725 -6.689972,-12.85147 -11.311929,-23.19789 -11.311929,-25.32215 0,-0.97782 -0.358136,-2.20535 -0.795859,-2.72785 -2.302344,-2.74826 -5.957422,-19.89839 -6.809261,-31.95 -0.272128,-3.85 -0.867627,-8.39586 -1.323331,-10.10191 -1.718416,-6.43334 -0.01087,-20.96357 5.687596,-48.39809 0.85681,-4.125 1.682424,-8.52757 1.834697,-9.7835 0.152274,-1.25592 1.850705,-6.43092 3.774291,-11.5 1.923587,-5.06907 3.787213,-10.7915 4.141393,-12.7165 0.354179,-1.925 1.968565,-6.22578 3.587523,-9.55729 1.618958,-3.33151 3.151324,-7.15651 3.405258,-8.5 0.601818,-3.18405 5.862847,-14.31599 10.370276,-21.94271 1.137684,-1.925 2.755831,-4.849999 3.595881,-6.499999 1.67467,-3.289329 2.89654,-5.172198 9.38462,-14.461393 5.7621,-8.2498 4.42298,-9.338766 -4.3767,-3.559114 -10.676846,7.012578 -11.853917,5.71891 -1.44188,-1.584716 3.28102,-2.301507 5.9655,-4.493066 5.9655,-4.87013 0,-0.608096 3.69137,-2.977611 16.75428,-10.754673 2.06015,-1.226514 4.42072,-2.549154 5.24572,-2.9392 0.825,-0.390046 3.89541,-2.233917 6.82314,-4.097491 2.92773,-1.863574 6.64023,-3.847455 8.25,-4.408625 1.60977,-0.56117 2.92686,-1.328045 2.92686,-1.704168 0,-0.376123 2.1375,-1.269772 4.75,-1.985886 2.6125,-0.716115 5.65,-1.682225 6.75,-2.14691 4.37949,-1.850077 12.34049,-4.046376 16.55265,-4.566584 2.44604,-0.302089 6.57724,-0.801942 9.18043,-1.110785 2.60319,-0.308842 8.90319,-0.04949 14,0.576338 5.09681,0.625828 17.14192,1.346429 26.76692,1.601336 26.93952,0.713462 30.1265,1.083363 53.5,6.209557 8.54088,1.873155 16.40561,4.129183 18.73643,5.374614 0.95504,0.510307 2.15059,0.92783 2.65678,0.92783 1.26694,0 12.93639,5.570536 16.60679,7.927421 1.65,1.059522 3.75,1.959292 4.66667,1.999491 0.91666,0.0402 1.81666,0.431836 2,0.870306 0.18333,0.43847 3.48333,2.51551 7.33333,4.615643 3.85,2.100134 9.25,5.27203 12,7.048659 2.75,1.776628 6.8,4.29069 9,5.586803 4.21046,2.480561 28.93006,20.713456 31.5,23.234046 6.8555,6.72385 14.92353,15.66316 15.99074,17.71763 0.71426,1.375 2.5307,4.075 4.03653,6 8.35739,10.68373 18.84074,36.77466 21.42837,53.33086 5.61067,35.89816 4.48819,46.72256 -7.28283,70.23056 -2.2201,4.43377 -5.9064,12.97858 -8.19178,18.98845 -15.63746,41.122 -22.78913,53.25487 -43.48103,73.76594 -25.20817,24.98787 -36.68918,33.93525 -48.47153,37.77484 -1.39066,0.45318 -6.35347,2.21587 -11.02847,3.91709 -16.47839,5.99643 -29.47569,9.50974 -38.67347,10.45388 -1.74541,0.17916 -3.68727,0.64329 -4.31524,1.0314 -0.62797,0.38811 -3.69991,0.88078 -6.82653,1.09482 -3.12662,0.21405 -6.80976,0.56033 -8.18476,0.76951 -1.375,0.20919 -5.875,0.0139 -10,-0.43393 z m 27.5,-9.20004 c 1.1,-0.13018 2.45,-0.51209 3,-0.84869 0.55,-0.33661 2.8,-0.93049 5,-1.31975 2.2,-0.38925 7.36252,-1.79835 11.47226,-3.13134 4.10974,-1.33298 8.14123,-2.4236 8.95886,-2.4236 0.81763,0 5.33011,-1.60689 10.02774,-3.57086 4.69763,-1.96397 9.44114,-3.93294 10.54114,-4.37548 1.1,-0.44255 3.30672,-1.33256 4.90382,-1.9778 5.56547,-2.24847 14.1211,-8.63067 22.22074,-16.57586 4.48553,-4.4 10.95541,-10.475 14.3775,-13.5 11.29643,-9.98563 20.43445,-21.25508 26.45842,-32.62983 2.00111,-3.77859 4.05079,-7.54517 4.55484,-8.37017 1.1906,-1.94867 4.98468,-10.70726 4.98468,-11.50706 0,-0.33924 1.08807,-2.95142 2.41793,-5.80487 2.71174,-5.81847 8.57038,-20.79219 8.57747,-21.92257 0.004,-0.63564 8.65864,-19.44231 10.96531,-23.82773 4.63828,-8.81827 6.61253,-40.25183 3.16785,-50.43777 -0.558,-1.65 -1.25932,-5.7 -1.55849,-9 -0.79711,-8.79238 -1.69077,-12.76356 -3.21538,-14.28817 -0.74508,-0.74508 -1.35469,-1.94818 -1.35469,-2.67356 0,-0.72538 -1.575,-4.50576 -3.5,-8.40084 -1.925,-3.89508 -3.5,-7.29689 -3.5,-7.55957 0,-0.26268 -1.2375,-2.41266 -2.75,-4.77773 -1.5125,-2.36507 -3.2,-5.05513 -3.75,-5.9779 -2.83707,-4.75994 -13.7037,-19.8232 -14.30493,-19.82939 -0.38229,-0.004 -3.62007,-2.70801 -7.19507,-6.00904 -3.575,-3.30103 -8.3,-6.93948 -10.5,-8.085441 -2.2,-1.145961 -4.9,-2.885772 -6,-3.866248 -3.62901,-3.234689 -20.91534,-14.689201 -25.5,-16.897175 -2.475,-1.19196 -9.19951,-4.875657 -14.94337,-8.185993 -14.4116,-8.305797 -26.20075,-13.361355 -38.29113,-16.420433 -21.46762,-5.43169 -27.33527,-6.159214 -57.2655,-7.100296 -8.8,-0.276694 -20.51647,-0.915721 -26.03659,-1.420059 -21.30952,-1.946915 -34.12122,0.793875 -59.46341,12.720923 -9.23488,4.346304 -8.74664,3.828761 -5.89167,6.245253 2.6296,2.225731 0.84141,5.02567 -3.20967,5.02567 -10.20764,0 -40.579867,49.538149 -47.844039,78.035289 -0.625952,2.45559 -1.559332,5.36471 -2.07418,6.46471 -1.771552,3.78502 -5.980445,17.75835 -5.980445,19.8548 0,1.15473 -0.672927,5.48479 -1.495393,9.62235 -5.208098,26.2003 -5.342401,27.64926 -3.94142,42.52285 1.700383,18.05219 2.285156,21.75617 4.559532,28.88027 1.032504,3.23415 1.877281,6.45167 1.877281,7.15004 0,1.68101 6.876422,18.1537 9.171111,21.96969 0.992203,1.65 2.290023,4.125 2.884046,5.5 6.210662,14.37599 22.026837,33.13006 37.740427,44.75081 4.12867,3.05329 8.22616,6.16559 9.10554,6.91623 9.54101,8.14412 27.98775,20.49624 37.59888,25.17658 3.85,1.87484 7.225,3.73679 7.5,4.13768 0.275,0.40088 2.3,1.2977 4.5,1.99293 2.2,0.69524 6.23954,2.36813 8.97675,3.71754 22.07125,10.88086 48.05725,15.10458 74.02325,12.03161 z m 44.56143,-87.1086 c -0.90146,-1.68439 -1.06224,-3.65748 -0.51215,-6.28497 1.49743,-7.15235 1.15089,-14.32395 -0.69229,-14.32705 -0.90366,-0.002 -1.90203,-0.67776 -2.21862,-1.50276 -0.31658,-0.825 -1.62472,-1.5 -2.90699,-1.5 -1.28226,0 -2.7629,-0.43152 -3.29031,-0.95893 -0.52742,-0.52742 -3.87992,-1.67524 -7.45,-2.55072 -3.57009,-0.87548 -7.39107,-1.98506 -8.49107,-2.46574 -1.1,-0.48068 -3.35,-1.13292 -5,-1.44943 -1.65,-0.31652 -6.6,-1.30939 -11,-2.20639 -8.02983,-1.637 -28.2795,-2.24113 -30.43647,-0.90805 -0.62822,0.38826 -3.14613,0.70593 -5.59536,0.70593 -2.44923,0 -4.70808,0.4125 -5.01967,0.91666 -0.31159,0.50417 -1.9019,0.91667 -3.53401,0.91667 -3.33386,0 -17.56755,3.38883 -22.91449,5.4556 -1.925,0.74408 -6.65,2.1076 -10.5,3.03006 -7.18337,1.72113 -10.13767,2.74064 -14.5,5.00387 -25.78349,13.37675 -29.16231,14.89793 -30.80013,13.86655 -3.06987,-1.93316 -2.03367,-9.35608 1.30605,-9.35608 0.85548,0 4.58295,-1.6875 8.28325,-3.75 13.30998,-7.41879 34.51136,-15.89924 40.21083,-16.08414 1.78216,-0.0578 3.90021,-0.6014 6.1101,-1.56812 0.88555,-0.38739 2.68555,-0.84586 4,-1.01882 1.31444,-0.17295 3.18412,-0.64969 4.15484,-1.05941 0.97072,-0.40973 2.65822,-0.51136 3.75,-0.22585 1.09178,0.2855 1.98506,0.16848 1.98506,-0.26005 0,-0.42853 2.1375,-1.02451 4.75,-1.32438 2.6125,-0.29988 5.875,-0.84465 7.25,-1.2106 16.92419,-4.5043 36.52283,-3.84391 57.5,1.93751 3.3,0.90949 6.9,1.79399 8,1.96554 1.1,0.17155 4.86127,1.52758 8.35837,3.01341 7.93188,3.37004 7.71518,3.69481 5.67517,-8.50537 -1.02272,-6.11628 -1.33136,-10.43108 -0.77242,-10.79823 2.13381,-1.40161 2.25429,-6.08999 0.25248,-9.82494 -1.10748,-2.06631 -2.0136,-4.14365 -2.0136,-4.61632 0,-1.63994 -7.94569,-9.18569 -11.71283,-11.12328 -2.08294,-1.07134 -4.46217,-2.48587 -5.28717,-3.14341 -6.85577,-5.46412 -42.69594,-2.33314 -58.65113,5.12374 -1.73312,0.80999 -3.75812,1.47549 -4.5,1.47888 -0.74188,0.003 -2.63321,0.676 -4.20295,1.49469 -1.56974,0.8187 -3.27695,1.22718 -3.7938,0.90775 -0.51685,-0.31943 -1.48252,-0.17173 -2.14592,0.32822 -0.66341,0.49996 -5.0312,2.37322 -9.7062,4.16282 -4.675,1.78959 -10.3,4.06952 -12.5,5.06651 -2.2,0.99698 -6.52665,2.9347 -9.61477,4.30604 -3.08812,1.37134 -8.26312,4.23183 -11.5,6.35664 -3.23688,2.12481 -6.33523,4.09007 -6.88523,4.36723 -9.91877,4.99844 -22.5,22.74329 -22.5,31.7345 0,14.56444 -7.79107,11.12018 -8.6897,-3.84152 -0.5741,-9.55838 3.70976,-15.84074 19.6897,-28.87529 3.025,-2.46744 5.725,-4.71744 6,-5 0.275,-0.28256 2.1875,-1.37211 4.25,-2.42122 2.0625,-1.04911 3.75,-2.24259 3.75,-2.65218 0,-0.40958 1.2375,-1.23222 2.75,-1.82808 1.5125,-0.59586 3.425,-1.50215 4.25,-2.01398 3.79756,-2.356 25.62079,-11.81014 29,-12.56322 0.825,-0.18385 4.2983,-1.27946 7.71845,-2.43468 3.42015,-1.15521 7.1061,-2.10039 8.19099,-2.10039 1.08489,0 2.23289,-0.42128 2.55112,-0.93618 0.55318,-0.89508 7.05251,-3.03522 20.03944,-6.59873 3.3,-0.9055 7.04622,-2.06129 8.32494,-2.56843 1.27871,-0.50714 2.70234,-0.68881 3.16363,-0.40373 0.46128,0.28509 3.69006,-0.0905 7.17506,-0.83456 5.79329,-1.23696 21.40704,-1.5466 23.47149,-0.46548 0.47568,0.24911 2.88988,1.06647 5.36488,1.81636 14.90384,4.51562 29.41865,27.29922 27.59297,43.3121 -1.50938,13.23856 -1.0931,17.93082 1.90703,21.49628 4.28242,5.08937 2.37365,26.18237 -2.36932,26.18237 -0.53191,0 -1.59445,0.24073 -2.3612,0.53496 -0.81617,0.3132 -1.9388,-0.48281 -2.70805,-1.92018 z m -7.06143,-146.66085 c -3.025,-3.31469 -6.14414,-7.36033 -6.93143,-8.99032 -1.80484,-3.73673 -2.31213,-3.7085 -7.40027,0.41186 -8.35363,6.76474 -12.70966,8.02392 -14.46099,4.18019 -1.19735,-2.62791 2.9274,-8.55566 5.95335,-8.55566 0.74704,0 1.91245,-0.88743 2.58982,-1.97206 0.71808,-1.14983 1.85721,-1.73198 2.73212,-1.39625 4.1568,1.59512 -0.8508,-11.26908 -5.50681,-14.14665 -0.53669,-0.33169 -0.97579,-1.23836 -0.97579,-2.01482 0,-0.77646 -1.39639,-3.39281 -3.10308,-5.81412 -2.62405,-3.72276 -2.92736,-4.7307 -1.96482,-6.52924 2.28181,-4.26359 3.47439,-3.24703 12.58046,10.72363 1.91809,2.94277 3.48744,5.75527 3.48744,6.25 0,0.49473 0.45,0.89951 1,0.89951 0.55,0 1,0.9 1,2 0,1.1 0.2509,2 0.55756,2 1.40167,0 10.38081,-5.54695 14.44244,-8.92195 9.52746,-7.91684 22,-14.17621 22,-11.04074 0,1.2336 -8.80236,9.96269 -10.04632,9.96269 -0.47452,0 -1.95281,1.0125 -3.28508,2.25 -3.69265,3.42997 -12.72592,11.08747 -14.81268,12.5567 -2.5835,1.81898 -2.52689,1.97284 3.72295,10.11891 9.71008,12.65617 8.45743,19.02574 -1.57887,8.02832 z m -167.75,-5.62835 c -4.47074,-3.11863 5.3954,-14.32558 12.61166,-14.32558 0.63336,0 2.12974,-1.125 3.32528,-2.5 1.19555,-1.375 2.80572,-2.5 3.57816,-2.5 1.43763,0 -1.51674,-3.69216 -7.06095,-8.82426 -4.73417,-4.38228 -6.99095,-8.77135 -5.72568,-11.13552 1.59605,-2.98224 3.05352,-2.44316 7.52153,2.78196 2.2,2.5728 5.89251,6.40535 8.20559,8.51676 l 4.2056,3.83895 3.7944,-1.99186 c 2.08693,-1.09552 7.39441,-3.67043 11.79441,-5.72204 4.4,-2.05161 8.78139,-4.1203 9.73643,-4.59709 3.26699,-1.63102 4.96343,-1.07197 4.18544,1.37926 -0.87201,2.74748 -2.24967,3.82834 -9.92187,7.78438 -7.12659,3.6747 -9.01162,4.83813 -11.97538,7.3911 l -2.23083,1.92163 6.3531,5.94302 c 5.93001,5.54724 7.99695,9.73653 5.8588,11.87469 -1.27261,1.2726 -6.71212,-0.56441 -7.50637,-2.53503 -0.47126,-1.16927 -3.13312,-4.28905 -5.91523,-6.93283 l -5.05839,-4.80688 -4.76285,3.22607 c -2.61957,1.77434 -7.52666,5.39994 -10.90465,8.05688 -6.79921,5.3479 -6.91479,5.384 -10.1082,3.15639 z"
       style="fill:#000000" />
  </g>
</svg>
