<?xml version="1.0" encoding="UTF-8" standalone="no"?>
<!-- Created with Inkscape (http://www.inkscape.org/) -->

<svg
   xmlns:dc="http://purl.org/dc/elements/1.1/"
   xmlns:cc="http://creativecommons.org/ns#"
   xmlns:rdf="http://www.w3.org/1999/02/22-rdf-syntax-ns#"
   xmlns:svg="http://www.w3.org/2000/svg"
   xmlns="http://www.w3.org/2000/svg"
   xmlns:sodipodi="http://sodipodi.sourceforge.net/DTD/sodipodi-0.dtd"
   xmlns:inkscape="http://www.inkscape.org/namespaces/inkscape"
   width="85.582329mm"
   height="82.945351mm"
   viewBox="0 0 303.2445 293.90085"
   id="svg4723"
   version="1.1"
   inkscape:version="0.91 r13725"
   sodipodi:docname="1.svg">
  <defs
     id="defs4725" />
  <sodipodi:namedview
     id="base"
     pagecolor="#ffffff"
     bordercolor="#666666"
     borderopacity="1.0"
     inkscape:pageopacity="0.0"
     inkscape:pageshadow="2"
     inkscape:zoom="1.4"
     inkscape:cx="34.711654"
     inkscape:cy="95.328778"
     inkscape:document-units="px"
     inkscape:current-layer="layer1"
     showgrid="false"
     fit-margin-top="0"
     fit-margin-left="0"
     fit-margin-right="0"
     fit-margin-bottom="0"
     inkscape:window-width="1920"
     inkscape:window-height="1003"
     inkscape:window-x="-9"
     inkscape:window-y="-9"
     inkscape:window-maximized="1" />
  <metadata
     id="metadata4728">
    <rdf:RDF>
      <cc:Work
         rdf:about="">
        <dc:format>image/svg+xml</dc:format>
        <dc:type
           rdf:resource="http://purl.org/dc/dcmitype/StillImage" />
        <dc:title></dc:title>
      </cc:Work>
    </rdf:RDF>
  </metadata>
  <g
     inkscape:label="Ebene 1"
     inkscape:groupmode="layer"
     id="layer1"
     transform="translate(-162.44345,-53.267241)">
    <path
       style="fill:#000000"
       d="m 242.36311,344.52189 c -11.10465,-3.12236 -18.07222,-5.88281 -18.07222,-7.15995 0,-0.4294 -1.0125,-1.08829 -2.25,-1.46419 -1.2375,-0.3759 -3.80687,-1.86872 -5.7097,-3.31739 -1.90283,-1.44866 -4.04454,-2.8663 -4.75935,-3.1503 -2.2892,-0.90951 -19.28096,-18.19667 -19.28096,-19.61615 0,-0.75211 -0.5625,-1.37033 -1.25,-1.3738 -1.19817,-0.006 -2.8717,-2.3892 -7.01798,-9.99369 -1.04959,-1.925 -2.54368,-3.99961 -3.32018,-4.61024 -0.77651,-0.61064 -1.41184,-1.59932 -1.41184,-2.19709 0,-0.59776 -1.125,-3.20268 -2.5,-5.78869 -1.375,-2.58602 -2.5,-5.48669 -2.5,-6.44593 0,-0.95924 -0.61547,-1.98025 -1.36772,-2.26892 -0.75224,-0.28866 -1.62626,-1.5743 -1.94227,-2.85698 -0.316,-1.28268 -1.29776,-5.03215 -2.1817,-8.33215 -0.88394,-3.3 -2.0077,-8.7 -2.49726,-12 -0.48955,-3.3 -1.53163,-9.825 -2.31573,-14.5 -1.69277,-10.09276 -2.09596,-35.23277 -0.68962,-43.00001 0.54771,-3.025 1.4386,-8.2 1.97976,-11.5 0.54117,-3.3 1.23535,-7.125 1.54262,-8.5 0.30728,-1.375 1.22371,-5.875 2.03651,-10 7.10024,-36.03394 20.92176,-68.086903 36.86555,-85.493463 1.96343,-2.14356 3.56986,-4.19059 3.56986,-4.54896 0,-0.66846 2.4431,-3.747769 6.09158,-7.677903 6.10024,-6.571153 15.75882,-9.759069 18.35172,-6.057181 1.93971,2.769326 1.99809,4.777495 0.13887,4.777495 -2.29227,0 -10.92033,4.668714 -13.27391,7.182619 -1.19327,1.27456 -2.76329,2.82159 -3.48892,3.43784 -2.8148,2.3905 -10.53411,11.04847 -12.82057,14.37954 -1.32132,1.925 -2.68611,3.725 -3.03285,4 -3.41327,2.70702 -15.42591,28.138233 -19.3667,41.000013 -17.92846,58.51408 -18.4727,106.2812 -1.60651,141.00001 5.84601,12.03394 9.84457,18.7198 15.50729,25.92929 3.47397,4.42288 15.78277,16.1165 21.50001,20.42548 3.025,2.27988 6.01559,4.62869 6.64576,5.21957 0.63017,0.59089 3.33017,1.86334 6,2.82767 2.66983,0.96433 5.75424,2.15777 6.85424,2.65208 9.91402,4.45508 28.41124,6.32159 40.04734,4.04108 4.15605,-0.81453 19.75429,-3.34244 26.95266,-4.36806 1.1,-0.15673 2.45,-0.55753 3,-0.89068 0.55,-0.33314 3.0077,-0.93826 5.46154,-1.34471 2.45386,-0.40644 5.15386,-1.10111 6.00001,-1.5437 3.83104,-2.0039 17.22185,-7.62048 29.96572,-12.56868 3.535,-1.37258 7.65447,-3.36943 9.15438,-4.43746 1.4999,-1.06803 3.38445,-1.94187 4.18787,-1.94187 0.80343,0 2.53396,-0.83407 3.84563,-1.85348 1.31167,-1.01941 8.90986,-5.05228 16.88486,-8.96192 7.975,-3.90963 16.075,-8.11915 18,-9.35447 1.925,-1.23533 4.4,-2.75693 5.5,-3.38134 1.1,-0.62441 3.76386,-2.14103 5.9197,-3.37027 11.31012,-6.44896 30.56602,-24.1503 34.35182,-31.57853 4.11135,-8.06702 8.43613,-21.39084 10.27956,-31.66935 0.52582,-2.93186 1.17167,-6.45565 1.43522,-7.83065 0.91715,-4.78499 0.55462,-29.05506 -0.4624,-30.95536 -0.56314,-1.05224 -1.02389,-3.65275 -1.02389,-5.77891 0,-2.12616 -0.39924,-4.29324 -0.88721,-4.81574 -0.48796,-0.5225 -1.64745,-4.1 -2.57663,-7.95 -4.32176,-17.9069 -10.92528,-33.51426 -16.07792,-38 -0.63177,-0.55 -3.26963,-3.8125 -5.8619,-7.25 -2.59228,-3.4375 -5.08809,-6.25 -5.54625,-6.25 -0.99706,0 -10.0237,-7.46724 -17.83027,-14.750013 -3.09518,-2.8875 -6.17871,-5.25 -6.85229,-5.25 -0.67358,0 -1.83833,-0.5625 -2.58834,-1.25 -5.38906,-4.93988 -41.01839,-20.756478 -54.51103,-24.198572 -20.36868,-5.196235 -43.68626,-7.715504 -60.26818,-6.511472 -23.1252,1.679147 -26.36008,2.103113 -29.93662,3.92351 -1.95986,0.997538 -5.48123,2.386674 -7.82526,3.086967 -2.34403,0.700292 -4.76163,1.875429 -5.37244,2.611414 -0.61082,0.735984 -1.65722,1.338154 -2.32534,1.338154 -0.66812,0 -3.72843,1.799999 -6.8007,3.999999 -6.22078,4.45461 -6.73964,4.64708 -6.73964,2.5 0,-0.825 0.50309,-1.5 1.11798,-1.5 0.61489,0 2.65555,-1.35 4.5348,-3 1.87924,-1.649999 4.31527,-2.999999 5.4134,-2.999999 1.09812,0 2.24899,-0.657748 2.55748,-1.461662 0.48539,-1.26492 3.43763,-2.864684 16.37634,-8.874032 1.375,-0.638615 2.725,-1.455203 3,-1.814638 0.275,-0.359436 3.11785,-0.932169 6.31745,-1.27274 3.1996,-0.34057 6.88471,-1.31851 8.18913,-2.1732 6.1772,-4.047454 38.5719,-3.2168 64.04705,1.642272 12.45807,2.376226 22.55418,5.556111 32.94638,10.376836 4.4,2.041068 8.9,4.083182 10,4.53803 14.49749,5.994693 24.89638,12.533823 36.5,22.952263 3.57501,3.20986 8.07494,7.130033 9.99985,8.711493 10.49287,8.6207 22.88056,23.71931 25.24943,30.775 0.5725,1.70521 1.36818,3.55039 1.76817,4.10039 2.32535,3.19743 10.61844,33.86545 12.30389,45.5 3.34098,23.06271 -1.31118,53.00465 -11.03147,71.00001 -1.93105,3.575 -4.15644,7.7119 -4.9453,9.19312 -2.1051,3.95266 -14.93478,15.56876 -23.44473,21.22705 -4.06991,2.70609 -8.60477,5.73299 -10.07749,6.72644 -1.47271,0.99346 -4.39771,2.77213 -6.5,3.95259 -2.10229,1.18047 -7.19735,4.05506 -11.32235,6.38798 -4.125,2.33292 -8.42245,4.52942 -9.54989,4.88112 -1.12744,0.35171 -8.89463,4.01272 -17.26042,8.13559 -8.36579,4.12286 -15.49838,7.49612 -15.8502,7.49612 -0.35181,0 -2.93462,1.08962 -5.73958,2.42138 -9.44088,4.48242 -16.64793,7.57862 -17.64081,7.57862 -0.54243,0 -1.76763,0.42522 -2.72267,0.94493 -3.09161,1.68239 -18.67816,7.12919 -21.2441,7.42386 -1.37079,0.15742 -3.16734,0.55543 -3.99234,0.88447 -0.825,0.32904 -2.85,0.83652 -4.5,1.12773 -1.65,0.29121 -5.25,0.99229 -8,1.55794 -13.12848,2.70044 -37.28458,2.26974 -48.42778,-0.86347 z m -8.57335,-86.07766 c -1.75383,-3.39151 -0.33489,-11.27202 3.55375,-19.73691 1.07106,-2.33151 1.94738,-4.6308 1.94738,-5.10954 0,-7.60269 25.25177,-35.15137 32.22058,-35.15137 1.34535,0 2.77915,-0.3375 3.18623,-0.75 0.89051,-0.90236 15.7801,-3.17419 16.83443,-2.56857 0.40768,0.23418 3.78268,0.59704 7.5,0.80637 17.84067,1.00463 38.58605,21.22756 44.91503,43.78388 0.89239,3.18043 2.00979,6.02194 2.48313,6.31448 0.47333,0.29253 0.86061,2.70023 0.86061,5.35042 0,5.73452 -1.64176,7.70308 -4.66074,5.58851 -2.14764,-1.50427 -34.6611,-1.68028 -37.05528,-0.2006 -3.05662,1.8891 -61.63421,2.7253 -63.45371,0.9058 -1.76019,-1.76019 -2.36347,-1.55023 -3.64833,1.26972 -1.50073,3.29374 -2.79173,3.1553 -4.68308,-0.50219 z m 18.1048,-8.51728 c 5.44298,0.34378 10.34633,0.58476 10.89633,0.53551 0.55,-0.0493 7.075,-0.27618 14.5,-0.5043 7.425,-0.22812 18.225,-0.90533 24,-1.50491 5.775,-0.59959 16.51294,-1.36215 23.86208,-1.69458 l 13.36208,-0.60443 -0.54757,-4.08241 c -0.30116,-2.24532 -1.02659,-4.24208 -1.61207,-4.43724 -0.58548,-0.19516 -1.06451,-1.38724 -1.06451,-2.64906 0,-1.26182 -0.675,-2.85442 -1.5,-3.53911 -0.825,-0.68469 -1.5,-1.87979 -1.5,-2.65577 0,-2.94318 -18.23202,-19.83746 -23.00001,-21.31243 -2.475,-0.76563 -5.07161,-1.82367 -5.77025,-2.35119 -12.31524,-9.29883 -45.87372,6.56468 -55.67738,26.31939 -5.57651,11.23686 -10.37049,24.99302 -6.68338,19.17774 0.64834,-1.02255 3.08147,-1.18058 10.73468,-0.69721 z m 100.36885,-57.18962 c -8.54527,-5.90676 -9.36765,-12.80057 -3.0144,-25.26891 2.51449,-4.93473 3.28978,-7.71133 3.25434,-11.65506 -0.0591,-6.57694 5.46976,-9.3533 7.91945,-3.97682 0.59896,1.31458 2.1146,2.93902 3.3681,3.60987 5.06269,2.70947 5.89173,12.32444 2.3598,27.36849 -2.72273,11.59735 -7.02113,14.66855 -13.88729,9.92243 z m 7.44662,-13.54092 c 1.37826,-4.50758 1.51181,-7.20793 0.7171,-14.5 -0.0749,-0.6875 -0.58623,-1.25 -1.13623,-1.25 -0.55,0 -1.0057,0.5625 -1.01267,1.25 -0.007,0.6875 -1.35696,3.90091 -3,7.14092 -3.20322,6.31664 -3.70117,9.49524 -1.78733,11.40908 2.60084,2.60084 4.57952,1.31229 6.21913,-4.05 z m -22.86436,-39.0863 c -3.85965,-2.82224 -0.61641,-16.9548 4.522,-19.70479 2.91117,-1.55801 5.3597,1.22712 4.43186,5.04109 -0.3345,1.375 -1.01769,4.69457 -1.51819,7.37682 -1.33854,7.17333 -4.01027,9.7916 -7.43567,7.28688 z m -106.26179,-7.3393 c -3.38434,-5.16514 -1.11354,-19.3244 3.09916,-19.3244 3.08784,0 7.60785,5.87979 7.60785,9.89657 0,9.72277 -6.66717,15.59341 -10.70701,9.42783 z"
       id="path5296"
       inkscape:connector-curvature="0" />
  </g>
</svg>
