<?xml version="1.0" encoding="UTF-8" standalone="no"?>
<!-- Created with Inkscape (http://www.inkscape.org/) -->

<svg
   xmlns:dc="http://purl.org/dc/elements/1.1/"
   xmlns:cc="http://creativecommons.org/ns#"
   xmlns:rdf="http://www.w3.org/1999/02/22-rdf-syntax-ns#"
   xmlns:svg="http://www.w3.org/2000/svg"
   xmlns="http://www.w3.org/2000/svg"
   xmlns:sodipodi="http://sodipodi.sourceforge.net/DTD/sodipodi-0.dtd"
   xmlns:inkscape="http://www.inkscape.org/namespaces/inkscape"
   width="87.929276mm"
   height="92.004517mm"
   viewBox="0 0 311.56045 326.00026"
   id="svg4723"
   version="1.1"
   inkscape:version="0.91 r13725"
   sodipodi:docname="2.svg">
  <defs
     id="defs4725" />
  <sodipodi:namedview
     id="base"
     pagecolor="#ffffff"
     bordercolor="#666666"
     borderopacity="1.0"
     inkscape:pageopacity="0.0"
     inkscape:pageshadow="2"
     inkscape:zoom="1.4"
     inkscape:cx="114.07543"
     inkscape:cy="115.07872"
     inkscape:document-units="px"
     inkscape:current-layer="layer1"
     showgrid="false"
     fit-margin-top="0"
     fit-margin-left="0"
     fit-margin-right="0"
     fit-margin-bottom="0"
     inkscape:window-width="1920"
     inkscape:window-height="1003"
     inkscape:window-x="-9"
     inkscape:window-y="-9"
     inkscape:window-maximized="1" />
  <metadata
     id="metadata4728">
    <rdf:RDF>
      <cc:Work
         rdf:about="">
        <dc:format>image/svg+xml</dc:format>
        <dc:type
           rdf:resource="http://purl.org/dc/dcmitype/StillImage" />
        <dc:title></dc:title>
      </cc:Work>
    </rdf:RDF>
  </metadata>
  <g
     inkscape:label="Ebene 1"
     inkscape:groupmode="layer"
     id="layer1"
     transform="translate(-83.079666,-40.917778)">
    <path
       style="fill:#000000"
       d="m 188.57007,365.969 c -3.74107,-0.48108 -8.10622,-1.54915 -9.70034,-2.3735 -1.59411,-0.82435 -3.42135,-1.49882 -4.06052,-1.49882 -1.71563,0 -18.7678,-8.68775 -20.54976,-10.46971 -0.84166,-0.84166 -2.01055,-1.53029 -2.59754,-1.53029 -1.64594,0 -13.86942,-10.31817 -17.7899,-15.01692 -1.925,-2.30714 -4.44477,-5.22227 -5.59949,-6.47807 -1.15472,-1.2558 -4.26224,-5.59566 -6.90561,-9.64414 -2.64336,-4.04849 -5.29859,-7.82125 -5.9005,-8.38392 -1.47132,-1.37538 -3.37197,-4.43428 -4.64583,-7.47696 -2.76135,-6.59561 -3.48941,-8 -4.14737,-8 -0.39081,0 -1.01156,-1.6875 -1.37943,-3.75 -0.36788,-2.0625 -1.4574,-4.65 -2.42116,-5.75 -0.96377,-1.1 -2.57691,-3.8 -3.584777,-6 -1.00786,-2.2 -3.05053,-5.94037 -4.53927,-8.31193 -1.48874,-2.37157 -3.25392,-6.64657 -3.92263,-9.5 -0.66872,-2.85344 -1.62247,-5.70293 -2.11946,-6.33219 -0.49699,-0.62927 -1.14858,-3.55427 -1.44799,-6.5 -0.2994,-2.94574 -0.91574,-6.25588 -1.36965,-7.35588 -4.37185,-10.59471 -3.45576,-56.89932 1.46401,-74.00001 2.72167,-9.46028 7.40149,-24.57519 9.13369,-29.5 0.87053,-2.475 2.01546,-6.075 2.5443,-8 0.52883,-1.925 1.818117,-5.3 2.865077,-7.5 3.55491,-7.47 9.12715,-20.98584 10.10074,-24.500007 1.92125,-6.934805 9.11855,-21.564665 11.91502,-24.219499 0.99617,-0.945723 2.57011,-2.970723 3.49763,-4.5 0.92752,-1.529277 4.39566,-5.030504 7.70698,-7.780504 3.31131,-2.75 6.73599,-5.787501 7.61039,-6.750001 0.8744,-0.9625 2.22419,-1.75 2.99954,-1.75 0.77535,0 2.86693,-0.900603 4.64796,-2.001339 1.78103,-1.100737 5.43415,-2.292862 8.11804,-2.649166 2.68389,-0.356304 5.76743,-1.255701 6.8523,-1.998661 1.08488,-0.742959 3.0156,-1.350835 4.2905,-1.350835 1.27489,0 3.56895,-0.924877 5.0979,-2.055283 3.50431,-2.590844 21.33128,-2.87934 30.1391,-0.487745 3.025,0.821381 6.625,1.773589 8,2.116018 1.375,0.342429 4.86149,1.697289 7.74776,3.0108 6.82713,3.106961 25.9744,8.114508 34.25225,8.957927 3.575,0.364252 6.76981,0.8261 7.09957,1.026329 0.32977,0.200229 5.906,1.059665 12.39164,1.909857 15.58852,2.043477 33.49238,7.329725 48.50879,14.322586 21.17944,9.86286 41.52978,32.100823 50.0565,54.699523 1.66017,4.4 4.98646,13.175 7.39176,19.5 19.58951,51.51273 19.04042,103.9506 -1.40233,133.92368 -0.96643,1.41698 -3.73209,5.72633 -6.1459,9.57633 -7.5309,12.01169 -27.98828,31.16488 -40.63768,38.04696 -2.06929,1.12582 -6.92487,3.89978 -10.79018,6.16435 -9.21556,5.39913 -16.96016,8.82468 -27.97217,12.37253 -12.96372,4.17664 -14.40326,4.59576 -20.5,5.9686 -3.025,0.68116 -7.75,1.88983 -10.5,2.68594 -11.13957,3.22483 -19.28449,5.4752 -24.50001,6.76913 -3.025,0.75048 -7.3,1.83257 -9.5,2.40465 -4.73558,1.23141 -30.11368,1.20602 -39.80195,-0.0398 z m 31.30195,-6.31031 c 4.125,-0.25081 9.075,-0.9672 11,-1.59198 1.925,-0.62479 4.9625,-1.54863 6.75,-2.053 3.21402,-0.90688 7.18934,-2.04006 13.50001,-3.84825 1.7875,-0.51217 9.1,-2.56314 16.25,-4.55771 7.15,-1.99457 15.47381,-4.31863 18.49736,-5.16457 9.21057,-2.57696 37.70543,-16.43837 46.1428,-22.44631 1.46772,-1.04511 3.12673,-1.9002 3.6867,-1.9002 0.98354,0 17.49876,-16.05996 23.72127,-23.06738 5.63011,-6.3403 18.88373,-27.26073 22.76422,-35.93262 6.68135,-14.9311 7.12961,-51.63372 0.95265,-78.00001 -0.83753,-3.575 -1.64988,-7.625 -1.80522,-9 -0.41705,-3.69156 -3.5911,-15.34347 -4.49471,-16.5 -0.42971,-0.55 -1.67503,-3.475 -2.76736,-6.5 -14.93157,-41.34992 -36.07984,-63.626073 -70.19771,-73.9415 -14.594,-4.412448 -16.59623,-4.917548 -26,-6.558984 -5.225,-0.912028 -12.85731,-2.550148 -16.96068,-3.640265 -4.10338,-1.090117 -9.27838,-2.001291 -11.5,-2.024829 -5.72847,-0.06069 -14.68085,-1.790311 -17.054,-3.294866 -1.10806,-0.702504 -3.56829,-1.618515 -5.46717,-2.035579 -1.89888,-0.417064 -4.14228,-1.127619 -4.98534,-1.579011 -17.97514,-9.624344 -57.71163,-12.750035 -55.60945,-4.374265 0.68086,2.712759 -1.34242,3.804209 -6.52067,3.517545 -12.38471,-0.685608 -30.29801,17.270813 -39.83587,39.931747 -1.2732,3.025 -3.14085,7.299997 -4.15032,9.499997 -9.47213,20.64308 -22.806177,61.19562 -25.975937,79.00001 -1.83684,10.31745 -1.7625,43.85129 0.11749,53.00001 0.45208,2.2 1.04386,5.8704 1.31506,8.15645 0.27119,2.28605 0.94918,4.98605 1.50663,6 0.55746,1.01395 1.97461,4.76489 3.14922,8.33541 1.17462,3.57053 2.43612,6.72053 2.80334,7 0.36723,0.27948 1.918067,2.98314 3.446317,6.00814 1.52825,3.025 4.78249,9.325 7.23165,14 2.44915,4.675 4.99513,9.85 5.65774,11.5 0.6626,1.65 2.03825,4.125 3.057,5.5 2.77885,3.75059 9.07238,12.54875 10.77497,15.06308 15.14366,22.36356 44.23254,40.16028 68.00001,41.60273 5.225,0.3171 9.66563,0.72515 9.86806,0.90676 0.20243,0.18162 1.55243,0.13115 3,-0.11215 1.44756,-0.24331 6.00694,-0.64758 10.13194,-0.8984 z m -34.30526,-84.81202 c -2.99003,-4.97838 -0.9068,-25.66927 2.90281,-28.83096 0.77135,-0.64016 1.40245,-1.71631 1.40245,-2.39145 0,-0.67513 1.35,-3.09113 3,-5.36889 1.65,-2.27777 3,-4.53843 3,-5.0237 0,-6.64655 26.00715,-24.98688 40.5,-28.56074 18.24139,-4.49822 49.39779,4.85661 54.80173,16.45443 0.37705,0.80921 1.09258,2.1463 1.59005,2.9713 2.03355,3.37238 4.04451,9.82111 4.67758,15.00001 0.36978,3.025 1.52136,6.69925 2.55906,8.165 1.48307,2.09484 1.67646,3.21804 0.90391,5.25 -1.97791,5.2023 -8.01759,1.83065 -8.04968,-4.49374 -0.0349,-6.86557 -4.2825,-22.92127 -6.06398,-22.92127 -0.32622,0 -2.39882,-1.6875 -4.60578,-3.75 -14.93908,-13.96122 -47.00108,-12.69574 -67.6742,2.67108 -16.79513,12.48423 -29.24871,39.10269 -23.03655,49.23869 0.22239,0.36286 0.12974,1.37536 -0.20588,2.25 -0.89007,2.31948 -4.13789,1.94366 -5.70152,-0.65976 z M 173.9246,126.34666 c -2.77642,-9.99743 -0.39971,-15.79757 6.57934,-16.05627 6.1333,-0.22734 6.57416,0.45249 5.8041,8.95033 -0.9691,10.69439 -9.9549,15.85068 -12.38344,7.10594 z m 121.67954,-9.94365 c -2.80594,-4.96629 -1.66692,-9.76893 2.82207,-11.89909 7.71789,-3.66238 10.33977,0.63458 5.5481,9.09273 -1.66518,2.93934 -7.23915,4.80819 -8.37017,2.80636 z"
       id="path5309"
       inkscape:connector-curvature="0" />
  </g>
</svg>
