<?xml version="1.0" encoding="UTF-8" standalone="no"?>
<!-- Created with Inkscape (http://www.inkscape.org/) -->

<svg
   xmlns:dc="http://purl.org/dc/elements/1.1/"
   xmlns:cc="http://creativecommons.org/ns#"
   xmlns:rdf="http://www.w3.org/1999/02/22-rdf-syntax-ns#"
   xmlns:svg="http://www.w3.org/2000/svg"
   xmlns="http://www.w3.org/2000/svg"
   xmlns:sodipodi="http://sodipodi.sourceforge.net/DTD/sodipodi-0.dtd"
   xmlns:inkscape="http://www.inkscape.org/namespaces/inkscape"
   width="92.774017mm"
   height="75.520256mm"
   viewBox="0 0 328.72686 267.59146"
   id="svg4723"
   version="1.1"
   inkscape:version="0.91 r13725"
   sodipodi:docname="3.svg">
  <defs
     id="defs4725" />
  <sodipodi:namedview
     id="base"
     pagecolor="#ffffff"
     bordercolor="#666666"
     borderopacity="1.0"
     inkscape:pageopacity="0.0"
     inkscape:pageshadow="2"
     inkscape:zoom="1.4"
     inkscape:cx="122.58699"
     inkscape:cy="85.45467"
     inkscape:document-units="px"
     inkscape:current-layer="layer1"
     showgrid="false"
     fit-margin-top="0"
     fit-margin-left="0"
     fit-margin-right="0"
     fit-margin-bottom="0"
     inkscape:window-width="1920"
     inkscape:window-height="1003"
     inkscape:window-x="-9"
     inkscape:window-y="-9"
     inkscape:window-maximized="1" />
  <metadata
     id="metadata4728">
    <rdf:RDF>
      <cc:Work
         rdf:about="">
        <dc:format>image/svg+xml</dc:format>
        <dc:type
           rdf:resource="http://purl.org/dc/dcmitype/StillImage" />
        <dc:title></dc:title>
      </cc:Work>
    </rdf:RDF>
  </metadata>
  <g
     inkscape:label="Ebene 1"
     inkscape:groupmode="layer"
     id="layer1"
     transform="translate(-74.568102,-69.702527)">
    <path
       style="fill:#000000"
       d="m 229.56887,336.07393 c -0.28254,-0.28254 -3.60511,-0.53745 -7.38348,-0.56644 -3.77837,-0.029 -7.31816,-0.32985 -7.86619,-0.66856 -0.54804,-0.3387 -2.43892,-0.49155 -4.20196,-0.33965 -1.76304,0.15189 -7.16953,-0.46663 -12.01441,-1.37449 -4.84488,-0.90787 -9.93387,-1.7985 -11.30887,-1.97918 -8.41199,-1.1054 -39.87335,-10.70355 -45.90981,-14.00606 -1.42461,-0.77939 -5.17769,-2.59503 -8.34019,-4.03476 -3.1625,-1.43973 -5.75,-3.035 -5.75,-3.54506 0,-0.51006 -0.5625,-0.92793 -1.25,-0.9286 -0.6875,-6.7e-4 -2.6,-1.14386 -4.25,-2.54042 -13.82561,-11.70197 -12.92909,-10.83457 -17.52754,-16.95836 -1.65201,-2.2 -3.68749,-4.9 -4.523279,-6 -3.48405,-4.58542 -6.18505,-9.31148 -6.86113,-12.0052 -0.39636,-1.57921 -1.30697,-3.34907 -2.02358,-3.93304 -1.60506,-1.30797 -8.54855,-18.13268 -8.919617,-21.61305 -0.148553,-1.39333 -0.64747,-3.14393 -1.108705,-3.89022 -0.461235,-0.7463 -1.003521,-3.18772 -1.20508,-5.4254 -0.201559,-2.23767 -0.808507,-4.51053 -1.348773,-5.0508 -0.540266,-0.54026 -0.982302,-2.92214 -0.982302,-5.29307 0,-2.37093 -0.700877,-8.66632 -1.557505,-13.98977 -2.549147,-15.84147 2.573697,-58.50042 8.934592,-74.40016 1.4426,-3.60594 2.62291,-7.07019 2.62291,-7.69835 0,-1.93711 11.43459,-16.39073 17.685819,-22.35535 14.53706,-13.870542 37.09132,-26.332892 54.31419,-30.011292 12.91794,-2.75896 14.99737,-3.05183 17.39548,-2.44994 1.52979,0.38396 2.60452,0.23319 2.60452,-0.36536 0,-0.56048 1.0125,-1.03336 2.25,-1.05085 1.2375,-0.0175 3.09966,-0.67506 4.13814,-1.46126 1.26113,-0.95476 2.44722,-1.13023 3.57174,-0.52841 0.92598,0.49557 3.46831,0.8764 5.64964,0.8463 4.68216,-0.0646 15.39169,2.02058 15.38773,2.99607 -0.002,0.37351 -4.7416,0.66368 -10.53351,0.64484 -6.82753,-0.0222 -13.2443,0.6082 -18.24724,1.79272 -4.24407,1.00484 -8.8415,1.99882 -10.2165,2.20884 -2.47788,0.37848 -10.64724,2.97345 -18.65964,5.92717 -6.89418,2.5415 -15.47468,6.95643 -22.16108,11.40256 -3.47639,2.31164 -6.76484,4.202982 -7.30765,4.202982 -1.26168,0 -22.0534,18.57084 -23.302699,20.8136 -0.51667,0.92752 -1.60201,2.35202 -2.41187,3.16554 -10.89613,10.94538 -19.835068,59.45753 -16.679547,90.52088 2.382211,23.4508 18.518677,60.25022 32.010356,73.00002 7.44668,7.0372 14.5049,12.74644 18.12793,14.66326 2.13631,1.13025 4.59463,2.6809 5.46294,3.44587 0.86831,0.76498 1.96373,1.39087 2.43427,1.39087 0.47055,0 2.68512,0.87077 4.92127,1.93505 2.23614,1.06427 6.99072,2.88764 10.56572,4.05193 3.575,1.16428 8.01119,2.81273 9.8582,3.66321 1.84701,0.85049 5.21512,1.75968 7.4847,2.02042 2.26957,0.26074 4.58338,0.82699 5.14179,1.25834 1.35738,1.0485 10.87936,2.78989 22.51531,4.11763 32.52078,3.71082 61.8311,3.09433 69.50001,-1.46181 1.1,-0.65351 3.19778,-1.2691 4.66173,-1.36798 2.64448,-0.1786 33.1425,-10.02274 39.83827,-12.85897 14.36506,-6.08483 29.24781,-15.78816 40.63347,-26.49241 8.58609,-8.07223 16.36654,-16.84715 16.36654,-18.45845 0,-0.42804 1.72291,-2.83222 3.82869,-5.34261 2.10578,-2.5104 5.47924,-7.03936 7.49658,-10.06436 2.01734,-3.025 4.02556,-5.95 4.46271,-6.5 0.43715,-0.55 1.82465,-3.7 3.08333,-7 1.25869,-3.3 2.63409,-6.675 3.05646,-7.5 0.42237,-0.825 1.60782,-5.66251 2.63434,-10.75001 1.02652,-5.0875 2.20885,-9.25 2.6274,-9.25 0.41854,0 0.37947,-1.0125 -0.0868,-2.25 -0.4663,-1.2375 -0.64967,-5.625 -0.40751,-9.75 0.44085,-7.5094 -1.58622,-27.54222 -3.64276,-36.00001 -0.6018,-2.475 -1.35042,-6.3 -1.6636,-8.5 -0.31318,-2.2 -2.38398,-7.825 -4.60179,-12.5 -2.21781,-4.67501 -4.97831,-10.52501 -6.13445,-13.00001 -2.45856,-5.26314 -14.64756,-17.61554 -20.22882,-20.5 -2.12844,-1.1 -6.41375,-3.6875 -9.52292,-5.75 -3.10919,-2.062502 -6.15881,-3.750002 -6.77695,-3.750002 -0.61815,0 -1.12391,-0.37396 -1.12391,-0.83102 0,-0.45707 -1.0125,-1.32556 -2.25,-1.93 -20.55045,-10.03754 -32.9474,-13.68696 -50.25001,-14.79265 -29.60119,-1.8916 -48.51654,-0.67518 -63.63421,4.09224 -2.54882,0.80378 -5.51718,1.46142 -6.59637,1.46142 -1.07918,0 -3.26878,0.64161 -4.86578,1.42579 -7.89768,3.87804 -25.40365,4.92695 -25.40365,1.52213 0,-0.44485 -0.96654,-0.95261 -2.14787,-1.12837 -2.21,-0.32879 -4.73568,-3.26933 -3.69874,-4.30627 0.32046,-0.32046 2.49491,-0.153 4.83212,0.37213 5.82498,1.30879 14.53934,0.77046 20.39867,-1.26013 7.6894,-2.66482 30.88205,-8.54321 39.90667,-10.11471 25.04799,-4.36171 72.76404,1.72845 85.70917,10.93936 0.825,0.58702 3.3,1.9487 5.5,3.02596 2.2,1.07726 6.48568,3.54839 9.52373,5.49139 3.03806,1.943 6.25862,3.98273 7.15681,4.53273 0.89819,0.55 4.42629,2.9125 7.84022,5.250002 3.41393,2.3375 6.36719,4.25 6.56281,4.25 2.53124,0 11.97028,11.54875 15.80889,19.34232 14.60024,29.64304 18.2635,51.04137 15.00645,87.6577 -1.73322,19.48519 -14.05305,49.34198 -22.519,54.57423 -0.49673,0.30699 -2.40431,2.89088 -4.23906,5.74199 -8.05163,12.51171 -31.7865,34.6838 -37.12846,34.6838 -0.30367,0 -2.37254,1.14917 -4.59748,2.55371 -6.67431,4.21331 -10.90387,6.4463 -12.21014,6.4463 -0.67891,0 -2.8395,0.86029 -4.8013,1.91175 -19.95058,10.69287 -81.8098,23.8486 -87.12858,18.52982 z m -37.54021,-85.53854 c -3.99591,-0.38545 -8.04591,-1.04376 -9,-1.46292 -0.95408,-0.41917 -3.90343,-1.02717 -6.55409,-1.35112 -3.84501,-0.46993 -5.15304,-1.14102 -6.46968,-3.31933 -3.22493,-5.33551 0.33368,-5.92876 19.78907,-3.29902 14.43629,1.95133 45.27915,2.19169 65.00001,0.50657 6.875,-0.58747 19.76635,-1.03398 28.64744,-0.99226 11.78739,0.0554 17.30189,-0.32189 20.42295,-1.39718 5.09482,-1.75531 7.45051,-0.85815 8.22348,3.1319 1.31371,6.78134 -2.29979,7.56963 -36.29387,7.91764 -14.575,0.14921 -37.75,0.42772 -51.5,0.61891 -13.75,0.19119 -28.26939,0.0323 -32.26531,-0.35319 z m 80.83789,-92.53793 c -3.98349,-5.06419 -2.54967,-20.25292 1.75591,-18.60072 6.52557,2.5041 13.24926,18.23558 7.79395,18.23558 -0.75765,0 -1.93775,0.675 -2.62244,1.5 -1.87428,2.25837 -4.61096,1.81005 -6.92742,-1.13486 z m -98.86975,0.37927 c -3.12006,-3.75945 -2.13493,-10.08505 2.25416,-14.47414 5.56891,-5.56891 12.30453,2.46132 8.42596,10.04547 -2.47467,4.83897 -8.32594,7.26528 -10.68012,4.42867 z"
       id="path5322"
       inkscape:connector-curvature="0" />
  </g>
</svg>
