<?xml version="1.0" encoding="UTF-8" standalone="no"?>
<!-- Created with Inkscape (http://www.inkscape.org/) -->

<svg
   xmlns:dc="http://purl.org/dc/elements/1.1/"
   xmlns:cc="http://creativecommons.org/ns#"
   xmlns:rdf="http://www.w3.org/1999/02/22-rdf-syntax-ns#"
   xmlns:svg="http://www.w3.org/2000/svg"
   xmlns="http://www.w3.org/2000/svg"
   xmlns:sodipodi="http://sodipodi.sourceforge.net/DTD/sodipodi-0.dtd"
   xmlns:inkscape="http://www.inkscape.org/namespaces/inkscape"
   width="93.594994mm"
   height="86.045319mm"
   viewBox="0 0 331.63583 304.88499"
   id="svg4723"
   version="1.1"
   inkscape:version="0.91 r13725"
   sodipodi:docname="4.svg">
  <defs
     id="defs4725" />
  <sodipodi:namedview
     id="base"
     pagecolor="#ffffff"
     bordercolor="#666666"
     borderopacity="1.0"
     inkscape:pageopacity="0.0"
     inkscape:pageshadow="2"
     inkscape:zoom="1.4"
     inkscape:cx="4.4915131"
     inkscape:cy="119.85464"
     inkscape:document-units="px"
     inkscape:current-layer="layer1"
     showgrid="false"
     fit-margin-top="0"
     fit-margin-left="0"
     fit-margin-right="0"
     fit-margin-bottom="0"
     inkscape:window-width="1920"
     inkscape:window-height="1003"
     inkscape:window-x="-9"
     inkscape:window-y="-9"
     inkscape:window-maximized="1" />
  <metadata
     id="metadata4728">
    <rdf:RDF>
      <cc:Work
         rdf:about="">
        <dc:format>image/svg+xml</dc:format>
        <dc:type
           rdf:resource="http://purl.org/dc/dcmitype/StillImage" />
        <dc:title></dc:title>
      </cc:Work>
    </rdf:RDF>
  </metadata>
  <g
     inkscape:label="Ebene 1"
     inkscape:groupmode="layer"
     id="layer1"
     transform="translate(84.025195,-151.99533)">
    <path
       style="fill:#000000"
       d="m 40.960954,456.23264 c -2.3375,-0.50241 -4.25,-1.27774 -4.25,-1.72295 0,-0.44522 -1.78078,-1.04833 -3.9573,-1.34027 -4.18612,-0.56147 -19.0427,-7.51275 -19.0427,-8.90993 0,-0.45244 -1.05526,-0.82262 -2.34502,-0.82262 -1.28975,0 -3.1595002,-0.9 -4.1549802,-2 -0.99549,-1.1 -2.30274,-2.00437 -2.90499,-2.00971 -0.60226,-0.005 -2.95717,-1.46783 -5.23314005,-3.25 -2.27595995,-1.78216 -4.97595995,-3.79454 -5.99999995,-4.47195 -1.02403,-0.67742 -3.5018698,-2.31912 -5.5062998,-3.64822 -10.73801,-7.12019 -38.36602,-35.85233 -43.20341,-44.93001 -0.6419,-1.20456 -3.04885,-4.93761 -5.34878,-8.29565 -3.5584,-5.19547 -6.64539,-10.34457 -10.428346,-17.39447 -8.256134,-15.38608 -13.52406,-40.05718 -12.47963,-58.44542 1.033274,-18.19183 1.571852,-21.92212 4.208419,-29.14827 1.385928,-3.79848 2.880145,-8.25632 3.320484,-9.90632 2.933798,-10.99327 11.267863,-28.17137 21.635303,-44.59445 2.44913,-3.87967 14.65867,-16.6934 18.5066,-19.42241 5.01865,-3.55929 12.90317,-8.48574 13.60325,-8.49966 0.45679,-0.009 2.72986,-1.98361 5.05125,-4.38782 5.33435,-5.52466 11.1473498,-8.93722 19.8924898,-11.67801 13.8015102,-4.3255 24.9878102,-8.21286 29.3868002,-10.21222 2.475,-1.12491 7.875,-2.9017 12,-3.94843 4.125,-1.04674 9.075,-2.31872 11,-2.82663 8.00777,-2.11285 23.35259,-3.03072 31,-1.8543 3.575,0.54996 15.078696,1.83341 25.563766,2.85211 10.48508,1.01871 21.73508,2.6037 25.00001,3.52221 9.97685,2.80673 15.79537,4.68922 18.93623,6.12653 7.32383,3.35151 21.41654,7.59269 22.66511,6.82103 0.38318,-0.23682 0.97935,0.0268 1.32481,0.58573 0.34546,0.55897 1.89155,1.01631 3.43574,1.01631 7.97036,0 24.64291,10.41835 38.2157,23.88023 1.45274,1.44088 4.10456,3.96977 5.89293,5.61977 15.06915,13.90325 22.13748,39.68591 20.67766,75.42454 -0.88144,21.57924 -15.16415,67.32564 -26.52426,84.95513 -5.59644,8.68499 -13.04438,18.28359 -17.55205,22.62035 -16.38613,15.76487 -28.97405,26.50001 -31.07364,26.50001 -0.41429,0 -2.17273,1.01075 -3.90763,2.24611 -1.7349,1.23536 -3.37937,2.16647 -3.65437,2.06914 -0.5215,-0.18459 -11.18466,7.25791 -13.51754,9.43475 -0.73678,0.6875 -1.63978,1.25 -2.00666,1.25 -0.36688,0 -1.86153,0.83891 -3.32143,1.86425 -1.4599,1.02534 -4.2805,2.44355 -6.268,3.15158 -2.22059,0.79107 -3.56982,1.9035 -3.5,2.88575 0.0807,1.13461 -0.75688,1.59842 -2.88637,1.59842 -1.65,0 -3.9,0.51635 -5,1.14744 -2.58095,1.48073 -20.02061,8.33303 -24.25001,9.52818 -1.7875,0.50511 -3.25,1.28926 -3.25,1.74255 0,0.45329 -2.351246,1.13607 -5.224996,1.51729 -2.87375,0.38122 -5.68625,1.04966 -6.25,1.48543 -3.88422,3.00247 -39.16021,5.83396 -48.275,3.87488 z m 29.39899,-7.27789 c 11.74784,-1.30765 26.66613,-5.29473 38.351006,-10.24974 12.28598,-5.2099 32.61573,-16.08847 38.87343,-20.8014 4.05539,-3.05428 7.61502,-5.31163 7.91031,-5.01634 0.29528,0.29528 1.14529,-0.33175 1.8889,-1.39341 0.74362,-1.06165 4.83398,-4.06845 9.0897,-6.68178 18.48704,-11.35241 47.30588,-41.10069 50.73884,-52.37522 0.41867,-1.375 1.53891,-3.625 2.48942,-5 4.01618,-5.80977 13.60256,-31.53292 17.10927,-45.90934 0.99494,-4.07896 2.23541,-7.68052 2.7566,-8.00347 0.98807,-0.61226 1.6004,-34.15289 0.76836,-42.0872 -2.02356,-19.2966 -9.1439,-34.20747 -21.93629,-45.93734 -23.02853,-21.11581 -22.23709,-20.65234 -45.43708,-26.60849 -7.28671,-1.87073 -14.48671,-4.03569 -16,-4.81103 -2.36127,-1.2098 -12.09992,-4.49802 -22.75145,-7.68195 -1.65,-0.49322 -7.275,-1.36544 -12.5,-1.93828 -8.9831,-0.98485 -11.74438,-1.26195 -25.000006,-2.50876 -3.025,-0.28453 -9.1,-1.00922 -13.5,-1.61043 -14.34425,-1.95995 -36.03344,1.93941 -52.71565,9.47741 -7.72176,3.48914 -10.70512,4.50481 -16.28435,5.5439 -6.2888902,1.17126 -11.4074202,3.16234 -9.7289602,3.78451 1.33675,0.49551 4.22896,5.44752 4.22896,7.24079 0,1.60762 -2.59087,1.24756 -4.09902,-0.56965 -3.3712,-4.06204 -17.3399098,0.35818 -18.5481098,5.86931 -0.68461,3.12282 -1.20604,3.30908 -3.85051,1.37539 -2.99948,-2.19327 -14.37323,5.43118 -26.87516,18.01592 -9.56246,9.62579 -17.49058,23.64455 -25.65202,45.3587 -1.757138,4.675 -3.560375,9.4 -4.007197,10.5 -2.256176,5.55433 -4.057317,20.14095 -4.036137,32.68683 0.0287,17.00095 4.068371,34.21084 12.044724,51.31318 2.05211,4.4 4.07694,9.09043 4.49962,10.42319 0.42268,1.33275 1.1576,2.90775 1.63316,3.5 2.93716,3.65785 7.89064,10.68985 7.89064,11.20162 0,1.13173 10.28198,13.84659 15.15524,18.74119 2.66462,2.6763 4.84476,5.19247 4.84476,5.59149 0,0.91111 11.36989,11.71783 15.83637,15.05198 1.83501,1.3698 3.86001,2.94701 4.5,3.50492 3.0203898,2.63299 9.5114998,7.48562 10.0131298,7.48562 0.30893,0 3.16918,1.8319 6.3561,4.07088 7.8033202,5.48225 22.9430202,12.55853 31.1196202,14.54528 3.67114,0.89202 7.34979,1.94667 8.17479,2.34368 0.825,0.39701 3.96437,0.80533 6.97638,0.90738 3.01201,0.10205 5.86588,0.57504 6.34194,1.0511 0.86542,0.86542 2.36214,0.82046 13.33067,-0.40044 z m -7.64899,-69.19403 c -14.39705,-2.32529 -31.63746,-22.94876 -32.31936,-38.66134 -0.30707,-7.07574 4.48399,-6.15133 5.63624,1.08748 1.411508,9.94901 12.771824,29.50646 25.66441,30.49919 9.16552,3.54795 30.63157,0.67302 39.014966,-5.22525 1.37706,-0.96885 3.51605,-2.07585 4.75333,-2.46 8.50352,-2.64018 29.61372,-20.241 30.69736,-25.59421 1.15419,-5.7017 1.63854,-6.96973 2.66226,-6.96973 2.16198,0 4.62648,3.67013 4.70051,7 0.18377,8.2658 -6.21014,14.50507 -30.30972,29.57667 -14.922296,9.33224 -34.053036,13.40356 -50.499996,10.74719 z M 126.71096,260.43685 c 0,-0.55 -0.9253,-1 -2.05623,-1 -3.36781,0 -6.1346,-7.41039 -4.77163,-12.78005 1.31645,-5.18641 4.30331,-5.88471 5.3225,-1.24435 0.35945,1.63658 0.36865,3.43658 0.0204,4 -0.34817,0.56342 -0.13355,1.0244 0.47697,1.0244 0.61052,0 1.76812,-1.575 2.57244,-3.5 2.76933,-6.62794 6.82852,-1.18954 4.52948,6.06848 -0.51072,1.61234 -1.19936,4.16902 -1.53031,5.68152 -0.57883,2.64538 -4.56362,4.17342 -4.56362,1.75 z M 37.377624,244.77018 c -3.13564,-3.13563 0.62586,-11.4969 6.92293,-15.38871 4.12029,-2.54648 5.67099,-1.74718 6.00628,3.09591 0.11638,1.68093 0.45345,4.04697 0.74905,5.25786 0.84096,3.4448 -1.6953,6.08154 -5.17951,5.38469 -1.79998,-0.35999 -3.63705,-0.04 -4.79219,0.83476 -2.13455,1.61645 -2.76656,1.7555 -3.70656,0.81549 z"
       id="path5335"
       inkscape:connector-curvature="0"
       sodipodi:nodetypes="sssssscssssssssssscsssssssssscsssssssscsssscsssssssssssssssssssssssssssssssssssssssssssssssssssssccssssssssssscssssssssssss" />
  </g>
</svg>
