<?xml version="1.0" encoding="UTF-8" standalone="no"?>
<!-- Created with Inkscape (http://www.inkscape.org/) -->

<svg
   xmlns:dc="http://purl.org/dc/elements/1.1/"
   xmlns:cc="http://creativecommons.org/ns#"
   xmlns:rdf="http://www.w3.org/1999/02/22-rdf-syntax-ns#"
   xmlns:svg="http://www.w3.org/2000/svg"
   xmlns="http://www.w3.org/2000/svg"
   xmlns:sodipodi="http://sodipodi.sourceforge.net/DTD/sodipodi-0.dtd"
   xmlns:inkscape="http://www.inkscape.org/namespaces/inkscape"
   width="95.61821mm"
   height="94.024612mm"
   viewBox="0 0 338.80471 333.15808"
   id="svg4723"
   version="1.1"
   inkscape:version="0.91 r13725"
   sodipodi:docname="5.svg">
  <defs
     id="defs4725" />
  <sodipodi:namedview
     id="base"
     pagecolor="#ffffff"
     bordercolor="#666666"
     borderopacity="1.0"
     inkscape:pageopacity="0.0"
     inkscape:pageshadow="2"
     inkscape:zoom="1.4"
     inkscape:cx="230.54772"
     inkscape:cy="124.72528"
     inkscape:document-units="px"
     inkscape:current-layer="layer1"
     showgrid="false"
     fit-margin-top="0"
     fit-margin-left="0"
     fit-margin-right="0"
     fit-margin-bottom="0"
     inkscape:window-width="1920"
     inkscape:window-height="1003"
     inkscape:window-x="-9"
     inkscape:window-y="-9"
     inkscape:window-maximized="1" />
  <metadata
     id="metadata4728">
    <rdf:RDF>
      <cc:Work
         rdf:about="">
        <dc:format>image/svg+xml</dc:format>
        <dc:type
           rdf:resource="http://purl.org/dc/dcmitype/StillImage" />
        <dc:title></dc:title>
      </cc:Work>
    </rdf:RDF>
  </metadata>
  <g
     inkscape:label="Ebene 1"
     inkscape:groupmode="layer"
     id="layer1"
     transform="translate(310.08143,-128.59287)">
    <path
       style="fill:#000000"
       d="m -196.95377,461.27988 c -10.53037,-1.01073 -21.66126,-3.26322 -25.43944,-5.14802 -1.85231,-0.92405 -3.96554,-1.6801 -4.69606,-1.6801 -2.20003,0 -18.3645,-7.79501 -18.3645,-8.85594 0,-0.54183 -1.39616,-1.2918 -3.10257,-1.66659 -1.80809,-0.39712 -5.33896,-2.90003 -8.46274,-5.99895 -2.94811,-2.92464 -6.00008,-5.46625 -6.78218,-5.64802 -1.56316,-0.36331 -13.65252,-14.46156 -13.65252,-15.92116 0,-0.50014 -0.675,-0.90934 -1.5,-0.90934 -0.825,0 -1.5,-0.81257 -1.5,-1.80572 0,-0.99315 -1.125,-3.33057 -2.5,-5.19428 -1.375,-1.86371 -2.5,-3.77554 -2.5,-4.24851 0,-0.47298 -1.34955,-2.29805 -2.99901,-4.05572 -1.64946,-1.75768 -4.085,-5.44577 -5.41233,-8.19577 -4.91215,-10.1772 -6.58866,-14.17041 -6.58866,-15.69329 0,-0.85901 -0.63589,-2.08957 -1.41308,-2.73458 -0.7772,-0.64502 -1.72984,-3.51262 -2.11699,-6.37245 -0.38715,-2.85983 -0.91459,-6.09969 -1.17209,-7.19969 -0.5123,-2.1885 -2.58985,-13.49955 -4.24291,-23.10014 -4.15143,-24.11064 11.45533,-99.66329 24.58338,-119.00853 1.29893,-1.91409 2.36169,-3.72821 2.36169,-4.03138 0,-0.30317 0.83079,-1.74569 1.84619,-3.20559 1.01541,-1.4599 3.54439,-5.80437 5.61997,-9.65437 2.07558,-3.85 4.3948,-7.71044 5.15381,-8.57874 0.75902,-0.86831 1.38003,-1.87977 1.38003,-2.24769 0,-0.36792 1.575,-2.86123 3.5,-5.54069 1.925,-2.67946 3.5,-5.3254 3.5,-5.87987 0,-0.55447 0.701,-1.5899 1.55778,-2.30096 0.85678,-0.71106 2.19837,-2.67866 2.98132,-4.37245 1.87387,-4.05379 4.16701,-7.8862 8.72378,-14.5796 5.69193,-8.36085 6.01975,-8.68353 9.62633,-9.47567 4.18428,-0.91902 5.83966,0.99916 3.31021,3.83573 -2.08101,2.33367 0.70275,1.76594 7.05577,-1.43898 2.06535,-1.04191 5.07972,-2.12774 6.69859,-2.41294 4.40627,-0.77627 8.04623,-2.33392 8.04623,-3.44321 0,-1.20415 12.15932,-5.06494 15.9517,-5.06494 1.50756,0 4.04766,-0.64903 5.64466,-1.4423 1.597,-0.79327 5.15364,-1.95745 7.90364,-2.58707 2.75,-0.62961 6.35,-1.52988 8,-2.00058 1.65,-0.4707 6.375,-1.14102 10.5,-1.48959 4.125,-0.34857 8.17501,-0.89554 9.00001,-1.21548 14.08494,-5.46233 47.35452,0.0707 68.225241,11.34649 1.49889,0.80979 2.84889,1.38696 3,1.28258 0.28697,-0.19821 6.64491,3.01153 12.962491,6.54398 2.02825,1.13409 6.078251,3.35964 9.000001,4.94567 13.235141,7.1845 47.454354,41.77222 57.5250952,58.14459 12.343563,20.06735 10.426093,16.38012 22.0864628,42.47172 14.80176,33.12089 15.16629,36.96749 7.20243,76.00001 -2.132,10.44938 -8.07205,25.06218 -13.02971,32.05367 -6.0217998,8.4922 -19.1087728,22.16911 -30.089964,31.44634 -4.557131,3.85 -12.807371,11.36221 -18.333872,16.6938 -5.52649,5.33159 -11.751351,10.84117 -13.833021,12.24352 -2.08167,1.40234 -4.637241,3.34382 -5.679031,4.31441 -6.33323,5.90029 -32.697432,16.42025 -64.036123,25.55197 -8.72797,2.54323 -29.93647,6.79602 -36.50001,7.3191 -10.07172,0.80265 -31.59603,0.91597 -39,0.20532 z m 45.00001,-7.76856 c 4.4,-1.04106 9.77516,-2.35273 11.9448,-2.91482 2.16964,-0.56209 4.32685,-0.78587 4.79381,-0.49727 0.46695,0.28859 1.39179,0.0879 2.05519,-0.44591 0.66341,-0.53384 2.7812,-1.28031 4.7062,-1.65882 4.46109,-0.87718 32.56547,-9.94346 40.639461,-13.11001 14.661111,-5.74997 26.972502,-13.58362 38.360543,-24.40854 12.630081,-12.00554 15.814651,-14.89302 22.000002,-19.94762 14.819121,-12.11002 35.0000052,-34.02887 35.0000052,-38.01419 0,-0.59924 0.43869,-1.87092 0.97487,-2.82596 7.3188598,-13.03633 13.9083998,-46.54764 11.8173098,-60.0973 -0.92163,-5.97181 -4.42506,-16.99396 -5.90864,-18.58914 -0.48595,-0.5225 -0.88354,-1.62058 -0.88354,-2.44018 0,-0.8196 -1.40975,-4.4421 -3.13278,-8.05 -1.7230298,-3.6079 -3.5778498,-7.68482 -4.1218198,-9.05982 -0.54397,-1.375 -1.68803,-3.82784 -2.54235,-5.45077 -12.544873,-23.83101 -18.0766742,-33.14242 -21.7266042,-36.57136 -1.36205,-1.27957 -2.47645,-2.82907 -2.47645,-3.44333 0,-0.61426 -1.687501,-2.74085 -3.750001,-4.72577 -8.834521,-8.50219 -16.250001,-16.55097 -16.250001,-17.63779 0,-0.64404 -0.39562,-1.17098 -0.87915,-1.17098 -0.48354,0 -4.169641,-3.15 -8.191351,-7 -4.02171,-3.85 -7.658561,-7 -8.081901,-7 -0.42333,0 -1.57472,-0.82386 -2.55864,-1.83079 -0.98393,-1.00694 -4.34098,-2.8448 -7.460121,-4.08415 -3.11914,-1.23934 -6.45139,-3.11549 -7.40499,-4.16921 -0.9536,-1.05372 -2.10534,-1.91585 -2.55942,-1.91585 -0.45408,0 -3.287721,-1.575 -6.296981,-3.5 -3.00926,-1.925 -5.71679,-3.5 -6.01675,-3.5 -0.29995,0 -3.359061,-1.28896 -6.798031,-2.86434 -25.97771,-11.90036 -57.99276,-12.81554 -94.25268,-2.69432 -2.75,0.7676 -8.6,2.40923 -13,3.64805 -4.4,1.23881 -8.675,2.33801 -9.5,2.44266 -1.78665,0.22662 -4.33569,1.10831 -8.76376,3.03133 -2.90075,1.25973 -5.80319,1.88282 -12.79549,2.74691 -3.74469,0.46276 -9.61932,6.34795 -13.3852,13.40926 -1.10888,2.07924 -3.36538,5.58045 -5.01444,7.78045 -1.64905,2.2 -3.45847,5.04325 -4.02093,6.31833 -1.17298,2.65915 -6.15207,9.51806 -7.27019,10.015 -0.4125,0.18333 -0.75,0.74123 -0.75,1.23977 0,0.49854 -1.96782,3.97645 -4.37294,7.72868 -2.40513,3.75224 -4.68545,7.80684 -5.06739,9.01023 -0.38194,1.2034 -1.11412,2.18799 -1.62706,2.18799 -0.51293,0 -0.93261,0.48002 -0.93261,1.06672 0,0.5867 -1.125,2.54167 -2.5,4.34439 -1.375,1.80272 -2.5,3.81266 -2.5,4.46653 0,0.65386 -1.06467,3.31139 -2.36593,5.9056 -1.30126,2.59422 -3.37261,8.31676 -4.603,12.71676 -1.23039,4.4 -2.60683,8.9 -3.05875,10 -0.45192,1.1 -1.04399,3.125 -1.31571,4.5 -0.27172,1.375 -1.80743,7.675 -3.41268,14 -1.60526,6.32501 -3.70161,16.90001 -4.65856,23.50001 -0.95694,6.6 -2.11405,14.25 -2.57134,17 -1.73901,10.45791 0.7628,37.31678 4.65733,50 17.43546,56.78161 52.42052,88.54639 103.32865,93.81754 11.98985,1.24145 36.91421,0.53687 44.50001,-1.25797 z m -23.92696,-48.94136 c -0.33252,-0.53802 -3.18498,-1.2624 -6.33881,-1.60972 -6.48576,-0.71426 -12.28438,-2.85719 -16.82863,-6.21916 -1.70192,-1.25913 -3.41944,-2.28932 -3.81672,-2.28932 -5.59889,0 -22.58889,-26.42697 -22.58889,-35.1357 0,-1.0403 -0.43836,-2.67284 -0.97413,-3.62788 -1.00239,-1.78681 -2.79052,-11.17255 -3.69418,-19.39046 -0.44618,-4.05754 -0.24854,-4.73759 1.54209,-5.30591 1.65783,-0.52617 1.94091,-1.21658 1.46812,-3.58056 -0.66272,-3.3136 1.6923,-5.0219 4.54056,-3.29368 0.88965,0.53981 3.17185,1.84832 5.07156,2.90782 1.89971,1.0595 4.68607,2.98996 6.19192,4.28991 1.50585,1.29995 3.77654,2.90248 5.04598,3.56117 1.26944,0.6587 6.13308,3.27361 10.80808,5.81093 9.08138,4.92885 16.84509,7.3264 26.5,8.18359 5.20611,0.46221 12.92826,1.37193 35.00001,4.12323 4.23905,0.52841 5.68485,0.22951 9.5,-1.96403 2.475,-1.42301 6.46637,-3.53018 8.8697,-4.68261 2.40334,-1.15243 4.58519,-2.91932 4.84855,-3.92643 0.72211,-2.76136 7.76358,-5.30995 10.29792,-3.72723 2.58839,1.61648 2.6245,8.20505 0.0864,15.75783 -5.31551,15.81745 -25.6683,39.1326 -39.27687,44.99361 -1.27911,0.55089 -3.00066,1.42416 -3.82566,1.9406 -4.79099,2.99908 -8.29454,3.69734 -19.68056,3.92232 -7.11008,0.14049 -12.39236,-0.16548 -12.7464,-0.73832 z m 25.94163,-7.58277 c 1.10806,-0.70023 3.4654,-1.59178 5.23853,-1.98122 1.77313,-0.38945 3.45404,-1.08051 3.73536,-1.53571 0.28133,-0.45519 2.87399,-2.16671 5.76147,-3.80337 4.99554,-2.83154 8.40138,-6.01526 13.6023,-12.71514 1.28085,-1.65 2.72211,-3 3.20282,-3 0.93432,0 6.58265,-8.95909 10.53921,-16.71676 2.70865,-5.31087 2.97029,-6.45945 1.15564,-5.07328 -0.6875,0.52516 -2.825,1.56517 -4.75,2.31111 -1.925,0.74595 -5.02534,2.49771 -6.88965,3.8928 -4.40784,3.29847 -13.8505,3.92826 -25.90506,1.72779 -4.78791,-0.874 -11.63029,-1.8566 -15.2053,-2.18356 -3.575,-0.32696 -8.075,-0.80904 -10,-1.07129 -1.925,-0.26225 -4.4,-0.58065 -5.5,-0.70756 -5.15951,-0.59526 -17.70861,-4.03072 -18.83388,-5.15598 -0.69267,-0.69268 -2.36341,-1.60281 -3.71276,-2.02253 -1.34935,-0.41972 -3.57836,-1.53165 -4.95336,-2.47094 -1.375,-0.93929 -5.42365,-3.24276 -8.99701,-5.1188 -3.57335,-1.87605 -6.94835,-3.88309 -7.5,-4.46008 -3.76401,-3.93698 -4.86268,-4.05763 -4.1062,-0.45092 0.40376,1.925 1.35795,8.11709 2.12042,13.76019 3.4658,25.65047 19.00795,42.6095 42.73727,46.63332 10.47612,1.77645 25.55384,1.85218 28.2602,0.14193 z m 58.73276,-154.78545 c -4.85733,-6.0871 -6.16038,-21.80503 -1.66467,-20.07987 0.90885,0.34876 1.41858,-0.12229 1.42098,-1.31314 0.004,-2.01414 3.584791,-8.43552 5.318221,-9.53722 4.43303,-2.81745 6.47874,5.03806 4.32943,16.62491 -2.13333,11.50072 -6.42835,18.0343 -9.403961,14.30532 z m -130.02121,-18.65788 c -2.54364,-3.44045 -2.70503,-5.17551 -0.93876,-10.09212 1.12105,-3.12054 6.50815,-12 7.28032,-12 5.55187,0 8.2889,6.54127 6.01292,14.37036 -2.85267,9.81285 -8.29405,13.21379 -12.35448,7.72176 z"
       id="path5348"
       inkscape:connector-curvature="0" />
  </g>
</svg>
