<?xml version="1.0" encoding="UTF-8" standalone="no"?>
<!-- Created with Inkscape (http://www.inkscape.org/) -->

<svg
   xmlns:dc="http://purl.org/dc/elements/1.1/"
   xmlns:cc="http://creativecommons.org/ns#"
   xmlns:rdf="http://www.w3.org/1999/02/22-rdf-syntax-ns#"
   xmlns:svg="http://www.w3.org/2000/svg"
   xmlns="http://www.w3.org/2000/svg"
   xmlns:sodipodi="http://sodipodi.sourceforge.net/DTD/sodipodi-0.dtd"
   xmlns:inkscape="http://www.inkscape.org/namespaces/inkscape"
   width="125.37108mm"
   height="110.96423mm"
   viewBox="0 0 444.22827 393.18036"
   id="svg4723"
   version="1.1"
   inkscape:version="0.91 r13725"
   sodipodi:docname="6.svg">
  <defs
     id="defs4725" />
  <sodipodi:namedview
     id="base"
     pagecolor="#ffffff"
     bordercolor="#666666"
     borderopacity="1.0"
     inkscape:pageopacity="0.0"
     inkscape:pageshadow="2"
     inkscape:zoom="1.4"
     inkscape:cx="361.06113"
     inkscape:cy="214.60953"
     inkscape:document-units="px"
     inkscape:current-layer="layer1"
     showgrid="false"
     fit-margin-top="0"
     fit-margin-left="0"
     fit-margin-right="0"
     fit-margin-bottom="0"
     inkscape:window-width="1920"
     inkscape:window-height="1003"
     inkscape:window-x="-9"
     inkscape:window-y="-9"
     inkscape:window-maximized="1" />
  <metadata
     id="metadata4728">
    <rdf:RDF>
      <cc:Work
         rdf:about="">
        <dc:format>image/svg+xml</dc:format>
        <dc:type
           rdf:resource="http://purl.org/dc/dcmitype/StillImage" />
        <dc:title></dc:title>
      </cc:Work>
    </rdf:RDF>
  </metadata>
  <g
     inkscape:label="Ebene 1"
     inkscape:groupmode="layer"
     id="layer1"
     transform="translate(440.59485,-158.45484)">
    <path
       style="fill:#000000"
       d="m -178.23617,551.21126 c -0.38973,-0.37121 -14.23422,-0.9147 -53.91667,-2.11658 -31.30744,-0.94823 -43.13079,-1.70212 -48.30676,-3.08016 -2.85629,-0.76046 -6.62919,-1.38799 -8.38423,-1.39452 -1.75504,-0.007 -3.44659,-0.42545 -3.759,-0.93094 -0.31241,-0.50548 -2.84657,-1.40772 -5.63148,-2.00498 -2.7849,-0.59725 -7.43678,-2.20868 -10.33749,-3.58093 -2.90072,-1.37226 -5.79311,-2.49502 -6.42754,-2.49502 -0.63443,0 -1.15351,-0.35134 -1.15351,-0.78076 0,-0.42942 -1.2375,-1.31308 -2.75,-1.9637 -1.5125,-0.65061 -3.425,-1.57932 -4.25,-2.06381 -0.825,-0.48448 -2.4,-1.33194 -3.5,-1.88323 -8.53114,-4.27561 -17.16493,-9.35807 -23.65227,-13.9234 -4.20875,-2.96181 -8.16037,-5.38511 -8.78139,-5.38511 -0.62101,0 -1.38814,-0.675 -1.70472,-1.5 -0.31659,-0.825 -1.19104,-1.5 -1.94323,-1.5 -3.5727,0 -37.4184,-36.45112 -37.4184,-40.29884 0,-1.23763 -4.31404,-7.93805 -7.53375,-11.70116 -2.79282,-3.26418 -6.64811,-10.13221 -9.54277,-17.00001 -1.27498,-3.025 -2.6043,-5.725 -2.95404,-6 -1.2207,-0.95983 -5.74807,-11.528 -6.42596,-15 -0.37585,-1.925 -1.54294,-6.2 -2.59353,-9.5 -9.71734,-30.52295 -13.22426,-63.89398 -10.49673,-99.88451 0.7138,-9.41886 8.86971,-33.58933 15.22345,-45.11551 0.90955,-1.65 3.0098,-5.475 4.66723,-8.50001 2.78513,-5.08321 7.319,-11.8187 8.7507,-13 0.33329,-0.275 1.19477,-1.625 1.91439,-3 0.71962,-1.375 2.13699,-3.08802 3.1497,-3.8067 1.01272,-0.71869 1.8413,-1.85685 1.8413,-2.52924 0,-0.6724 0.90001,-1.87122 2.00001,-2.66406 1.1,-0.79283 2,-1.85833 2,-2.36777 0,-1.79905 6.82759,-9.22494 13.46482,-14.64473 3.69608,-3.01813 9.94103,-8.63932 13.87767,-12.49155 8.18597,-8.01045 14.92614,-13.49596 16.5828,-13.49596 0.62561,0 1.40451,-0.69587 1.73089,-1.54639 1.86936,-4.87147 13.25294,-7.36046 15.39113,-3.36522 1.41263,2.63954 0.9226,3.19708 -6.41827,7.30233 -35.48802,19.84603 -75.24552,70.17575 -85.39994,108.1093 -0.58892,2.2 -1.55954,5.86273 -2.15694,8.1394 -2.2921,8.73516 -2.85647,31.18004 -1.15314,45.86061 0.57433,4.95 1.2498,11.925 1.50105,15.5 1.34375,19.12012 9.91988,49.95229 19.05364,68.50001 4.91873,9.98835 18.35917,32.08154 20.34499,33.44279 0.44708,0.30647 3.16912,3.70722 6.04897,7.55722 5.5396,7.40575 17.85832,20.5 19.28587,20.5 0.46555,0 0.86595,0.5625 0.88978,1.25 0.0238,0.6875 2.61133,2.96131 5.75,5.05291 3.13868,2.09161 8.18168,5.56791 11.20668,7.72511 3.025,2.15721 7.8625,5.13199 10.75,6.61061 2.8875,1.47862 5.25,2.99281 5.25,3.36484 0,0.37203 1.80644,1.2726 4.01431,2.00126 2.20789,0.72867 4.51299,1.92569 5.12246,2.66006 0.60947,0.73437 1.56308,1.33522 2.11913,1.33522 0.55605,0 4.07863,1.56335 7.82797,3.47412 6.38924,3.25613 22.95722,9.33574 27.41614,10.06034 1.7594,0.28591 9.47657,1.41667 20.5,3.00376 4.25369,0.61243 88.28513,2.62655 99.50002,2.38489 16.54071,-0.35643 15.94854,-0.24617 40.5,-7.54105 17.36201,-5.15871 35.989856,-13.25505 39.089287,-16.98964 0.63559,-0.76583 1.5751,-1.39243 2.0878,-1.39243 1.13588,0 18.822922,-14.04501 18.822922,-14.947 0,-0.35281 1.687501,-2.48055 3.750001,-4.72831 13.337192,-14.53514 19.148493,-21.185 22.045713,-25.22688 1.81265,-2.5288 3.72515,-4.74781 4.25,-4.93114 0.524861,-0.18334 0.954291,-1.20996 0.954291,-2.28139 0,-1.07143 0.675,-2.20707 1.5,-2.52365 0.825,-0.31659 1.5,-1.27953 1.5,-2.13988 0,-0.86035 0.60814,-2.2747 1.35143,-3.14301 1.53193,-1.78959 4.795491,-7.87903 7.009401,-13.07875 6.506391,-15.28125 10.639172,-27.10188 10.639172,-30.43027 0,-1.19335 0.38957,-2.59723 0.86571,-3.11973 0.47614,-0.5225 1.40702,-4.55 2.06861,-8.95 0.66159,-4.4 1.6368502,-9.575 2.1672502,-11.5 4.271971,-15.5045 5.459621,-89.42888 1.53866,-95.77312 -0.77702,-1.25725 -4.2567702,-21.98113 -6.2123002,-36.99775 -0.37752,-2.89898 -1.078241,-5.51304 -1.557161,-5.80903 -0.47892,-0.29599 -0.87077,-1.80201 -0.87077,-3.34672 0,-4.53352 -7.664021,-26.85546 -11.012091,-32.07341 -0.52936,-0.825 -1.71222,-2.85 -2.628581,-4.5 -1.82431,-3.28485 -8.551531,-11.65719 -12.109331,-15.07064 -1.2375,-1.18729 -2.25,-2.6696 -2.25,-3.29404 0,-0.62443 -0.565611,-1.13532 -1.256911,-1.13532 -0.69129,0 -4.66281,-2.3625 -8.825581,-5.25001 -28.889354,-20.03904 -74.522451,-27.56446 -127.917531,-21.09508 -7.425,0.89962 -15.075,1.75472 -17,1.90022 -1.925,0.1455 -6.65,0.96193 -10.5,1.8143 -7.02072,1.55435 -12.82533,2.32769 -24,3.1975 -3.3,0.25686 -7.8,0.69156 -10,0.966 -2.2,0.27443 -6.7,0.76558 -10,1.09145 -3.30001,0.32586 -6.67501,0.93421 -7.50001,1.3519 -2.14244,1.08468 -12.18551,3.39883 -14.1833,3.26816 -0.92582,-0.0606 -2.21842,0.53467 -2.87245,1.32273 -0.65403,0.78805 -2.04987,1.43282 -3.10188,1.43282 -1.052,0 -3.00211,0.71379 -4.33358,1.5862 -1.33146,0.87241 -2.91371,1.28158 -3.51611,0.90928 -0.6024,-0.3723 -3.88469,0.45839 -7.29397,1.84598 -3.40929,1.38758 -8.89871,3.27069 -12.19871,4.18468 -3.3,0.91399 -7.60418,2.32528 -9.56484,3.13621 -1.96066,0.81093 -5.47111,1.61659 -7.80099,1.79036 -2.32988,0.17377 -4.51321,0.593 -4.85184,0.93162 -0.33862,0.33862 -1.67178,0.61568 -2.96258,0.61568 -1.29079,0 -3.18118,0.52102 -4.20086,1.15782 -2.14484,1.33947 -5.47503,0.41059 -4.88407,-1.36231 0.22063,-0.66189 2.28029,-1.32927 4.57703,-1.48306 2.29673,-0.1538 7.51044,-1.86202 11.58602,-3.79604 4.07557,-1.93403 7.90333,-3.51642 8.50613,-3.51642 0.6028,0 1.096,-0.48032 1.096,-1.06738 0,-0.58707 0.82752,-0.80475 1.83894,-0.48373 1.86117,0.59071 5.36108,-0.583 14.9384,-5.00968 2.90253,-1.34156 5.67308,-2.43921 6.15678,-2.43921 0.48369,0 3.73389,-1.27532 7.22266,-2.83406 11.43609,-5.10948 31.76127,-9.36976 53.34323,-11.18105 7.7,-0.64624 18.05,-1.8276 23,-2.62525 29.76372,-4.79617 37.00061,-5.44441 61.50001,-5.50882 19.53367,-0.0514 26.03067,0.35899 42.5284,2.68607 31.369788,4.42484 69.207613,26.28394 81.725345,47.21312 1.0691,1.7875 2.34937,3.25 2.845051,3.25 0.49567,0 0.90122,0.48846 0.90122,1.08546 0,0.597 1.57878,4.29018 3.50841,8.20705 5.566721,11.29969 11.9561422,36.26695 15.4952922,60.54939 0.53373,3.66196 1.84479998,12.50811 2.91349098,19.65811 4.94862002,33.10848 3.36765002,78.16294 -3.75466098,107.00002 -7.0228712,28.43449 -19.1741032,55.73821 -30.9209242,69.47911 -0.7151,0.8365 -3.120521,3.7709 -5.345381,6.5209 -6.101751,7.54198 -14.798162,17.31673 -20.425453,22.95815 -7.899431,7.91927 -25.224953,21.22806 -31.470784,24.17462 -1.925,0.90814 -5.75,2.75922 -8.500001,4.1135 -4.541745,2.23664 -12.246505,4.71321 -27.500005,8.83942 -3.025,0.81829 -6.4,1.88993 -7.5,2.38142 -2.1168,0.9458 -8.16671,2.29626 -17.91678,3.99937 -5.66281,0.98917 -24.79814,1.46382 -25.66656,0.63666 z m -47.2366,-91.73673 c -0.64904,-0.34847 -3.08502,-0.6246 -5.4133,-0.61363 -2.32827,0.011 -4.82168,-0.46842 -5.54089,-1.06532 -0.71922,-0.5969 -3.53927,-1.55533 -6.26678,-2.12985 -7.12547,-1.5009 -15.45911,-4.33898 -15.45911,-5.26471 0,-0.4361 -0.68726,-0.79291 -1.52724,-0.79291 -0.83998,0 -5.45248,-2.10367 -10.25,-4.67483 -33.27397,-17.83267 -55.87535,-48.02778 -58.79128,-78.5443 -0.38263,-4.00448 -1.56751,-9.64048 -2.63304,-12.52443 -2.99122,-8.09602 -1.5729,-10.55278 4.55043,-7.88207 5.00846,2.18446 11.3139,3.69226 12.8982,3.0843 0.88226,-0.33855 3.19032,1.18886 5.85467,3.87446 7.07907,7.13554 20.30974,13.27167 35.89826,16.64894 5.225,1.132 10.85,2.45964 12.5,2.9503 2.64842,0.78758 11.01216,1.85985 20.00001,2.5641 5.34388,0.41872 28.758,3.54525 29.38825,3.92426 3.54267,2.13042 33.06906,1.1837 44.11176,-1.41438 2.475,-0.58231 10.45625,-2.135 17.73611,-3.45042 15.42773,-2.78768 20.10036,-4.1806 22.22201,-6.62442 5.98875,-6.89811 14.16159,15.80235 9.02541,25.06849 -0.76215,1.375 -1.52981,3.4 -1.70589,4.5 -0.37907,2.36798 -5.85891,10.43096 -10.77923,15.86042 -1.92412,2.12323 -3.49841,4.1488 -3.49841,4.50126 0,0.93106 -10.6482,12.13832 -11.53281,12.13832 -1.3272,0 -3.40269,3.43821 -3.43539,5.69098 -0.0397,2.73829 -1.68635,3.84061 -3.49488,2.33966 -1.04608,-0.86817 -1.57441,-0.81247 -2.2062,0.23261 -0.98572,1.63055 -9.7767,7.73675 -11.13845,7.73675 -0.52106,0 -1.48538,0.64825 -2.14294,1.44056 -0.65756,0.79231 -1.83386,1.19562 -2.61401,0.89624 -0.78016,-0.29937 -1.6954,0.17738 -2.03388,1.05945 -0.33848,0.88206 -1.46727,1.60375 -2.50843,1.60375 -1.04115,0 -1.89301,0.41729 -1.89301,0.92731 0,1.42718 -15.49232,7.0727 -19.40873,7.0727 -1.91029,0 -3.76162,0.46661 -4.11409,1.0369 -0.68722,1.11196 -23.69169,0.95992 -25.79712,-0.17049 z m 23.81993,-8.45846 c 4.35849,-0.59685 9.85046,-2.04337 13,-3.42405 1.1,-0.48222 4.475,-1.88501 7.5,-3.11731 4.97252,-2.02568 15.65317,-8.20882 18.7078,-10.83014 0.66429,-0.57005 1.67679,-1.03646 2.25,-1.03646 3.45045,0 -0.64,-5.90195 -4.13636,-5.9682 -0.92322,-0.0175 -2.29522,-0.64845 -3.0489,-1.40213 -5.12135,-5.12135 -16.63584,-6.36116 -30.27254,-3.25958 -13.59507,3.09211 -16.56979,4.8433 -24,14.12857 -2.2,2.74926 -4.53302,5.56442 -5.18449,6.25592 -0.65147,0.69149 -1.49962,2.2671 -1.88478,3.50134 -0.38516,1.23424 -1.20214,2.58158 -1.81551,2.99408 -1.9398,1.30454 1.12672,2.43299 7.14606,2.62969 3.09975,0.10129 5.85226,0.40052 6.1167,0.66496 0.47214,0.47214 7.73004,-0.056 15.62202,-1.13669 z m -35.19841,-3.65796 c -3.49102,-3.83717 -2.79873,-10.75 1.07657,-10.75 0.72975,0 3.43556,-2.68411 6.01293,-5.96468 19.174,-24.40544 62.98612,-27.62652 75.34664,-5.53951 1.13902,2.03532 1.09205,2.06577 11.56231,-7.49581 4.21816,-3.85208 16.69997,-20.79567 16.69997,-22.66959 0,-0.29048 0.63053,-1.94616 1.40118,-3.67928 4.40573,-9.90805 3.97714,-14.50683 -1.16941,-12.54808 -2.8202,1.07335 -13.80656,3.75378 -18.22538,4.44658 -1.37852,0.21613 -5.88139,0.87287 -10.00639,1.45942 -4.125,0.58654 -10.76739,1.77072 -14.76087,2.63149 -9.46944,2.0411 -40.511,2.41848 -43.72156,0.53154 -0.54033,-0.31757 -1.66533,-0.66428 -2.5,-0.77046 -23.55556,-2.99641 -37.12203,-4.64093 -39.51758,-4.7903 -3.03917,-0.18949 -28.32192,-6.19943 -32.00001,-7.60669 -7.30189,-2.79375 -11.33956,-4.62729 -13.65437,-6.20057 -1.4599,-0.99224 -3.29396,-1.80407 -4.07569,-1.80407 -0.78172,0 -2.47819,-1.125 -3.76994,-2.5 -1.29175,-1.375 -2.90518,-2.5 -3.58542,-2.5 -0.68024,0 -2.37825,-1.35654 -3.77336,-3.01453 -1.40453,-1.6692 -3.9669,-3.30061 -5.74157,-3.65554 l -3.20501,-0.641 0.69968,4.37557 c 0.38483,2.40656 1.06006,4.61405 1.50053,4.90553 0.44046,0.29148 1.07112,3.50039 1.40145,7.13091 0.33034,3.63052 1.3351,8.58052 2.23281,11 2.18678,5.89377 5.79419,14.16258 6.71809,15.39907 14.86375,19.89248 24.39498,29.33341 36.458,36.11261 9.57915,5.38331 22.10069,11.25673 26.5809,12.46817 2.31765,0.62669 5.11391,1.50698 6.21391,1.95621 6.50005,2.65452 8.39259,2.56091 5.80159,-0.28699 z m -70.8016,-164.68192 c -1.1,-0.43523 -2.4904,-0.60812 -3.08979,-0.38421 -0.59938,0.22392 -1.66698,-0.28835 -2.37244,-1.13838 -0.70546,-0.85003 -1.88615,-1.54551 -2.62376,-1.54551 -0.7376,0 -3.5855,-2.69693 -6.32866,-5.99317 -18.97365,-22.79914 2.38552,-54.2833 29.76445,-43.87385 12.4377,4.72881 19.37917,20.86569 14.18312,32.97162 -2.43204,5.66625 -9.61929,14.8954 -11.59987,14.8954 -0.78818,0 -1.43305,0.34438 -1.43305,0.76528 0,1.07134 -9.83561,4.45435 -10.94929,3.76606 -0.50188,-0.31018 -1.19517,-0.10662 -1.54063,0.45235 -0.72127,1.16703 -1.24595,1.17808 -4.01008,0.0844 z m 8.83817,-9.54263 c 4.03836,-0.68304 12.66183,-8.09073 12.66183,-10.87671 0,-0.77213 0.675,-1.96407 1.5,-2.64876 1.85646,-1.54072 2.01244,-7.00001 0.2,-7.00001 -0.715,0 -1.75785,0.45786 -2.31745,1.01746 -3.40854,3.40854 -11.38255,2.36415 -11.38255,-1.49083 0,-0.74798 -0.55719,-1.54569 -1.23819,-1.77269 -1.41851,-0.47283 -1.72099,-8.98991 -0.44411,-12.50493 0.74621,-2.05419 0.61047,-2.1722 -1.55262,-1.34979 -1.30369,0.49566 -3.02165,0.54881 -3.81771,0.11812 -6.14943,-3.32704 -16.39504,9.29045 -16.42567,20.22826 l -0.0217,7.7456 4.7675,4.44235 c 4.48897,4.18281 8.32503,5.68329 12.7325,4.98034 0.825,-0.13159 3.22718,-0.53137 5.33817,-0.88841 z m 163.46952,3.44828 c -9.00462,-4.78567 -15.16864,-13.96559 -16.14636,-24.04636 -1.59613,-16.45692 6.43403,-28.07586 19.58253,-28.33419 4.88697,-0.096 5.49326,-0.45611 3.73253,-2.21684 -0.69817,-0.69817 -0.39557,-1.59201 0.95175,-2.81132 4.26435,-3.85919 12.24229,-0.19865 20.56295,9.43495 1.72091,1.99247 3.49643,8.62827 3.50336,13.09345 0.009,5.94547 -7.72944,24.90656 -10.16522,24.90656 -0.42782,0 -1.44926,1.29836 -2.26987,2.88525 -3.30373,6.38872 -13.90782,10.19432 -19.75167,7.0885 z m 8.7257,-9.98991 c 5.32213,-2.5764 8.21425,-5.88536 12.2366,-14.0003 4.09054,-8.2525 4.08514,-9.88637 -0.02,-6.03886 -5.3907,5.05243 -12.75,-0.62788 -12.75,-9.84114 0,-5.54959 -7.71436,-5.84272 -12.38966,-0.47079 -11.04604,12.69195 -0.71582,36.95355 12.92303,30.35109 z"
       id="path5361"
       inkscape:connector-curvature="0" />
  </g>
</svg>
